<ttFont>
<head>
    <!-- Most of this table will be recalculated by the compiler -->
    <tableVersion value="1.0"/>
    <fontRevision value="5.0"/>
    <checkSumAdjustment value="0xd2f95932"/>
    <magicNumber value="0x5f0f3cf5"/>
    <flags value="00000000 00001001"/>
    <unitsPerEm value="2048"/>
    <created value="Fri Nov 21 01:30:18 2003"/>
    <modified value="Fri Sep 29 15:11:14 2006"/>
    <xMin value="-249"/>
    <yMin value="-471"/>
    <xMax value="1268"/>
    <yMax value="1950"/>
    <macStyle value="00000000 00000000"/>
    <lowestRecPPEM value="8"/>
    <fontDirectionHint value="2"/>
    <indexToLocFormat value="0"/>
    <glyphDataFormat value="0"/>
  </head>
    <TTGlyph name=".notdef" xMin="88" yMin="0" xMax="1038" yMax="1307">
      <contour>
        <pt x="1038" y="1307" on="1"/>
        <pt x="1038" y="0" on="1"/>
        <pt x="88" y="0" on="1"/>
        <pt x="88" y="1307" on="1"/>
      </contour>
      <contour>
        <pt x="944" y="92" on="1"/>
        <pt x="944" y="1214" on="1"/>
        <pt x="180" y="1214" on="1"/>
        <pt x="180" y="92" on="1"/>
      </contour>
      <contour>
        <pt x="799" y="836" on="1"/>
        <pt x="799" y="791" on="0"/>
        <pt x="767" y="706" on="0"/>
        <pt x="701" y="641" on="0"/>
        <pt x="598" y="602" on="0"/>
        <pt x="526" y="602" on="1"/>
        <pt x="522" y="444" on="1"/>
        <pt x="422" y="444" on="1"/>
        <pt x="416" y="696" on="1"/>
        <pt x="530" y="696" on="1"/>
        <pt x="674" y="696" on="0"/>
        <pt x="674" y="827" on="1"/>
        <pt x="674" y="872" on="0"/>
        <pt x="632" y="944" on="0"/>
        <pt x="556" y="995" on="0"/>
        <pt x="449" y="1022" on="0"/>
        <pt x="385" y="1022" on="1"/>
        <pt x="350" y="1022" on="1"/>
        <pt x="350" y="1122" on="1"/>
        <pt x="391" y="1122" on="1"/>
        <pt x="496" y="1122" on="0"/>
        <pt x="649" y="1071" on="0"/>
        <pt x="750" y="990" on="0"/>
        <pt x="799" y="887" on="0"/>
      </contour>
      <contour>
        <pt x="471" y="354" on="1"/>
        <pt x="508" y="354" on="0"/>
        <pt x="557" y="303" on="0"/>
        <pt x="557" y="266" on="1"/>
        <pt x="557" y="248" on="0"/>
        <pt x="544" y="217" on="0"/>
        <pt x="521" y="194" on="0"/>
        <pt x="489" y="180" on="0"/>
        <pt x="471" y="180" on="1"/>
        <pt x="453" y="180" on="0"/>
        <pt x="422" y="194" on="0"/>
        <pt x="399" y="217" on="0"/>
        <pt x="385" y="248" on="0"/>
        <pt x="385" y="266" on="1"/>
        <pt x="385" y="284" on="0"/>
        <pt x="399" y="316" on="0"/>
        <pt x="422" y="340" on="0"/>
        <pt x="453" y="354" on="0"/>
      </contour>
    </TTGlyph>
    <TTGlyph name="A" xMin="10" yMin="0" xMax="1116" yMax="1307">
      <contour>
        <pt x="1116" y="0" on="1"/>
        <pt x="922" y="0" on="1"/>
        <pt x="831" y="285" on="1"/>
        <pt x="287" y="285" on="1"/>
        <pt x="195" y="0" on="1"/>
        <pt x="10" y="0" on="1"/>
        <pt x="444" y="1307" on="1"/>
        <pt x="688" y="1307" on="1"/>
      </contour>
      <contour>
        <pt x="780" y="444" on="1"/>
        <pt x="559" y="1143" on="1"/>
        <pt x="338" y="444" on="1"/>
      </contour>
    </TTGlyph>
    <TTGlyph name="AE" xMin="-43" yMin="0" xMax="1085" yMax="1307">
      <contour>
        <pt x="1085" y="0" on="1"/>
        <pt x="584" y="0" on="1"/>
        <pt x="584" y="281" on="1"/>
        <pt x="242" y="281" on="1"/>
        <pt x="133" y="0" on="1"/>
        <pt x="-43" y="0" on="1"/>
        <pt x="489" y="1307" on="1"/>
        <pt x="1071" y="1307" on="1"/>
        <pt x="1071" y="1165" on="1"/>
        <pt x="750" y="1165" on="1"/>
        <pt x="750" y="748" on="1"/>
        <pt x="1057" y="748" on="1"/>
        <pt x="1057" y="606" on="1"/>
        <pt x="750" y="606" on="1"/>
        <pt x="750" y="143" on="1"/>
        <pt x="1085" y="143" on="1"/>
      </contour>
      <contour>
        <pt x="584" y="424" on="1"/>
        <pt x="584" y="1167" on="1"/>
        <pt x="297" y="424" on="1"/>
      </contour>
    </TTGlyph>
    <TTGlyph name="AEacute" xMin="-43" yMin="0" xMax="1085" yMax="1659">
      <component glyphName="AE" x="0" y="0" flags="0x204"/>
      <component glyphName="glyph00319" x="61" y="0" flags="0x4"/>
    </TTGlyph>
    <TTGlyph name="Aacute" xMin="0" yMin="0" xMax="1116" yMax="1659">
      <component glyphName="A" x="0" y="0" flags="0x204"/>
      <component glyphName="glyph00319" x="0" y="0" flags="0x4"/>
    </TTGlyph>
    <TTGlyph name="Abreve" xMin="0" yMin="0" xMax="1116" yMax="1665">
      <component glyphName="A" x="0" y="0" flags="0x204"/>
      <component glyphName="glyph00332" x="0" y="0" flags="0x4"/>
    </TTGlyph>
    <TTGlyph name="Acircumflex" xMin="0" yMin="0" xMax="1116" yMax="1659">
      <component glyphName="A" x="0" y="0" flags="0x204"/>
      <component glyphName="glyph00321" x="0" y="0" flags="0x4"/>
    </TTGlyph>
    <TTGlyph name="Adieresis" xMin="0" yMin="0" xMax="1116" yMax="1659">
      <component glyphName="A" x="0" y="0" flags="0x204"/>
      <component glyphName="glyph00328" x="0" y="0" flags="0x4"/>
    </TTGlyph>
    <TTGlyph name="Agrave" xMin="0" yMin="0" xMax="1116" yMax="1659">
      <component glyphName="A" x="0" y="0" flags="0x204"/>
      <component glyphName="glyph00317" x="0" y="0" flags="0x4"/>
    </TTGlyph>
    <TTGlyph name="Alpha" xMin="10" yMin="0" xMax="1116" yMax="1307">
      <component glyphName="A" x="0" y="0" flags="0x204"/>
    </TTGlyph>
    <TTGlyph name="Alphatonos" xMin="10" yMin="0" xMax="1260" yMax="1434">
      <component glyphName="A" x="0" y="0" flags="0x204"/>
      <component glyphName="glyph00473" x="184" y="0" flags="0x4"/>
    </TTGlyph>
    <TTGlyph name="Amacron" xMin="0" yMin="0" xMax="1116" yMax="1616">
      <component glyphName="A" x="0" y="0" flags="0x204"/>
      <component glyphName="glyph00330" x="0" y="0" flags="0x4"/>
    </TTGlyph>
    <TTGlyph name="Aogonek" xMin="10" yMin="-385" xMax="1131" yMax="1307">
      <contour>
        <pt x="1131" y="-375" on="1"/>
        <pt x="1106" y="-380" on="0"/>
        <pt x="1045" y="-385" on="0"/>
        <pt x="1020" y="-385" on="1"/>
        <pt x="912" y="-385" on="0"/>
        <pt x="801" y="-293" on="0"/>
        <pt x="801" y="-221" on="1"/>
        <pt x="801" y="-198" on="0"/>
        <pt x="810" y="-152" on="0"/>
        <pt x="836" y="-100" on="0"/>
        <pt x="883" y="-38" on="0"/>
        <pt x="922" y="0" on="1"/>
        <pt x="831" y="285" on="1"/>
        <pt x="287" y="285" on="1"/>
        <pt x="195" y="0" on="1"/>
        <pt x="10" y="0" on="1"/>
        <pt x="444" y="1307" on="1"/>
        <pt x="688" y="1307" on="1"/>
        <pt x="1116" y="0" on="1"/>
        <pt x="1078" y="0" on="1"/>
        <pt x="1042" y="-36" on="0"/>
        <pt x="998" y="-91" on="0"/>
        <pt x="974" y="-135" on="0"/>
        <pt x="965" y="-174" on="0"/>
        <pt x="965" y="-193" on="1"/>
        <pt x="965" y="-225" on="0"/>
        <pt x="1008" y="-266" on="0"/>
        <pt x="1061" y="-266" on="1"/>
        <pt x="1075" y="-266" on="0"/>
        <pt x="1114" y="-264" on="0"/>
        <pt x="1131" y="-262" on="1"/>
      </contour>
      <contour>
        <pt x="780" y="444" on="1"/>
        <pt x="559" y="1143" on="1"/>
        <pt x="338" y="444" on="1"/>
      </contour>
    </TTGlyph>
    <TTGlyph name="Aring" xMin="0" yMin="0" xMax="1116" yMax="1740">
      <component glyphName="A" x="0" y="0" flags="0x204"/>
      <component glyphName="glyph00334" x="0" y="0" flags="0x4"/>
    </TTGlyph>
    <TTGlyph name="Aringacute" xMin="0" yMin="0" xMax="1116" yMax="1950">
      <component glyphName="A" x="0" y="0" flags="0x204"/>
      <component glyphName="glyph00335" x="0" y="0" flags="0x4"/>
    </TTGlyph>
    <TTGlyph name="Atilde" xMin="0" yMin="0" xMax="1116" yMax="1671">
      <component glyphName="A" x="0" y="0" flags="0x204"/>
      <component glyphName="glyph00326" x="0" y="0" flags="0x4"/>
    </TTGlyph>
    <TTGlyph name="B" xMin="158" yMin="0" xMax="1016" yMax="1307">
      <contour>
        <pt x="1016" y="391" on="1"/>
        <pt x="1016" y="297" on="0"/>
        <pt x="943" y="152" on="0"/>
        <pt x="808" y="52" on="0"/>
        <pt x="617" y="0" on="0"/>
        <pt x="500" y="0" on="1"/>
        <pt x="158" y="0" on="1"/>
        <pt x="158" y="1307" on="1"/>
        <pt x="532" y="1307" on="1"/>
        <pt x="969" y="1307" on="0"/>
        <pt x="969" y="989" on="1"/>
        <pt x="969" y="883" on="0"/>
        <pt x="868" y="731" on="0"/>
        <pt x="754" y="694" on="1"/>
        <pt x="807" y="684" on="0"/>
        <pt x="902" y="636" on="0"/>
        <pt x="974" y="560" on="0"/>
        <pt x="1016" y="456" on="0"/>
      </contour>
      <contour>
        <pt x="784" y="965" on="1"/>
        <pt x="784" y="1005" on="0"/>
        <pt x="760" y="1076" on="0"/>
        <pt x="700" y="1127" on="0"/>
        <pt x="598" y="1157" on="0"/>
        <pt x="520" y="1157" on="1"/>
        <pt x="336" y="1157" on="1"/>
        <pt x="336" y="748" on="1"/>
        <pt x="514" y="748" on="1"/>
        <pt x="575" y="748" on="0"/>
        <pt x="674" y="774" on="0"/>
        <pt x="745" y="828" on="0"/>
        <pt x="784" y="909" on="0"/>
      </contour>
      <contour>
        <pt x="827" y="385" on="1"/>
        <pt x="827" y="435" on="0"/>
        <pt x="785" y="515" on="0"/>
        <pt x="705" y="570" on="0"/>
        <pt x="590" y="600" on="0"/>
        <pt x="518" y="600" on="1"/>
        <pt x="336" y="600" on="1"/>
        <pt x="336" y="150" on="1"/>
        <pt x="524" y="150" on="1"/>
        <pt x="677" y="150" on="0"/>
        <pt x="827" y="264" on="0"/>
      </contour>
    </TTGlyph>
    <TTGlyph name="Beta" xMin="158" yMin="0" xMax="1016" yMax="1307">
      <component glyphName="B" x="0" y="0" flags="0x204"/>
    </TTGlyph>
    <TTGlyph name="C" xMin="92" yMin="-16" xMax="995" yMax="1323">
      <contour>
        <pt x="995" y="49" on="1"/>
        <pt x="838" y="-16" on="0"/>
        <pt x="666" y="-16" on="1"/>
        <pt x="389" y="-16" on="0"/>
        <pt x="92" y="315" on="0"/>
        <pt x="92" y="639" on="1"/>
        <pt x="92" y="796" on="0"/>
        <pt x="174" y="1050" on="0"/>
        <pt x="326" y="1227" on="0"/>
        <pt x="542" y="1323" on="0"/>
        <pt x="676" y="1323" on="1"/>
        <pt x="767" y="1323" on="0"/>
        <pt x="923" y="1292" on="0"/>
        <pt x="995" y="1260" on="1"/>
        <pt x="995" y="1085" on="1"/>
        <pt x="924" y="1124" on="0"/>
        <pt x="772" y="1165" on="0"/>
        <pt x="682" y="1165" on="1"/>
        <pt x="590" y="1165" on="0"/>
        <pt x="441" y="1096" on="0"/>
        <pt x="337" y="965" on="0"/>
        <pt x="281" y="776" on="0"/>
        <pt x="281" y="655" on="1"/>
        <pt x="281" y="401" on="0"/>
        <pt x="487" y="143" on="0"/>
        <pt x="686" y="143" on="1"/>
        <pt x="770" y="143" on="0"/>
        <pt x="924" y="182" on="0"/>
        <pt x="995" y="217" on="1"/>
      </contour>
    </TTGlyph>
    <TTGlyph name="Cacute" xMin="61" yMin="-16" xMax="995" yMax="1659">
      <component glyphName="C" x="0" y="0" flags="0x204"/>
      <component glyphName="glyph00319" x="61" y="0" flags="0x4"/>
    </TTGlyph>
    <TTGlyph name="Ccaron" xMin="61" yMin="-16" xMax="995" yMax="1659">
      <component glyphName="C" x="0" y="0" flags="0x204"/>
      <component glyphName="glyph00323" x="61" y="0" flags="0x4"/>
    </TTGlyph>
    <TTGlyph name="Ccedilla" xMin="92" yMin="-295" xMax="995" yMax="1323">
      <contour>
        <pt x="995" y="49" on="1"/>
        <pt x="836" y="-16" on="0"/>
        <pt x="676" y="-16" on="1"/>
        <pt x="594" y="-295" on="1"/>
        <pt x="442" y="-295" on="1"/>
        <pt x="508" y="0" on="1"/>
        <pt x="306" y="41" on="0"/>
        <pt x="92" y="368" on="0"/>
        <pt x="92" y="639" on="1"/>
        <pt x="92" y="796" on="0"/>
        <pt x="174" y="1050" on="0"/>
        <pt x="326" y="1227" on="0"/>
        <pt x="542" y="1323" on="0"/>
        <pt x="676" y="1323" on="1"/>
        <pt x="767" y="1323" on="0"/>
        <pt x="923" y="1292" on="0"/>
        <pt x="995" y="1260" on="1"/>
        <pt x="995" y="1085" on="1"/>
        <pt x="924" y="1124" on="0"/>
        <pt x="772" y="1165" on="0"/>
        <pt x="682" y="1165" on="1"/>
        <pt x="590" y="1165" on="0"/>
        <pt x="441" y="1096" on="0"/>
        <pt x="337" y="965" on="0"/>
        <pt x="281" y="776" on="0"/>
        <pt x="281" y="655" on="1"/>
        <pt x="281" y="403" on="0"/>
        <pt x="487" y="143" on="0"/>
        <pt x="686" y="143" on="1"/>
        <pt x="770" y="143" on="0"/>
        <pt x="924" y="182" on="0"/>
        <pt x="995" y="217" on="1"/>
      </contour>
    </TTGlyph>
    <TTGlyph name="Ccircumflex" xMin="61" yMin="-16" xMax="995" yMax="1659">
      <component glyphName="C" x="0" y="0" flags="0x204"/>
      <component glyphName="glyph00321" x="61" y="0" flags="0x4"/>
    </TTGlyph>
    <TTGlyph name="Cdotaccent" xMin="61" yMin="-16" xMax="995" yMax="1679">
      <component glyphName="C" x="0" y="0" flags="0x204"/>
      <component glyphName="glyph00339" x="61" y="0" flags="0x4"/>
    </TTGlyph>
    <TTGlyph name="Chi" xMin="18" yMin="0" xMax="1102" yMax="1307">
      <component glyphName="X" x="0" y="0" flags="0x204"/>
    </TTGlyph>
    <TTGlyph name="D" xMin="109" yMin="0" xMax="1053" yMax="1307">
      <contour>
        <pt x="1053" y="668" on="1"/>
        <pt x="1053" y="574" on="0"/>
        <pt x="1024" y="402" on="0"/>
        <pt x="960" y="254" on="0"/>
        <pt x="858" y="133" on="0"/>
        <pt x="710" y="47" on="0"/>
        <pt x="514" y="0" on="0"/>
        <pt x="389" y="0" on="1"/>
        <pt x="109" y="0" on="1"/>
        <pt x="109" y="1307" on="1"/>
        <pt x="446" y="1307" on="1"/>
        <pt x="752" y="1307" on="0"/>
        <pt x="1053" y="992" on="0"/>
      </contour>
      <contour>
        <pt x="866" y="655" on="1"/>
        <pt x="866" y="794" on="0"/>
        <pt x="814" y="986" on="0"/>
        <pt x="708" y="1104" on="0"/>
        <pt x="548" y="1157" on="0"/>
        <pt x="440" y="1157" on="1"/>
        <pt x="287" y="1157" on="1"/>
        <pt x="287" y="154" on="1"/>
        <pt x="420" y="154" on="1"/>
        <pt x="866" y="154" on="0"/>
      </contour>
    </TTGlyph>
    <TTGlyph name="Dcaron" xMin="-39" yMin="0" xMax="1053" yMax="1659">
      <component glyphName="D" x="0" y="0" flags="0x204"/>
      <component glyphName="glyph00323" x="-39" y="0" flags="0x4"/>
    </TTGlyph>
    <TTGlyph name="Dcroat" xMin="0" yMin="0" xMax="1053" yMax="1307">
      <component glyphName="Eth" x="0" y="0" flags="0x204"/>
    </TTGlyph>
    <TTGlyph name="Delta" xMin="55" yMin="0" xMax="1071" yMax="1307">
      <contour>
        <pt x="55" y="152" on="1"/>
        <pt x="449" y="1307" on="1"/>
        <pt x="688" y="1307" on="1"/>
        <pt x="1071" y="152" on="1"/>
        <pt x="1071" y="0" on="1"/>
        <pt x="55" y="0" on="1"/>
      </contour>
      <contour>
        <pt x="868" y="166" on="1"/>
        <pt x="559" y="1143" on="1"/>
        <pt x="248" y="166" on="1"/>
      </contour>
    </TTGlyph>
    <TTGlyph name="E" xMin="201" yMin="0" xMax="944" yMax="1307">
      <contour>
        <pt x="944" y="0" on="1"/>
        <pt x="201" y="0" on="1"/>
        <pt x="201" y="1307" on="1"/>
        <pt x="944" y="1307" on="1"/>
        <pt x="944" y="1157" on="1"/>
        <pt x="379" y="1157" on="1"/>
        <pt x="379" y="752" on="1"/>
        <pt x="922" y="752" on="1"/>
        <pt x="922" y="602" on="1"/>
        <pt x="379" y="602" on="1"/>
        <pt x="379" y="152" on="1"/>
        <pt x="944" y="152" on="1"/>
      </contour>
    </TTGlyph>
    <TTGlyph name="Eacute" xMin="0" yMin="0" xMax="944" yMax="1659">
      <component glyphName="E" x="0" y="0" flags="0x204"/>
      <component glyphName="glyph00319" x="0" y="0" flags="0x4"/>
    </TTGlyph>
    <TTGlyph name="Ebreve" xMin="0" yMin="0" xMax="944" yMax="1665">
      <component glyphName="E" x="0" y="0" flags="0x204"/>
      <component glyphName="glyph00332" x="0" y="0" flags="0x4"/>
    </TTGlyph>
    <TTGlyph name="Ecaron" xMin="0" yMin="0" xMax="944" yMax="1659">
      <component glyphName="E" x="0" y="0" flags="0x204"/>
      <component glyphName="glyph00323" x="0" y="0" flags="0x4"/>
    </TTGlyph>
    <TTGlyph name="Ecircumflex" xMin="0" yMin="0" xMax="944" yMax="1659">
      <component glyphName="E" x="0" y="0" flags="0x204"/>
      <component glyphName="glyph00321" x="0" y="0" flags="0x4"/>
    </TTGlyph>
    <TTGlyph name="Edieresis" xMin="0" yMin="0" xMax="944" yMax="1659">
      <component glyphName="E" x="0" y="0" flags="0x204"/>
      <component glyphName="glyph00328" x="0" y="0" flags="0x4"/>
    </TTGlyph>
    <TTGlyph name="Edotaccent" xMin="0" yMin="0" xMax="944" yMax="1679">
      <component glyphName="E" x="0" y="0" flags="0x204"/>
      <component glyphName="glyph00339" x="0" y="0" flags="0x4"/>
    </TTGlyph>
    <TTGlyph name="Egrave" xMin="0" yMin="0" xMax="944" yMax="1659">
      <component glyphName="E" x="0" y="0" flags="0x204"/>
      <component glyphName="glyph00317" x="0" y="0" flags="0x4"/>
    </TTGlyph>
    <TTGlyph name="Emacron" xMin="0" yMin="0" xMax="944" yMax="1616">
      <component glyphName="E" x="0" y="0" flags="0x204"/>
      <component glyphName="glyph00330" x="0" y="0" flags="0x4"/>
    </TTGlyph>
    <TTGlyph name="Eng" xMin="119" yMin="-420" xMax="1008" yMax="1307">
      <contour>
        <pt x="408" y="821" on="1"/>
        <pt x="285" y="1077" on="1"/>
        <pt x="285" y="0" on="1"/>
        <pt x="119" y="0" on="1"/>
        <pt x="119" y="1307" on="1"/>
        <pt x="338" y="1307" on="1"/>
        <pt x="735" y="555" on="1"/>
        <pt x="842" y="338" on="1"/>
        <pt x="842" y="1307" on="1"/>
        <pt x="1008" y="1307" on="1"/>
        <pt x="1008" y="18" on="1"/>
        <pt x="1008" y="-87" on="0"/>
        <pt x="952" y="-250" on="0"/>
        <pt x="847" y="-362" on="0"/>
        <pt x="698" y="-420" on="0"/>
        <pt x="604" y="-420" on="1"/>
        <pt x="606" y="-270" on="1"/>
        <pt x="715" y="-270" on="0"/>
        <pt x="834" y="-128" on="0"/>
        <pt x="834" y="12" on="1"/>
      </contour>
    </TTGlyph>
    <TTGlyph name="Eogonek" xMin="201" yMin="-385" xMax="998" yMax="1307">
      <contour>
        <pt x="998" y="-375" on="1"/>
        <pt x="973" y="-380" on="0"/>
        <pt x="912" y="-385" on="0"/>
        <pt x="887" y="-385" on="1"/>
        <pt x="779" y="-385" on="0"/>
        <pt x="668" y="-293" on="0"/>
        <pt x="668" y="-221" on="1"/>
        <pt x="668" y="-198" on="0"/>
        <pt x="677" y="-152" on="0"/>
        <pt x="703" y="-100" on="0"/>
        <pt x="750" y="-38" on="0"/>
        <pt x="789" y="0" on="1"/>
        <pt x="201" y="0" on="1"/>
        <pt x="201" y="1307" on="1"/>
        <pt x="944" y="1307" on="1"/>
        <pt x="944" y="1157" on="1"/>
        <pt x="379" y="1157" on="1"/>
        <pt x="379" y="752" on="1"/>
        <pt x="922" y="752" on="1"/>
        <pt x="922" y="602" on="1"/>
        <pt x="379" y="602" on="1"/>
        <pt x="379" y="152" on="1"/>
        <pt x="944" y="152" on="1"/>
        <pt x="944" y="0" on="1"/>
        <pt x="945" y="0" on="1"/>
        <pt x="909" y="-36" on="0"/>
        <pt x="865" y="-91" on="0"/>
        <pt x="841" y="-135" on="0"/>
        <pt x="832" y="-174" on="0"/>
        <pt x="832" y="-193" on="1"/>
        <pt x="832" y="-225" on="0"/>
        <pt x="875" y="-266" on="0"/>
        <pt x="928" y="-266" on="1"/>
        <pt x="942" y="-266" on="0"/>
        <pt x="981" y="-264" on="0"/>
        <pt x="998" y="-262" on="1"/>
      </contour>
    </TTGlyph>
    <TTGlyph name="Epsilon" xMin="201" yMin="0" xMax="944" yMax="1307">
      <component glyphName="E" x="0" y="0" flags="0x204"/>
    </TTGlyph>
    <TTGlyph name="Epsilontonos" xMin="-106" yMin="0" xMax="1117" yMax="1434">
      <component glyphName="E" x="0" y="0" flags="0x204"/>
      <component glyphName="glyph00473" x="41" y="0" flags="0x4"/>
    </TTGlyph>
    <TTGlyph name="Eta" xMin="111" yMin="0" xMax="1016" yMax="1307">
      <component glyphName="H" x="0" y="0" flags="0x204"/>
    </TTGlyph>
    <TTGlyph name="Etatonos" xMin="-147" yMin="0" xMax="1076" yMax="1434">
      <component glyphName="H" x="0" y="0" flags="0x204"/>
      <component glyphName="glyph00473" x="0" y="0" flags="0x4"/>
    </TTGlyph>
    <TTGlyph name="Eth" xMin="0" yMin="0" xMax="1053" yMax="1307">
      <contour>
        <pt x="139" y="1307" on="1"/>
        <pt x="457" y="1307" on="1"/>
        <pt x="762" y="1307" on="0"/>
        <pt x="1053" y="992" on="0"/>
        <pt x="1053" y="668" on="1"/>
        <pt x="1053" y="574" on="0"/>
        <pt x="1026" y="402" on="0"/>
        <pt x="964" y="254" on="0"/>
        <pt x="864" y="133" on="0"/>
        <pt x="719" y="47" on="0"/>
        <pt x="524" y="0" on="0"/>
        <pt x="399" y="0" on="1"/>
        <pt x="139" y="0" on="1"/>
        <pt x="139" y="602" on="1"/>
        <pt x="0" y="602" on="1"/>
        <pt x="0" y="752" on="1"/>
        <pt x="139" y="752" on="1"/>
      </contour>
      <contour>
        <pt x="317" y="154" on="1"/>
        <pt x="430" y="154" on="1"/>
        <pt x="653" y="154" on="0"/>
        <pt x="866" y="405" on="0"/>
        <pt x="866" y="655" on="1"/>
        <pt x="866" y="794" on="0"/>
        <pt x="817" y="986" on="0"/>
        <pt x="715" y="1104" on="0"/>
        <pt x="558" y="1157" on="0"/>
        <pt x="451" y="1157" on="1"/>
        <pt x="317" y="1157" on="1"/>
        <pt x="317" y="752" on="1"/>
        <pt x="543" y="752" on="1"/>
        <pt x="543" y="602" on="1"/>
        <pt x="317" y="602" on="1"/>
      </contour>
    </TTGlyph>
    <TTGlyph name="Euro" xMin="51" yMin="-18" xMax="1001" yMax="1325">
      <contour>
        <pt x="399" y="422" on="1"/>
        <pt x="431" y="279" on="0"/>
        <pt x="590" y="137" on="0"/>
        <pt x="727" y="137" on="1"/>
        <pt x="801" y="137" on="0"/>
        <pt x="938" y="176" on="0"/>
        <pt x="1001" y="211" on="1"/>
        <pt x="1001" y="47" on="1"/>
        <pt x="932" y="15" on="0"/>
        <pt x="787" y="-18" on="0"/>
        <pt x="709" y="-18" on="1"/>
        <pt x="498" y="-18" on="0"/>
        <pt x="249" y="202" on="0"/>
        <pt x="211" y="422" on="1"/>
        <pt x="51" y="422" on="1"/>
        <pt x="51" y="558" on="1"/>
        <pt x="195" y="558" on="1"/>
        <pt x="193" y="577" on="0"/>
        <pt x="193" y="615" on="0"/>
        <pt x="193" y="638" on="1"/>
        <pt x="193" y="663" on="0"/>
        <pt x="195" y="712" on="0"/>
        <pt x="197" y="736" on="1"/>
        <pt x="51" y="736" on="1"/>
        <pt x="51" y="872" on="1"/>
        <pt x="217" y="872" on="1"/>
        <pt x="240" y="977" on="0"/>
        <pt x="330" y="1145" on="0"/>
        <pt x="458" y="1262" on="0"/>
        <pt x="621" y="1325" on="0"/>
        <pt x="719" y="1325" on="1"/>
        <pt x="799" y="1325" on="0"/>
        <pt x="936" y="1293" on="0"/>
        <pt x="1001" y="1262" on="1"/>
        <pt x="1001" y="1091" on="1"/>
        <pt x="938" y="1129" on="0"/>
        <pt x="803" y="1170" on="0"/>
        <pt x="723" y="1170" on="1"/>
        <pt x="599" y="1170" on="0"/>
        <pt x="439" y="1018" on="0"/>
        <pt x="401" y="872" on="1"/>
        <pt x="803" y="872" on="1"/>
        <pt x="803" y="736" on="1"/>
        <pt x="381" y="736" on="1"/>
        <pt x="379" y="715" on="0"/>
        <pt x="377" y="672" on="0"/>
        <pt x="377" y="650" on="1"/>
        <pt x="377" y="625" on="0"/>
        <pt x="379" y="581" on="0"/>
        <pt x="379" y="558" on="1"/>
        <pt x="803" y="558" on="1"/>
        <pt x="803" y="422" on="1"/>
      </contour>
    </TTGlyph>
    <TTGlyph name="F" xMin="205" yMin="0" xMax="942" yMax="1307">
      <contour>
        <pt x="942" y="1155" on="1"/>
        <pt x="387" y="1155" on="1"/>
        <pt x="387" y="731" on="1"/>
        <pt x="913" y="731" on="1"/>
        <pt x="913" y="582" on="1"/>
        <pt x="387" y="582" on="1"/>
        <pt x="387" y="0" on="1"/>
        <pt x="205" y="0" on="1"/>
        <pt x="205" y="1307" on="1"/>
        <pt x="942" y="1307" on="1"/>
      </contour>
    </TTGlyph>
    <TTGlyph name="G" xMin="66" yMin="-18" xMax="1012" yMax="1325">
      <contour>
        <pt x="1006" y="1083" on="1"/>
        <pt x="933" y="1122" on="0"/>
        <pt x="779" y="1165" on="0"/>
        <pt x="688" y="1165" on="1"/>
        <pt x="584" y="1165" on="0"/>
        <pt x="422" y="1091" on="0"/>
        <pt x="311" y="956" on="0"/>
        <pt x="252" y="766" on="0"/>
        <pt x="252" y="651" on="1"/>
        <pt x="252" y="531" on="0"/>
        <pt x="300" y="341" on="0"/>
        <pt x="402" y="209" on="0"/>
        <pt x="561" y="139" on="0"/>
        <pt x="672" y="139" on="1"/>
        <pt x="691" y="139" on="0"/>
        <pt x="735" y="143" on="0"/>
        <pt x="779" y="150" on="0"/>
        <pt x="820" y="160" on="0"/>
        <pt x="836" y="166" on="1"/>
        <pt x="836" y="582" on="1"/>
        <pt x="569" y="582" on="1"/>
        <pt x="569" y="729" on="1"/>
        <pt x="1012" y="729" on="1"/>
        <pt x="1012" y="61" on="1"/>
        <pt x="971" y="42" on="0"/>
        <pt x="880" y="12" on="0"/>
        <pt x="785" y="-8" on="0"/>
        <pt x="691" y="-18" on="0"/>
        <pt x="647" y="-18" on="1"/>
        <pt x="513" y="-18" on="0"/>
        <pt x="298" y="66" on="0"/>
        <pt x="147" y="231" on="0"/>
        <pt x="66" y="477" on="0"/>
        <pt x="66" y="639" on="1"/>
        <pt x="66" y="800" on="0"/>
        <pt x="156" y="1055" on="0"/>
        <pt x="319" y="1232" on="0"/>
        <pt x="548" y="1325" on="0"/>
        <pt x="686" y="1325" on="1"/>
        <pt x="774" y="1325" on="0"/>
        <pt x="933" y="1294" on="0"/>
        <pt x="1006" y="1260" on="1"/>
      </contour>
    </TTGlyph>
    <TTGlyph name="Gamma" xMin="233" yMin="0" xMax="985" yMax="1307">
      <contour>
        <pt x="414" y="1155" on="1"/>
        <pt x="414" y="0" on="1"/>
        <pt x="233" y="0" on="1"/>
        <pt x="233" y="1307" on="1"/>
        <pt x="985" y="1307" on="1"/>
        <pt x="985" y="1155" on="1"/>
      </contour>
    </TTGlyph>
    <TTGlyph name="Gbreve" xMin="61" yMin="-18" xMax="1012" yMax="1665">
      <component glyphName="G" x="0" y="0" flags="0x204"/>
      <component glyphName="glyph00332" x="61" y="0" flags="0x4"/>
    </TTGlyph>
    <TTGlyph name="Gcircumflex" xMin="61" yMin="-18" xMax="1012" yMax="1659">
      <component glyphName="G" x="0" y="0" flags="0x204"/>
      <component glyphName="glyph00321" x="61" y="0" flags="0x4"/>
    </TTGlyph>
    <TTGlyph name="Gcommaaccent" xMin="66" yMin="-410" xMax="1012" yMax="1325">
      <component glyphName="G" x="0" y="0" flags="0x204"/>
      <component glyphName="uni0326" x="0" y="0" flags="0x4"/>
    </TTGlyph>
    <TTGlyph name="Gdotaccent" xMin="61" yMin="-18" xMax="1012" yMax="1679">
      <component glyphName="G" x="0" y="0" flags="0x204"/>
      <component glyphName="glyph00339" x="61" y="0" flags="0x4"/>
    </TTGlyph>
    <TTGlyph name="H" xMin="111" yMin="0" xMax="1016" yMax="1307">
      <contour>
        <pt x="1016" y="0" on="1"/>
        <pt x="838" y="0" on="1"/>
        <pt x="838" y="600" on="1"/>
        <pt x="289" y="600" on="1"/>
        <pt x="289" y="0" on="1"/>
        <pt x="111" y="0" on="1"/>
        <pt x="111" y="1307" on="1"/>
        <pt x="289" y="1307" on="1"/>
        <pt x="289" y="754" on="1"/>
        <pt x="838" y="754" on="1"/>
        <pt x="838" y="1307" on="1"/>
        <pt x="1016" y="1307" on="1"/>
      </contour>
    </TTGlyph>
    <TTGlyph name="Hbar" xMin="31" yMin="0" xMax="1096" yMax="1307">
      <contour>
        <pt x="985" y="940" on="1"/>
        <pt x="985" y="0" on="1"/>
        <pt x="807" y="0" on="1"/>
        <pt x="807" y="571" on="1"/>
        <pt x="319" y="571" on="1"/>
        <pt x="319" y="0" on="1"/>
        <pt x="141" y="0" on="1"/>
        <pt x="141" y="940" on="1"/>
        <pt x="31" y="940" on="1"/>
        <pt x="31" y="1090" on="1"/>
        <pt x="141" y="1090" on="1"/>
        <pt x="141" y="1307" on="1"/>
        <pt x="319" y="1307" on="1"/>
        <pt x="319" y="1090" on="1"/>
        <pt x="807" y="1090" on="1"/>
        <pt x="807" y="1307" on="1"/>
        <pt x="985" y="1307" on="1"/>
        <pt x="985" y="1090" on="1"/>
        <pt x="1096" y="1090" on="1"/>
        <pt x="1096" y="940" on="1"/>
      </contour>
      <contour>
        <pt x="807" y="721" on="1"/>
        <pt x="807" y="940" on="1"/>
        <pt x="319" y="940" on="1"/>
        <pt x="319" y="721" on="1"/>
      </contour>
    </TTGlyph>
    <TTGlyph name="Hcircumflex" xMin="0" yMin="0" xMax="1016" yMax="1659">
      <component glyphName="H" x="0" y="0" flags="0x204"/>
      <component glyphName="glyph00321" x="0" y="0" flags="0x4"/>
    </TTGlyph>
    <TTGlyph name="I" xMin="172" yMin="0" xMax="954" yMax="1307">
      <contour>
        <pt x="473" y="1157" on="1"/>
        <pt x="172" y="1157" on="1"/>
        <pt x="172" y="1307" on="1"/>
        <pt x="954" y="1307" on="1"/>
        <pt x="954" y="1157" on="1"/>
        <pt x="653" y="1157" on="1"/>
        <pt x="653" y="152" on="1"/>
        <pt x="954" y="152" on="1"/>
        <pt x="954" y="0" on="1"/>
        <pt x="172" y="0" on="1"/>
        <pt x="172" y="152" on="1"/>
        <pt x="473" y="152" on="1"/>
      </contour>
    </TTGlyph>
    <TTGlyph name="IJ" xMin="111" yMin="-12" xMax="1016" yMax="1307">
      <contour>
        <pt x="475" y="176" on="1"/>
        <pt x="491" y="169" on="0"/>
        <pt x="534" y="154" on="0"/>
        <pt x="580" y="142" on="0"/>
        <pt x="626" y="135" on="0"/>
        <pt x="645" y="135" on="1"/>
        <pt x="737" y="135" on="0"/>
        <pt x="838" y="243" on="0"/>
        <pt x="838" y="369" on="1"/>
        <pt x="838" y="1307" on="1"/>
        <pt x="1016" y="1307" on="1"/>
        <pt x="1016" y="354" on="1"/>
        <pt x="1016" y="272" on="0"/>
        <pt x="971" y="137" on="0"/>
        <pt x="881" y="41" on="0"/>
        <pt x="746" y="-12" on="0"/>
        <pt x="655" y="-12" on="1"/>
        <pt x="554" y="-12" on="0"/>
        <pt x="475" y="16" on="1"/>
      </contour>
      <contour>
        <pt x="289" y="0" on="1"/>
        <pt x="111" y="0" on="1"/>
        <pt x="111" y="1307" on="1"/>
        <pt x="289" y="1307" on="1"/>
      </contour>
    </TTGlyph>
    <TTGlyph name="Iacute" xMin="0" yMin="0" xMax="954" yMax="1659">
      <component glyphName="I" x="0" y="0" flags="0x204"/>
      <component glyphName="glyph00319" x="0" y="0" flags="0x4"/>
    </TTGlyph>
    <TTGlyph name="Ibreve" xMin="0" yMin="0" xMax="954" yMax="1665">
      <component glyphName="I" x="0" y="0" flags="0x204"/>
      <component glyphName="glyph00332" x="0" y="0" flags="0x4"/>
    </TTGlyph>
    <TTGlyph name="Icircumflex" xMin="0" yMin="0" xMax="954" yMax="1659">
      <component glyphName="I" x="0" y="0" flags="0x204"/>
      <component glyphName="glyph00321" x="0" y="0" flags="0x4"/>
    </TTGlyph>
    <TTGlyph name="Idieresis" xMin="0" yMin="0" xMax="954" yMax="1659">
      <component glyphName="I" x="0" y="0" flags="0x204"/>
      <component glyphName="glyph00328" x="0" y="0" flags="0x4"/>
    </TTGlyph>
    <TTGlyph name="Idotaccent" xMin="0" yMin="0" xMax="954" yMax="1679">
      <component glyphName="I" x="0" y="0" flags="0x204"/>
      <component glyphName="glyph00339" x="0" y="0" flags="0x4"/>
    </TTGlyph>
    <TTGlyph name="Igrave" xMin="0" yMin="0" xMax="954" yMax="1659">
      <component glyphName="I" x="0" y="0" flags="0x204"/>
      <component glyphName="glyph00317" x="0" y="0" flags="0x4"/>
    </TTGlyph>
    <TTGlyph name="Imacron" xMin="0" yMin="0" xMax="954" yMax="1616">
      <component glyphName="I" x="0" y="0" flags="0x204"/>
      <component glyphName="glyph00330" x="0" y="0" flags="0x4"/>
    </TTGlyph>
    <TTGlyph name="Iogonek" xMin="172" yMin="-385" xMax="1008" yMax="1307">
      <contour>
        <pt x="1008" y="-375" on="1"/>
        <pt x="983" y="-380" on="0"/>
        <pt x="922" y="-385" on="0"/>
        <pt x="897" y="-385" on="1"/>
        <pt x="789" y="-385" on="0"/>
        <pt x="678" y="-293" on="0"/>
        <pt x="678" y="-221" on="1"/>
        <pt x="678" y="-198" on="0"/>
        <pt x="687" y="-152" on="0"/>
        <pt x="713" y="-100" on="0"/>
        <pt x="760" y="-38" on="0"/>
        <pt x="799" y="0" on="1"/>
        <pt x="172" y="0" on="1"/>
        <pt x="172" y="152" on="1"/>
        <pt x="473" y="152" on="1"/>
        <pt x="473" y="1157" on="1"/>
        <pt x="172" y="1157" on="1"/>
        <pt x="172" y="1307" on="1"/>
        <pt x="954" y="1307" on="1"/>
        <pt x="954" y="1157" on="1"/>
        <pt x="653" y="1157" on="1"/>
        <pt x="653" y="152" on="1"/>
        <pt x="954" y="152" on="1"/>
        <pt x="954" y="0" on="1"/>
        <pt x="955" y="0" on="1"/>
        <pt x="919" y="-36" on="0"/>
        <pt x="875" y="-91" on="0"/>
        <pt x="851" y="-135" on="0"/>
        <pt x="842" y="-174" on="0"/>
        <pt x="842" y="-193" on="1"/>
        <pt x="842" y="-225" on="0"/>
        <pt x="885" y="-266" on="0"/>
        <pt x="938" y="-266" on="1"/>
        <pt x="952" y="-266" on="0"/>
        <pt x="991" y="-264" on="0"/>
        <pt x="1008" y="-262" on="1"/>
      </contour>
    </TTGlyph>
    <TTGlyph name="Iota" xMin="172" yMin="0" xMax="954" yMax="1307">
      <component glyphName="I" x="0" y="0" flags="0x204"/>
    </TTGlyph>
    <TTGlyph name="Iotadieresis" xMin="0" yMin="0" xMax="954" yMax="1659">
      <component glyphName="I" x="0" y="0" flags="0x204"/>
      <component glyphName="glyph00328" x="0" y="0" flags="0x4"/>
    </TTGlyph>
    <TTGlyph name="Iotatonos" xMin="-127" yMin="0" xMax="1096" yMax="1434">
      <component glyphName="I" x="0" y="0" flags="0x204"/>
      <component glyphName="glyph00473" x="20" y="0" flags="0x4"/>
    </TTGlyph>
    <TTGlyph name="Itilde" xMin="0" yMin="0" xMax="954" yMax="1671">
      <component glyphName="I" x="0" y="0" flags="0x204"/>
      <component glyphName="glyph00326" x="0" y="0" flags="0x4"/>
    </TTGlyph>
    <TTGlyph name="J" xMin="182" yMin="-14" xMax="877" yMax="1307">
      <contour>
        <pt x="877" y="1307" on="1"/>
        <pt x="877" y="399" on="1"/>
        <pt x="877" y="315" on="0"/>
        <pt x="827" y="164" on="0"/>
        <pt x="725" y="52" on="0"/>
        <pt x="571" y="-14" on="0"/>
        <pt x="467" y="-14" on="1"/>
        <pt x="428" y="-14" on="0"/>
        <pt x="347" y="-3" on="0"/>
        <pt x="272" y="16" on="0"/>
        <pt x="206" y="43" on="0"/>
        <pt x="182" y="59" on="1"/>
        <pt x="182" y="238" on="1"/>
        <pt x="244" y="193" on="0"/>
        <pt x="395" y="141" on="0"/>
        <pt x="469" y="141" on="1"/>
        <pt x="578" y="141" on="0"/>
        <pt x="696" y="274" on="0"/>
        <pt x="696" y="399" on="1"/>
        <pt x="696" y="1153" on="1"/>
        <pt x="199" y="1153" on="1"/>
        <pt x="199" y="1307" on="1"/>
      </contour>
    </TTGlyph>
    <TTGlyph name="Jcircumflex" xMin="0" yMin="-14" xMax="879" yMax="1659">
      <component glyphName="J" x="0" y="0" flags="0x204"/>
      <component glyphName="glyph00321" x="0" y="0" flags="0x4"/>
    </TTGlyph>
    <TTGlyph name="K" xMin="156" yMin="0" xMax="1047" yMax="1307">
      <contour>
        <pt x="1047" y="0" on="1"/>
        <pt x="823" y="0" on="1"/>
        <pt x="334" y="641" on="1"/>
        <pt x="334" y="0" on="1"/>
        <pt x="156" y="0" on="1"/>
        <pt x="156" y="1307" on="1"/>
        <pt x="334" y="1307" on="1"/>
        <pt x="334" y="700" on="1"/>
        <pt x="813" y="1307" on="1"/>
        <pt x="1024" y="1307" on="1"/>
        <pt x="508" y="686" on="1"/>
      </contour>
    </TTGlyph>
    <TTGlyph name="Kappa" xMin="156" yMin="0" xMax="1047" yMax="1307">
      <component glyphName="K" x="0" y="0" flags="0x204"/>
    </TTGlyph>
    <TTGlyph name="Kcommaaccent" xMin="156" yMin="-410" xMax="1047" yMax="1307">
      <component glyphName="K" x="0" y="0" flags="0x204"/>
      <component glyphName="uni0326" x="0" y="0" flags="0x4"/>
    </TTGlyph>
    <TTGlyph name="L" xMin="233" yMin="0" xMax="985" yMax="1307">
      <contour>
        <pt x="985" y="0" on="1"/>
        <pt x="233" y="0" on="1"/>
        <pt x="233" y="1307" on="1"/>
        <pt x="414" y="1307" on="1"/>
        <pt x="414" y="152" on="1"/>
        <pt x="985" y="152" on="1"/>
      </contour>
    </TTGlyph>
    <TTGlyph name="Lacute" xMin="0" yMin="0" xMax="985" yMax="1659">
      <component glyphName="L" x="0" y="0" flags="0x204"/>
      <component glyphName="glyph00319" x="0" y="0" flags="0x4"/>
    </TTGlyph>
    <TTGlyph name="Lambda" xMin="4" yMin="0" xMax="1122" yMax="1307">
      <contour>
        <pt x="4" y="0" on="1"/>
        <pt x="449" y="1307" on="1"/>
        <pt x="688" y="1307" on="1"/>
        <pt x="1122" y="0" on="1"/>
        <pt x="922" y="0" on="1"/>
        <pt x="639" y="881" on="1"/>
        <pt x="559" y="1139" on="1"/>
        <pt x="477" y="881" on="1"/>
        <pt x="195" y="0" on="1"/>
      </contour>
    </TTGlyph>
    <TTGlyph name="Lcaron" xMin="-244" yMin="0" xMax="991" yMax="1466">
      <component glyphName="L" x="0" y="0" flags="0x204"/>
      <component glyphName="uni0315" x="-244" y="0" flags="0x4"/>
    </TTGlyph>
    <TTGlyph name="Lcommaaccent" xMin="233" yMin="-410" xMax="985" yMax="1307">
      <component glyphName="L" x="0" y="0" flags="0x204"/>
      <component glyphName="uni0326" x="0" y="0" flags="0x4"/>
    </TTGlyph>
    <TTGlyph name="Ldot" xMin="194" yMin="0" xMax="1118" yMax="1307">
      <component glyphName="L" x="-39" y="0" flags="0x204"/>
      <component glyphName="uni2219" x="389" y="41" flags="0x4"/>
    </TTGlyph>
    <TTGlyph name="Lslash" xMin="45" yMin="0" xMax="985" yMax="1307">
      <contour>
        <pt x="434" y="152" on="1"/>
        <pt x="985" y="152" on="1"/>
        <pt x="985" y="0" on="1"/>
        <pt x="254" y="0" on="1"/>
        <pt x="254" y="602" on="1"/>
        <pt x="45" y="496" on="1"/>
        <pt x="45" y="653" on="1"/>
        <pt x="254" y="760" on="1"/>
        <pt x="254" y="1307" on="1"/>
        <pt x="434" y="1307" on="1"/>
        <pt x="434" y="850" on="1"/>
        <pt x="795" y="1032" on="1"/>
        <pt x="795" y="874" on="1"/>
        <pt x="434" y="692" on="1"/>
      </contour>
    </TTGlyph>
    <TTGlyph name="M" xMin="49" yMin="0" xMax="1077" yMax="1307">
      <contour>
        <pt x="1077" y="0" on="1"/>
        <pt x="903" y="0" on="1"/>
        <pt x="877" y="815" on="1"/>
        <pt x="866" y="1128" on="1"/>
        <pt x="805" y="946" on="1"/>
        <pt x="612" y="426" on="1"/>
        <pt x="489" y="426" on="1"/>
        <pt x="305" y="926" on="1"/>
        <pt x="244" y="1128" on="1"/>
        <pt x="240" y="801" on="1"/>
        <pt x="217" y="0" on="1"/>
        <pt x="49" y="0" on="1"/>
        <pt x="113" y="1307" on="1"/>
        <pt x="324" y="1307" on="1"/>
        <pt x="500" y="815" on="1"/>
        <pt x="557" y="649" on="1"/>
        <pt x="612" y="815" on="1"/>
        <pt x="797" y="1307" on="1"/>
        <pt x="1014" y="1307" on="1"/>
      </contour>
    </TTGlyph>
    <TTGlyph name="Mu" xMin="49" yMin="0" xMax="1077" yMax="1307">
      <component glyphName="M" x="0" y="0" flags="0x204"/>
    </TTGlyph>
    <TTGlyph name="N" xMin="119" yMin="0" xMax="1008" yMax="1307">
      <contour>
        <pt x="1008" y="0" on="1"/>
        <pt x="776" y="0" on="1"/>
        <pt x="395" y="815" on="1"/>
        <pt x="285" y="1077" on="1"/>
        <pt x="285" y="418" on="1"/>
        <pt x="285" y="0" on="1"/>
        <pt x="119" y="0" on="1"/>
        <pt x="119" y="1307" on="1"/>
        <pt x="348" y="1307" on="1"/>
        <pt x="711" y="535" on="1"/>
        <pt x="842" y="236" on="1"/>
        <pt x="842" y="936" on="1"/>
        <pt x="842" y="1307" on="1"/>
        <pt x="1008" y="1307" on="1"/>
      </contour>
    </TTGlyph>
    <TTGlyph name="Nacute" xMin="0" yMin="0" xMax="1008" yMax="1659">
      <component glyphName="N" x="0" y="0" flags="0x204"/>
      <component glyphName="glyph00319" x="0" y="0" flags="0x4"/>
    </TTGlyph>
    <TTGlyph name="Ncaron" xMin="0" yMin="0" xMax="1008" yMax="1659">
      <component glyphName="N" x="0" y="0" flags="0x204"/>
      <component glyphName="glyph00323" x="0" y="0" flags="0x4"/>
    </TTGlyph>
    <TTGlyph name="Ncommaaccent" xMin="119" yMin="-410" xMax="1008" yMax="1307">
      <component glyphName="N" x="0" y="0" flags="0x204"/>
      <component glyphName="uni0326" x="0" y="0" flags="0x4"/>
    </TTGlyph>
    <TTGlyph name="Ntilde" xMin="0" yMin="0" xMax="1008" yMax="1671">
      <component glyphName="N" x="0" y="0" flags="0x204"/>
      <component glyphName="glyph00326" x="0" y="0" flags="0x4"/>
    </TTGlyph>
    <TTGlyph name="Nu" xMin="119" yMin="0" xMax="1008" yMax="1307">
      <component glyphName="N" x="0" y="0" flags="0x204"/>
    </TTGlyph>
    <TTGlyph name="O" xMin="57" yMin="-18" xMax="1071" yMax="1325">
      <contour>
        <pt x="1071" y="662" on="1"/>
        <pt x="1071" y="486" on="0"/>
        <pt x="988" y="230" on="0"/>
        <pt x="847" y="63" on="0"/>
        <pt x="658" y="-18" on="0"/>
        <pt x="553" y="-18" on="1"/>
        <pt x="427" y="-18" on="0"/>
        <pt x="240" y="73" on="0"/>
        <pt x="117" y="245" on="0"/>
        <pt x="57" y="492" on="0"/>
        <pt x="57" y="647" on="1"/>
        <pt x="57" y="821" on="0"/>
        <pt x="139" y="1077" on="0"/>
        <pt x="280" y="1244" on="0"/>
        <pt x="468" y="1325" on="0"/>
        <pt x="573" y="1325" on="1"/>
        <pt x="699" y="1325" on="0"/>
        <pt x="886" y="1233" on="0"/>
        <pt x="1010" y="1062" on="0"/>
        <pt x="1071" y="816" on="0"/>
      </contour>
      <contour>
        <pt x="886" y="649" on="1"/>
        <pt x="886" y="764" on="0"/>
        <pt x="851" y="955" on="0"/>
        <pt x="773" y="1093" on="0"/>
        <pt x="650" y="1169" on="0"/>
        <pt x="563" y="1169" on="1"/>
        <pt x="479" y="1169" on="0"/>
        <pt x="358" y="1088" on="0"/>
        <pt x="280" y="949" on="0"/>
        <pt x="242" y="762" on="0"/>
        <pt x="242" y="657" on="1"/>
        <pt x="242" y="541" on="0"/>
        <pt x="278" y="350" on="0"/>
        <pt x="355" y="213" on="0"/>
        <pt x="477" y="137" on="0"/>
        <pt x="563" y="137" on="1"/>
        <pt x="647" y="137" on="0"/>
        <pt x="769" y="218" on="0"/>
        <pt x="848" y="357" on="0"/>
        <pt x="886" y="543" on="0"/>
      </contour>
    </TTGlyph>
    <TTGlyph name="OE" xMin="31" yMin="-14" xMax="1094" yMax="1321">
      <contour>
        <pt x="1094" y="0" on="1"/>
        <pt x="729" y="0" on="1"/>
        <pt x="655" y="0" on="0"/>
        <pt x="549" y="-14" on="0"/>
        <pt x="506" y="-14" on="1"/>
        <pt x="384" y="-14" on="0"/>
        <pt x="205" y="73" on="0"/>
        <pt x="88" y="241" on="0"/>
        <pt x="31" y="487" on="0"/>
        <pt x="31" y="647" on="1"/>
        <pt x="31" y="821" on="0"/>
        <pt x="108" y="1075" on="0"/>
        <pt x="238" y="1241" on="0"/>
        <pt x="412" y="1321" on="0"/>
        <pt x="510" y="1321" on="1"/>
        <pt x="534" y="1321" on="0"/>
        <pt x="596" y="1317" on="0"/>
        <pt x="657" y="1311" on="0"/>
        <pt x="710" y="1307" on="0"/>
        <pt x="725" y="1307" on="1"/>
        <pt x="1094" y="1307" on="1"/>
        <pt x="1094" y="1161" on="1"/>
        <pt x="764" y="1161" on="1"/>
        <pt x="764" y="750" on="1"/>
        <pt x="1073" y="750" on="1"/>
        <pt x="1073" y="604" on="1"/>
        <pt x="764" y="604" on="1"/>
        <pt x="764" y="147" on="1"/>
        <pt x="1094" y="147" on="1"/>
      </contour>
      <contour>
        <pt x="592" y="1165" on="1"/>
        <pt x="578" y="1168" on="0"/>
        <pt x="535" y="1174" on="0"/>
        <pt x="510" y="1174" on="1"/>
        <pt x="430" y="1174" on="0"/>
        <pt x="316" y="1093" on="0"/>
        <pt x="243" y="952" on="0"/>
        <pt x="209" y="762" on="0"/>
        <pt x="209" y="653" on="1"/>
        <pt x="209" y="401" on="0"/>
        <pt x="364" y="133" on="0"/>
        <pt x="516" y="133" on="1"/>
        <pt x="536" y="133" on="0"/>
        <pt x="572" y="138" on="0"/>
        <pt x="592" y="143" on="1"/>
      </contour>
    </TTGlyph>
    <TTGlyph name="Oacute" xMin="0" yMin="-18" xMax="1071" yMax="1659">
      <component glyphName="O" x="0" y="0" flags="0x204"/>
      <component glyphName="glyph00319" x="0" y="0" flags="0x4"/>
    </TTGlyph>
    <TTGlyph name="Obreve" xMin="0" yMin="-18" xMax="1071" yMax="1665">
      <component glyphName="O" x="0" y="0" flags="0x204"/>
      <component glyphName="glyph00332" x="0" y="0" flags="0x4"/>
    </TTGlyph>
    <TTGlyph name="Ocircumflex" xMin="0" yMin="-18" xMax="1071" yMax="1659">
      <component glyphName="O" x="0" y="0" flags="0x204"/>
      <component glyphName="glyph00321" x="0" y="0" flags="0x4"/>
    </TTGlyph>
    <TTGlyph name="Odieresis" xMin="0" yMin="-18" xMax="1071" yMax="1659">
      <component glyphName="O" x="0" y="0" flags="0x204"/>
      <component glyphName="glyph00328" x="0" y="0" flags="0x4"/>
    </TTGlyph>
    <TTGlyph name="Ograve" xMin="0" yMin="-18" xMax="1071" yMax="1659">
      <component glyphName="O" x="0" y="0" flags="0x204"/>
      <component glyphName="glyph00317" x="0" y="0" flags="0x4"/>
    </TTGlyph>
    <TTGlyph name="Ohungarumlaut" xMin="0" yMin="-18" xMax="1126" yMax="1659">
      <component glyphName="O" x="0" y="0" flags="0x204"/>
      <component glyphName="glyph00337" x="0" y="0" flags="0x4"/>
    </TTGlyph>
    <TTGlyph name="Omacron" xMin="0" yMin="-18" xMax="1071" yMax="1616">
      <component glyphName="O" x="0" y="0" flags="0x204"/>
      <component glyphName="glyph00330" x="0" y="0" flags="0x4"/>
    </TTGlyph>
    <TTGlyph name="Omega" xMin="43" yMin="0" xMax="1083" yMax="1325">
      <contour>
        <pt x="1083" y="0" on="1"/>
        <pt x="651" y="0" on="1"/>
        <pt x="651" y="131" on="1"/>
        <pt x="717" y="173" on="0"/>
        <pt x="807" y="282" on="0"/>
        <pt x="861" y="419" on="0"/>
        <pt x="885" y="585" on="0"/>
        <pt x="885" y="684" on="1"/>
        <pt x="885" y="790" on="0"/>
        <pt x="850" y="969" on="0"/>
        <pt x="773" y="1098" on="0"/>
        <pt x="651" y="1171" on="0"/>
        <pt x="563" y="1171" on="1"/>
        <pt x="479" y="1171" on="0"/>
        <pt x="358" y="1095" on="0"/>
        <pt x="280" y="963" on="0"/>
        <pt x="242" y="785" on="0"/>
        <pt x="242" y="684" on="1"/>
        <pt x="242" y="589" on="0"/>
        <pt x="266" y="426" on="0"/>
        <pt x="322" y="290" on="0"/>
        <pt x="410" y="179" on="0"/>
        <pt x="475" y="135" on="1"/>
        <pt x="475" y="0" on="1"/>
        <pt x="43" y="0" on="1"/>
        <pt x="43" y="144" on="1"/>
        <pt x="295" y="144" on="1"/>
        <pt x="172" y="225" on="0"/>
        <pt x="57" y="493" on="0"/>
        <pt x="57" y="680" on="1"/>
        <pt x="57" y="846" on="0"/>
        <pt x="138" y="1089" on="0"/>
        <pt x="278" y="1248" on="0"/>
        <pt x="464" y="1325" on="0"/>
        <pt x="569" y="1325" on="1"/>
        <pt x="700" y="1325" on="0"/>
        <pt x="889" y="1234" on="0"/>
        <pt x="1011" y="1068" on="0"/>
        <pt x="1069" y="835" on="0"/>
        <pt x="1069" y="692" on="1"/>
        <pt x="1069" y="506" on="0"/>
        <pt x="958" y="231" on="0"/>
        <pt x="829" y="144" on="1"/>
        <pt x="1083" y="144" on="1"/>
      </contour>
    </TTGlyph>
    <TTGlyph name="Omegatonos" xMin="-65" yMin="0" xMax="1158" yMax="1434">
      <component glyphName="Omega" x="0" y="0" flags="0x204"/>
      <component glyphName="glyph00473" x="82" y="0" flags="0x4"/>
    </TTGlyph>
    <TTGlyph name="Omicron" xMin="57" yMin="-18" xMax="1071" yMax="1325">
      <component glyphName="O" x="0" y="0" flags="0x204"/>
    </TTGlyph>
    <TTGlyph name="Omicrontonos" xMin="-86" yMin="-18" xMax="1137" yMax="1434">
      <component glyphName="O" x="0" y="0" flags="0x204"/>
      <component glyphName="glyph00473" x="61" y="0" flags="0x4"/>
    </TTGlyph>
    <TTGlyph name="Oslash" xMin="57" yMin="-215" xMax="1069" yMax="1522">
      <contour>
        <pt x="897" y="1522" on="1"/>
        <pt x="819" y="1264" on="1"/>
        <pt x="946" y="1189" on="0"/>
        <pt x="1069" y="882" on="0"/>
        <pt x="1069" y="662" on="1"/>
        <pt x="1069" y="486" on="0"/>
        <pt x="987" y="230" on="0"/>
        <pt x="846" y="63" on="0"/>
        <pt x="658" y="-18" on="0"/>
        <pt x="553" y="-18" on="1"/>
        <pt x="522" y="-18" on="0"/>
        <pt x="466" y="-13" on="0"/>
        <pt x="438" y="-8" on="1"/>
        <pt x="377" y="-215" on="1"/>
        <pt x="231" y="-215" on="1"/>
        <pt x="307" y="41" on="1"/>
        <pt x="181" y="113" on="0"/>
        <pt x="57" y="424" on="0"/>
        <pt x="57" y="647" on="1"/>
        <pt x="57" y="821" on="0"/>
        <pt x="139" y="1077" on="0"/>
        <pt x="280" y="1244" on="0"/>
        <pt x="468" y="1325" on="0"/>
        <pt x="573" y="1325" on="1"/>
        <pt x="635" y="1325" on="0"/>
        <pt x="688" y="1313" on="1"/>
        <pt x="752" y="1522" on="1"/>
      </contour>
      <contour>
        <pt x="242" y="657" on="1"/>
        <pt x="242" y="511" on="0"/>
        <pt x="297" y="285" on="0"/>
        <pt x="360" y="219" on="1"/>
        <pt x="643" y="1159" on="1"/>
        <pt x="624" y="1164" on="0"/>
        <pt x="585" y="1169" on="0"/>
        <pt x="563" y="1169" on="1"/>
        <pt x="479" y="1169" on="0"/>
        <pt x="358" y="1088" on="0"/>
        <pt x="280" y="949" on="0"/>
        <pt x="242" y="762" on="0"/>
      </contour>
      <contour>
        <pt x="885" y="649" on="1"/>
        <pt x="885" y="795" on="0"/>
        <pt x="829" y="1017" on="0"/>
        <pt x="766" y="1085" on="1"/>
        <pt x="485" y="145" on="1"/>
        <pt x="502" y="140" on="0"/>
        <pt x="542" y="137" on="0"/>
        <pt x="563" y="137" on="1"/>
        <pt x="647" y="137" on="0"/>
        <pt x="768" y="218" on="0"/>
        <pt x="847" y="357" on="0"/>
        <pt x="885" y="543" on="0"/>
      </contour>
    </TTGlyph>
    <TTGlyph name="Oslashacute" xMin="-100" yMin="-215" xMax="1069" yMax="1659">
      <component glyphName="Oslash" x="0" y="0" flags="0x204"/>
      <component glyphName="glyph00319" x="-100" y="0" flags="0x4"/>
    </TTGlyph>
    <TTGlyph name="Otilde" xMin="0" yMin="-18" xMax="1071" yMax="1671">
      <component glyphName="O" x="0" y="0" flags="0x204"/>
      <component glyphName="glyph00326" x="0" y="0" flags="0x4"/>
    </TTGlyph>
    <TTGlyph name="P" xMin="158" yMin="0" xMax="1016" yMax="1307">
      <contour>
        <pt x="1016" y="907" on="1"/>
        <pt x="1016" y="827" on="0"/>
        <pt x="956" y="670" on="0"/>
        <pt x="830" y="546" on="0"/>
        <pt x="634" y="469" on="0"/>
        <pt x="498" y="469" on="1"/>
        <pt x="336" y="469" on="1"/>
        <pt x="336" y="0" on="1"/>
        <pt x="158" y="0" on="1"/>
        <pt x="158" y="1307" on="1"/>
        <pt x="526" y="1307" on="1"/>
        <pt x="623" y="1307" on="0"/>
        <pt x="801" y="1264" on="0"/>
        <pt x="936" y="1168" on="0"/>
        <pt x="1016" y="1016" on="0"/>
      </contour>
      <contour>
        <pt x="831" y="899" on="1"/>
        <pt x="831" y="1025" on="0"/>
        <pt x="666" y="1159" on="0"/>
        <pt x="518" y="1159" on="1"/>
        <pt x="336" y="1159" on="1"/>
        <pt x="336" y="621" on="1"/>
        <pt x="502" y="621" on="1"/>
        <pt x="660" y="621" on="0"/>
        <pt x="831" y="759" on="0"/>
      </contour>
    </TTGlyph>
    <TTGlyph name="Phi" xMin="0" yMin="-84" xMax="1087" yMax="1391">
      <contour>
        <pt x="645" y="-84" on="1"/>
        <pt x="481" y="-84" on="1"/>
        <pt x="481" y="31" on="1"/>
        <pt x="369" y="40" on="0"/>
        <pt x="203" y="130" on="0"/>
        <pt x="94" y="287" on="0"/>
        <pt x="41" y="508" on="0"/>
        <pt x="41" y="647" on="1"/>
        <pt x="41" y="798" on="0"/>
        <pt x="110" y="1023" on="0"/>
        <pt x="229" y="1176" on="0"/>
        <pt x="389" y="1262" on="0"/>
        <pt x="481" y="1274" on="1"/>
        <pt x="481" y="1391" on="1"/>
        <pt x="645" y="1391" on="1"/>
        <pt x="645" y="1276" on="1"/>
        <pt x="757" y="1267" on="0"/>
        <pt x="923" y="1176" on="0"/>
        <pt x="1033" y="1020" on="0"/>
        <pt x="1087" y="801" on="0"/>
        <pt x="1087" y="662" on="1"/>
        <pt x="1087" y="510" on="0"/>
        <pt x="1018" y="284" on="0"/>
        <pt x="898" y="131" on="0"/>
        <pt x="737" y="45" on="0"/>
        <pt x="645" y="33" on="1"/>
      </contour>
      <contour>
        <pt x="481" y="1124" on="1"/>
        <pt x="412" y="1113" on="0"/>
        <pt x="312" y="1031" on="0"/>
        <pt x="246" y="907" on="0"/>
        <pt x="215" y="747" on="0"/>
        <pt x="215" y="657" on="1"/>
        <pt x="215" y="558" on="0"/>
        <pt x="245" y="393" on="0"/>
        <pt x="310" y="270" on="0"/>
        <pt x="410" y="193" on="0"/>
        <pt x="481" y="182" on="1"/>
      </contour>
      <contour>
        <pt x="645" y="182" on="1"/>
        <pt x="714" y="194" on="0"/>
        <pt x="815" y="275" on="0"/>
        <pt x="881" y="400" on="0"/>
        <pt x="913" y="559" on="0"/>
        <pt x="913" y="649" on="1"/>
        <pt x="913" y="747" on="0"/>
        <pt x="883" y="912" on="0"/>
        <pt x="818" y="1036" on="0"/>
        <pt x="717" y="1113" on="0"/>
        <pt x="645" y="1124" on="1"/>
      </contour>
      <contour>
        <pt x="0" y="1307" on="1"/>
      </contour>
    </TTGlyph>
    <TTGlyph name="Pi" xMin="117" yMin="0" xMax="1009" yMax="1307">
      <contour>
        <pt x="1009" y="0" on="1"/>
        <pt x="831" y="0" on="1"/>
        <pt x="831" y="1153" on="1"/>
        <pt x="295" y="1153" on="1"/>
        <pt x="295" y="0" on="1"/>
        <pt x="117" y="0" on="1"/>
        <pt x="117" y="1307" on="1"/>
        <pt x="1009" y="1307" on="1"/>
      </contour>
    </TTGlyph>
    <TTGlyph name="Psi" xMin="63" yMin="0" xMax="1063" yMax="1307">
      <contour>
        <pt x="649" y="0" on="1"/>
        <pt x="477" y="0" on="1"/>
        <pt x="477" y="387" on="1"/>
        <pt x="369" y="396" on="0"/>
        <pt x="213" y="462" on="0"/>
        <pt x="112" y="571" on="0"/>
        <pt x="63" y="722" on="0"/>
        <pt x="63" y="815" on="1"/>
        <pt x="63" y="1307" on="1"/>
        <pt x="237" y="1307" on="1"/>
        <pt x="237" y="829" on="1"/>
        <pt x="237" y="696" on="0"/>
        <pt x="355" y="554" on="0"/>
        <pt x="477" y="537" on="1"/>
        <pt x="477" y="1307" on="1"/>
        <pt x="649" y="1307" on="1"/>
        <pt x="649" y="537" on="1"/>
        <pt x="765" y="557" on="0"/>
        <pt x="889" y="703" on="0"/>
        <pt x="889" y="831" on="1"/>
        <pt x="889" y="1307" on="1"/>
        <pt x="1063" y="1307" on="1"/>
        <pt x="1063" y="842" on="1"/>
        <pt x="1063" y="745" on="0"/>
        <pt x="1007" y="588" on="0"/>
        <pt x="900" y="473" on="0"/>
        <pt x="746" y="401" on="0"/>
        <pt x="649" y="389" on="1"/>
      </contour>
    </TTGlyph>
    <TTGlyph name="Q" xMin="57" yMin="-360" xMax="1126" yMax="1325">
      <contour>
        <pt x="467" y="-12" on="1"/>
        <pt x="363" y="3" on="0"/>
        <pt x="209" y="105" on="0"/>
        <pt x="107" y="272" on="0"/>
        <pt x="57" y="499" on="0"/>
        <pt x="57" y="637" on="1"/>
        <pt x="57" y="815" on="0"/>
        <pt x="139" y="1075" on="0"/>
        <pt x="280" y="1244" on="0"/>
        <pt x="468" y="1325" on="0"/>
        <pt x="573" y="1325" on="1"/>
        <pt x="699" y="1325" on="0"/>
        <pt x="886" y="1234" on="0"/>
        <pt x="1010" y="1063" on="0"/>
        <pt x="1071" y="820" on="0"/>
        <pt x="1071" y="668" on="1"/>
        <pt x="1071" y="508" on="0"/>
        <pt x="1003" y="267" on="0"/>
        <pt x="885" y="99" on="0"/>
        <pt x="725" y="3" on="0"/>
        <pt x="633" y="-12" on="1"/>
        <pt x="648" y="-100" on="0"/>
        <pt x="758" y="-207" on="0"/>
        <pt x="858" y="-207" on="1"/>
        <pt x="906" y="-207" on="0"/>
        <pt x="999" y="-175" on="0"/>
        <pt x="1047" y="-137" on="1"/>
        <pt x="1126" y="-260" on="1"/>
        <pt x="1060" y="-314" on="0"/>
        <pt x="920" y="-360" on="0"/>
        <pt x="846" y="-360" on="1"/>
        <pt x="766" y="-360" on="0"/>
        <pt x="632" y="-316" on="0"/>
        <pt x="533" y="-229" on="0"/>
        <pt x="473" y="-98" on="0"/>
      </contour>
      <contour>
        <pt x="886" y="647" on="1"/>
        <pt x="886" y="763" on="0"/>
        <pt x="851" y="954" on="0"/>
        <pt x="773" y="1091" on="0"/>
        <pt x="650" y="1167" on="0"/>
        <pt x="563" y="1167" on="1"/>
        <pt x="479" y="1167" on="0"/>
        <pt x="358" y="1087" on="0"/>
        <pt x="280" y="950" on="0"/>
        <pt x="242" y="767" on="0"/>
        <pt x="242" y="664" on="1"/>
        <pt x="242" y="545" on="0"/>
        <pt x="278" y="352" on="0"/>
        <pt x="355" y="214" on="0"/>
        <pt x="477" y="139" on="0"/>
        <pt x="563" y="139" on="1"/>
        <pt x="647" y="139" on="0"/>
        <pt x="769" y="219" on="0"/>
        <pt x="848" y="357" on="0"/>
        <pt x="886" y="542" on="0"/>
      </contour>
    </TTGlyph>
    <TTGlyph name="R" xMin="170" yMin="0" xMax="1051" yMax="1307">
      <contour>
        <pt x="1051" y="0" on="1"/>
        <pt x="850" y="0" on="1"/>
        <pt x="655" y="418" on="1"/>
        <pt x="633" y="466" on="0"/>
        <pt x="587" y="529" on="0"/>
        <pt x="534" y="566" on="0"/>
        <pt x="471" y="582" on="0"/>
        <pt x="432" y="582" on="1"/>
        <pt x="348" y="582" on="1"/>
        <pt x="348" y="0" on="1"/>
        <pt x="170" y="0" on="1"/>
        <pt x="170" y="1307" on="1"/>
        <pt x="520" y="1307" on="1"/>
        <pt x="634" y="1307" on="0"/>
        <pt x="798" y="1257" on="0"/>
        <pt x="903" y="1167" on="0"/>
        <pt x="952" y="1040" on="0"/>
        <pt x="952" y="963" on="1"/>
        <pt x="952" y="902" on="0"/>
        <pt x="916" y="793" on="0"/>
        <pt x="845" y="704" on="0"/>
        <pt x="740" y="639" on="0"/>
        <pt x="672" y="623" on="1"/>
        <pt x="727" y="604" on="0"/>
        <pt x="804" y="509" on="0"/>
        <pt x="844" y="430" on="1"/>
      </contour>
      <contour>
        <pt x="766" y="948" on="1"/>
        <pt x="766" y="1053" on="0"/>
        <pt x="635" y="1157" on="0"/>
        <pt x="516" y="1157" on="1"/>
        <pt x="348" y="1157" on="1"/>
        <pt x="348" y="725" on="1"/>
        <pt x="492" y="725" on="1"/>
        <pt x="555" y="725" on="0"/>
        <pt x="656" y="754" on="0"/>
        <pt x="727" y="811" on="0"/>
        <pt x="766" y="894" on="0"/>
      </contour>
    </TTGlyph>
    <TTGlyph name="Racute" xMin="-39" yMin="0" xMax="1051" yMax="1659">
      <component glyphName="R" x="0" y="0" flags="0x204"/>
      <component glyphName="glyph00319" x="-39" y="0" flags="0x4"/>
    </TTGlyph>
    <TTGlyph name="Rcaron" xMin="-39" yMin="0" xMax="1051" yMax="1659">
      <component glyphName="R" x="0" y="0" flags="0x204"/>
      <component glyphName="glyph00323" x="-39" y="0" flags="0x4"/>
    </TTGlyph>
    <TTGlyph name="Rcommaaccent" xMin="170" yMin="-410" xMax="1051" yMax="1307">
      <component glyphName="R" x="0" y="0" flags="0x204"/>
      <component glyphName="uni0326" x="0" y="0" flags="0x4"/>
    </TTGlyph>
    <TTGlyph name="Rho" xMin="158" yMin="0" xMax="1016" yMax="1307">
      <component glyphName="P" x="0" y="0" flags="0x204"/>
    </TTGlyph>
    <TTGlyph name="S" xMin="111" yMin="-18" xMax="997" yMax="1325">
      <contour>
        <pt x="997" y="354" on="1"/>
        <pt x="997" y="261" on="0"/>
        <pt x="921" y="121" on="0"/>
        <pt x="785" y="28" on="0"/>
        <pt x="594" y="-18" on="0"/>
        <pt x="479" y="-18" on="1"/>
        <pt x="427" y="-18" on="0"/>
        <pt x="324" y="-10" on="0"/>
        <pt x="229" y="2" on="0"/>
        <pt x="145" y="18" on="0"/>
        <pt x="111" y="27" on="1"/>
        <pt x="111" y="199" on="1"/>
        <pt x="186" y="171" on="0"/>
        <pt x="373" y="139" on="0"/>
        <pt x="492" y="139" on="1"/>
        <pt x="578" y="139" on="0"/>
        <pt x="699" y="166" on="0"/>
        <pt x="776" y="219" on="0"/>
        <pt x="811" y="295" on="0"/>
        <pt x="811" y="344" on="1"/>
        <pt x="811" y="397" on="0"/>
        <pt x="752" y="472" on="0"/>
        <pt x="656" y="531" on="0"/>
        <pt x="533" y="580" on="0"/>
        <pt x="405" y="632" on="0"/>
        <pt x="282" y="693" on="0"/>
        <pt x="186" y="776" on="0"/>
        <pt x="127" y="888" on="0"/>
        <pt x="127" y="965" on="1"/>
        <pt x="127" y="1032" on="0"/>
        <pt x="183" y="1162" on="0"/>
        <pt x="301" y="1263" on="0"/>
        <pt x="486" y="1325" on="0"/>
        <pt x="614" y="1325" on="1"/>
        <pt x="647" y="1325" on="0"/>
        <pt x="724" y="1319" on="0"/>
        <pt x="803" y="1308" on="0"/>
        <pt x="880" y="1294" on="0"/>
        <pt x="913" y="1286" on="1"/>
        <pt x="913" y="1126" on="1"/>
        <pt x="836" y="1148" on="0"/>
        <pt x="682" y="1171" on="0"/>
        <pt x="610" y="1171" on="1"/>
        <pt x="457" y="1171" on="0"/>
        <pt x="313" y="1069" on="0"/>
        <pt x="313" y="983" on="1"/>
        <pt x="313" y="930" on="0"/>
        <pt x="372" y="854" on="0"/>
        <pt x="468" y="794" on="0"/>
        <pt x="591" y="745" on="0"/>
        <pt x="719" y="693" on="0"/>
        <pt x="842" y="631" on="0"/>
        <pt x="938" y="546" on="0"/>
        <pt x="997" y="432" on="0"/>
      </contour>
    </TTGlyph>
    <TTGlyph name="Sacute" xMin="0" yMin="-18" xMax="997" yMax="1659">
      <component glyphName="S" x="0" y="0" flags="0x204"/>
      <component glyphName="glyph00319" x="0" y="0" flags="0x4"/>
    </TTGlyph>
    <TTGlyph name="Scaron" xMin="0" yMin="-18" xMax="997" yMax="1659">
      <component glyphName="S" x="0" y="0" flags="0x204"/>
      <component glyphName="glyph00323" x="0" y="0" flags="0x4"/>
    </TTGlyph>
    <TTGlyph name="Scedilla" xMin="111" yMin="-295" xMax="997" yMax="1325">
      <contour>
        <pt x="631" y="-6" on="1"/>
        <pt x="547" y="-295" on="1"/>
        <pt x="395" y="-295" on="1"/>
        <pt x="457" y="-18" on="1"/>
        <pt x="416" y="-17" on="0"/>
        <pt x="324" y="-10" on="0"/>
        <pt x="229" y="2" on="0"/>
        <pt x="145" y="18" on="0"/>
        <pt x="111" y="27" on="1"/>
        <pt x="111" y="199" on="1"/>
        <pt x="186" y="171" on="0"/>
        <pt x="373" y="139" on="0"/>
        <pt x="492" y="139" on="1"/>
        <pt x="578" y="139" on="0"/>
        <pt x="699" y="166" on="0"/>
        <pt x="776" y="219" on="0"/>
        <pt x="811" y="295" on="0"/>
        <pt x="811" y="344" on="1"/>
        <pt x="811" y="397" on="0"/>
        <pt x="752" y="472" on="0"/>
        <pt x="656" y="531" on="0"/>
        <pt x="533" y="580" on="0"/>
        <pt x="405" y="632" on="0"/>
        <pt x="282" y="693" on="0"/>
        <pt x="186" y="776" on="0"/>
        <pt x="127" y="888" on="0"/>
        <pt x="127" y="965" on="1"/>
        <pt x="127" y="1032" on="0"/>
        <pt x="183" y="1162" on="0"/>
        <pt x="301" y="1263" on="0"/>
        <pt x="486" y="1325" on="0"/>
        <pt x="614" y="1325" on="1"/>
        <pt x="647" y="1325" on="0"/>
        <pt x="724" y="1319" on="0"/>
        <pt x="803" y="1308" on="0"/>
        <pt x="880" y="1294" on="0"/>
        <pt x="913" y="1286" on="1"/>
        <pt x="913" y="1126" on="1"/>
        <pt x="836" y="1148" on="0"/>
        <pt x="682" y="1171" on="0"/>
        <pt x="610" y="1171" on="1"/>
        <pt x="457" y="1171" on="0"/>
        <pt x="313" y="1069" on="0"/>
        <pt x="313" y="983" on="1"/>
        <pt x="313" y="930" on="0"/>
        <pt x="372" y="854" on="0"/>
        <pt x="468" y="794" on="0"/>
        <pt x="591" y="745" on="0"/>
        <pt x="719" y="693" on="0"/>
        <pt x="842" y="631" on="0"/>
        <pt x="938" y="546" on="0"/>
        <pt x="997" y="432" on="0"/>
        <pt x="997" y="354" on="1"/>
        <pt x="997" y="261" on="0"/>
        <pt x="921" y="121" on="0"/>
        <pt x="766" y="16" on="0"/>
      </contour>
    </TTGlyph>
    <TTGlyph name="Scircumflex" xMin="0" yMin="-18" xMax="997" yMax="1659">
      <component glyphName="S" x="0" y="0" flags="0x204"/>
      <component glyphName="glyph00321" x="0" y="0" flags="0x4"/>
    </TTGlyph>
    <TTGlyph name="Scommaaccent" xMin="111" yMin="-410" xMax="997" yMax="1325">
      <component glyphName="S" x="0" y="0" flags="0x204"/>
      <component glyphName="uni0326" x="0" y="0" flags="0x4"/>
    </TTGlyph>
    <TTGlyph name="Sigma" xMin="111" yMin="0" xMax="1014" yMax="1307">
      <contour>
        <pt x="342" y="166" on="1"/>
        <pt x="1014" y="166" on="1"/>
        <pt x="1014" y="0" on="1"/>
        <pt x="111" y="0" on="1"/>
        <pt x="111" y="140" on="1"/>
        <pt x="549" y="678" on="1"/>
        <pt x="129" y="1169" on="1"/>
        <pt x="129" y="1307" on="1"/>
        <pt x="1001" y="1307" on="1"/>
        <pt x="1001" y="1145" on="1"/>
        <pt x="382" y="1145" on="1"/>
        <pt x="770" y="692" on="1"/>
      </contour>
    </TTGlyph>
    <TTGlyph name="T" xMin="86" yMin="0" xMax="1040" yMax="1307">
      <contour>
        <pt x="1040" y="1155" on="1"/>
        <pt x="653" y="1155" on="1"/>
        <pt x="653" y="0" on="1"/>
        <pt x="473" y="0" on="1"/>
        <pt x="473" y="1155" on="1"/>
        <pt x="86" y="1155" on="1"/>
        <pt x="86" y="1307" on="1"/>
        <pt x="1040" y="1307" on="1"/>
      </contour>
    </TTGlyph>
    <TTGlyph name="Tau" xMin="86" yMin="0" xMax="1040" yMax="1307">
      <component glyphName="T" x="0" y="0" flags="0x204"/>
    </TTGlyph>
    <TTGlyph name="Tbar" xMin="86" yMin="0" xMax="1040" yMax="1307">
      <contour>
        <pt x="653" y="582" on="1"/>
        <pt x="653" y="0" on="1"/>
        <pt x="473" y="0" on="1"/>
        <pt x="473" y="582" on="1"/>
        <pt x="207" y="582" on="1"/>
        <pt x="207" y="731" on="1"/>
        <pt x="473" y="731" on="1"/>
        <pt x="473" y="1155" on="1"/>
        <pt x="86" y="1155" on="1"/>
        <pt x="86" y="1307" on="1"/>
        <pt x="1040" y="1307" on="1"/>
        <pt x="1040" y="1155" on="1"/>
        <pt x="653" y="1155" on="1"/>
        <pt x="653" y="731" on="1"/>
        <pt x="920" y="731" on="1"/>
        <pt x="920" y="582" on="1"/>
      </contour>
    </TTGlyph>
    <TTGlyph name="Tcaron" xMin="0" yMin="0" xMax="1040" yMax="1659">
      <component glyphName="T" x="0" y="0" flags="0x204"/>
      <component glyphName="glyph00323" x="0" y="0" flags="0x4"/>
    </TTGlyph>
    <TTGlyph name="Theta" xMin="50" yMin="-18" xMax="1076" yMax="1325">
      <contour>
        <pt x="1076" y="662" on="1"/>
        <pt x="1076" y="486" on="0"/>
        <pt x="991" y="230" on="0"/>
        <pt x="847" y="63" on="0"/>
        <pt x="657" y="-18" on="0"/>
        <pt x="552" y="-18" on="1"/>
        <pt x="426" y="-18" on="0"/>
        <pt x="238" y="73" on="0"/>
        <pt x="112" y="245" on="0"/>
        <pt x="50" y="492" on="0"/>
        <pt x="50" y="647" on="1"/>
        <pt x="50" y="821" on="0"/>
        <pt x="134" y="1077" on="0"/>
        <pt x="278" y="1244" on="0"/>
        <pt x="467" y="1325" on="0"/>
        <pt x="572" y="1325" on="1"/>
        <pt x="698" y="1325" on="0"/>
        <pt x="887" y="1233" on="0"/>
        <pt x="1013" y="1062" on="0"/>
        <pt x="1076" y="816" on="0"/>
      </contour>
      <contour>
        <pt x="892" y="649" on="1"/>
        <pt x="892" y="764" on="0"/>
        <pt x="854" y="955" on="0"/>
        <pt x="774" y="1094" on="0"/>
        <pt x="649" y="1170" on="0"/>
        <pt x="562" y="1170" on="1"/>
        <pt x="478" y="1170" on="0"/>
        <pt x="355" y="1089" on="0"/>
        <pt x="274" y="949" on="0"/>
        <pt x="234" y="762" on="0"/>
        <pt x="234" y="657" on="1"/>
        <pt x="234" y="541" on="0"/>
        <pt x="273" y="350" on="0"/>
        <pt x="352" y="213" on="0"/>
        <pt x="476" y="137" on="0"/>
        <pt x="562" y="137" on="1"/>
        <pt x="646" y="137" on="0"/>
        <pt x="770" y="218" on="0"/>
        <pt x="852" y="357" on="0"/>
        <pt x="892" y="543" on="0"/>
      </contour>
      <contour>
        <pt x="373" y="602" on="1"/>
        <pt x="373" y="752" on="1"/>
        <pt x="753" y="752" on="1"/>
        <pt x="753" y="602" on="1"/>
      </contour>
    </TTGlyph>
    <TTGlyph name="Thorn" xMin="158" yMin="0" xMax="1016" yMax="1307">
      <contour>
        <pt x="336" y="1307" on="1"/>
        <pt x="336" y="1112" on="1"/>
        <pt x="526" y="1112" on="1"/>
        <pt x="623" y="1112" on="0"/>
        <pt x="801" y="1066" on="0"/>
        <pt x="936" y="967" on="0"/>
        <pt x="1016" y="811" on="0"/>
        <pt x="1016" y="702" on="1"/>
        <pt x="1016" y="622" on="0"/>
        <pt x="956" y="462" on="0"/>
        <pt x="830" y="334" on="0"/>
        <pt x="634" y="254" on="0"/>
        <pt x="498" y="254" on="1"/>
        <pt x="336" y="254" on="1"/>
        <pt x="336" y="0" on="1"/>
        <pt x="158" y="0" on="1"/>
        <pt x="158" y="1307" on="1"/>
      </contour>
      <contour>
        <pt x="831" y="694" on="1"/>
        <pt x="831" y="757" on="0"/>
        <pt x="789" y="857" on="0"/>
        <pt x="708" y="928" on="0"/>
        <pt x="592" y="965" on="0"/>
        <pt x="518" y="965" on="1"/>
        <pt x="336" y="965" on="1"/>
        <pt x="336" y="406" on="1"/>
        <pt x="502" y="406" on="1"/>
        <pt x="660" y="406" on="0"/>
        <pt x="831" y="554" on="0"/>
      </contour>
    </TTGlyph>
    <TTGlyph name="U" xMin="109" yMin="-18" xMax="1018" yMax="1307">
      <contour>
        <pt x="1018" y="455" on="1"/>
        <pt x="1018" y="347" on="0"/>
        <pt x="957" y="172" on="0"/>
        <pt x="839" y="49" on="0"/>
        <pt x="668" y="-18" on="0"/>
        <pt x="557" y="-18" on="1"/>
        <pt x="435" y="-18" on="0"/>
        <pt x="265" y="46" on="0"/>
        <pt x="158" y="163" on="0"/>
        <pt x="109" y="327" on="0"/>
        <pt x="109" y="428" on="1"/>
        <pt x="109" y="1307" on="1"/>
        <pt x="287" y="1307" on="1"/>
        <pt x="287" y="442" on="1"/>
        <pt x="287" y="365" on="0"/>
        <pt x="316" y="249" on="0"/>
        <pt x="382" y="171" on="0"/>
        <pt x="487" y="131" on="0"/>
        <pt x="563" y="131" on="1"/>
        <pt x="705" y="131" on="0"/>
        <pt x="840" y="295" on="0"/>
        <pt x="840" y="444" on="1"/>
        <pt x="840" y="1307" on="1"/>
        <pt x="1018" y="1307" on="1"/>
      </contour>
    </TTGlyph>
    <TTGlyph name="Uacute" xMin="0" yMin="-18" xMax="1018" yMax="1659">
      <component glyphName="U" x="0" y="0" flags="0x204"/>
      <component glyphName="glyph00319" x="0" y="0" flags="0x4"/>
    </TTGlyph>
    <TTGlyph name="Ubreve" xMin="0" yMin="-18" xMax="1018" yMax="1665">
      <component glyphName="U" x="0" y="0" flags="0x204"/>
      <component glyphName="glyph00332" x="0" y="0" flags="0x4"/>
    </TTGlyph>
    <TTGlyph name="Ucircumflex" xMin="0" yMin="-18" xMax="1018" yMax="1659">
      <component glyphName="U" x="0" y="0" flags="0x204"/>
      <component glyphName="glyph00321" x="0" y="0" flags="0x4"/>
    </TTGlyph>
    <TTGlyph name="Udieresis" xMin="0" yMin="-18" xMax="1018" yMax="1659">
      <component glyphName="U" x="0" y="0" flags="0x204"/>
      <component glyphName="glyph00328" x="0" y="0" flags="0x4"/>
    </TTGlyph>
    <TTGlyph name="Ugrave" xMin="0" yMin="-18" xMax="1018" yMax="1659">
      <component glyphName="U" x="0" y="0" flags="0x204"/>
      <component glyphName="glyph00317" x="0" y="0" flags="0x4"/>
    </TTGlyph>
    <TTGlyph name="Uhungarumlaut" xMin="0" yMin="-18" xMax="1126" yMax="1659">
      <component glyphName="U" x="0" y="0" flags="0x204"/>
      <component glyphName="glyph00337" x="0" y="0" flags="0x4"/>
    </TTGlyph>
    <TTGlyph name="Umacron" xMin="0" yMin="-18" xMax="1018" yMax="1616">
      <component glyphName="U" x="0" y="0" flags="0x204"/>
      <component glyphName="glyph00330" x="0" y="0" flags="0x4"/>
    </TTGlyph>
    <TTGlyph name="Uogonek" xMin="109" yMin="-385" xMax="1018" yMax="1307">
      <contour>
        <pt x="758" y="-375" on="1"/>
        <pt x="733" y="-380" on="0"/>
        <pt x="672" y="-385" on="0"/>
        <pt x="647" y="-385" on="1"/>
        <pt x="539" y="-385" on="0"/>
        <pt x="428" y="-293" on="0"/>
        <pt x="428" y="-221" on="1"/>
        <pt x="428" y="-199" on="0"/>
        <pt x="436" y="-156" on="0"/>
        <pt x="459" y="-107" on="0"/>
        <pt x="499" y="-51" on="0"/>
        <pt x="532" y="-17" on="1"/>
        <pt x="417" y="-14" on="0"/>
        <pt x="256" y="53" on="0"/>
        <pt x="155" y="169" on="0"/>
        <pt x="109" y="330" on="0"/>
        <pt x="109" y="428" on="1"/>
        <pt x="109" y="1307" on="1"/>
        <pt x="287" y="1307" on="1"/>
        <pt x="287" y="442" on="1"/>
        <pt x="287" y="365" on="0"/>
        <pt x="316" y="249" on="0"/>
        <pt x="382" y="171" on="0"/>
        <pt x="487" y="131" on="0"/>
        <pt x="563" y="131" on="1"/>
        <pt x="705" y="131" on="0"/>
        <pt x="840" y="295" on="0"/>
        <pt x="840" y="444" on="1"/>
        <pt x="840" y="1307" on="1"/>
        <pt x="1018" y="1307" on="1"/>
        <pt x="1018" y="455" on="1"/>
        <pt x="1018" y="366" on="0"/>
        <pt x="977" y="216" on="0"/>
        <pt x="897" y="100" on="0"/>
        <pt x="781" y="19" on="0"/>
        <pt x="705" y="0" on="1"/>
        <pt x="669" y="-36" on="0"/>
        <pt x="625" y="-91" on="0"/>
        <pt x="601" y="-135" on="0"/>
        <pt x="592" y="-174" on="0"/>
        <pt x="592" y="-193" on="1"/>
        <pt x="592" y="-225" on="0"/>
        <pt x="636" y="-266" on="0"/>
        <pt x="688" y="-266" on="1"/>
        <pt x="702" y="-266" on="0"/>
        <pt x="741" y="-264" on="0"/>
        <pt x="758" y="-262" on="1"/>
      </contour>
    </TTGlyph>
    <TTGlyph name="Upsilon" xMin="0" yMin="0" xMax="1126" yMax="1307">
      <component glyphName="Y" x="0" y="0" flags="0x204"/>
    </TTGlyph>
    <TTGlyph name="Upsilondieresis" xMin="0" yMin="0" xMax="1126" yMax="1659">
      <component glyphName="Y" x="0" y="0" flags="0x204"/>
      <component glyphName="glyph00328" x="0" y="0" flags="0x4"/>
    </TTGlyph>
    <TTGlyph name="Upsilontonos" xMin="-194" yMin="0" xMax="1126" yMax="1434">
      <component glyphName="Y" x="0" y="0" flags="0x204"/>
      <component glyphName="glyph00473" x="-47" y="0" flags="0x4"/>
    </TTGlyph>
    <TTGlyph name="Uring" xMin="0" yMin="-18" xMax="1018" yMax="1740">
      <component glyphName="U" x="0" y="0" flags="0x204"/>
      <component glyphName="glyph00334" x="0" y="0" flags="0x4"/>
    </TTGlyph>
    <TTGlyph name="Utilde" xMin="0" yMin="-18" xMax="1018" yMax="1671">
      <component glyphName="U" x="0" y="0" flags="0x204"/>
      <component glyphName="glyph00326" x="0" y="0" flags="0x4"/>
    </TTGlyph>
    <TTGlyph name="V" xMin="4" yMin="0" xMax="1122" yMax="1307">
      <contour>
        <pt x="1122" y="1307" on="1"/>
        <pt x="678" y="0" on="1"/>
        <pt x="438" y="0" on="1"/>
        <pt x="4" y="1307" on="1"/>
        <pt x="205" y="1307" on="1"/>
        <pt x="487" y="426" on="1"/>
        <pt x="567" y="168" on="1"/>
        <pt x="649" y="426" on="1"/>
        <pt x="932" y="1307" on="1"/>
      </contour>
    </TTGlyph>
    <TTGlyph name="W" xMin="45" yMin="0" xMax="1081" yMax="1307">
      <contour>
        <pt x="1081" y="1307" on="1"/>
        <pt x="993" y="0" on="1"/>
        <pt x="762" y="0" on="1"/>
        <pt x="600" y="465" on="1"/>
        <pt x="555" y="614" on="1"/>
        <pt x="508" y="453" on="1"/>
        <pt x="358" y="0" on="1"/>
        <pt x="135" y="0" on="1"/>
        <pt x="45" y="1307" on="1"/>
        <pt x="213" y="1307" on="1"/>
        <pt x="264" y="418" on="1"/>
        <pt x="279" y="174" on="1"/>
        <pt x="342" y="381" on="1"/>
        <pt x="500" y="866" on="1"/>
        <pt x="623" y="866" on="1"/>
        <pt x="805" y="346" on="1"/>
        <pt x="866" y="174" on="1"/>
        <pt x="870" y="354" on="1"/>
        <pt x="922" y="1307" on="1"/>
      </contour>
    </TTGlyph>
    <TTGlyph name="Wacute" xMin="0" yMin="0" xMax="1081" yMax="1659">
      <component glyphName="W" x="0" y="0" flags="0x204"/>
      <component glyphName="glyph00319" x="0" y="0" flags="0x4"/>
    </TTGlyph>
    <TTGlyph name="Wcircumflex" xMin="0" yMin="0" xMax="1081" yMax="1659">
      <component glyphName="W" x="0" y="0" flags="0x204"/>
      <component glyphName="glyph00321" x="0" y="0" flags="0x4"/>
    </TTGlyph>
    <TTGlyph name="Wdieresis" xMin="0" yMin="0" xMax="1081" yMax="1659">
      <component glyphName="W" x="0" y="0" flags="0x204"/>
      <component glyphName="glyph00328" x="0" y="0" flags="0x4"/>
    </TTGlyph>
    <TTGlyph name="Wgrave" xMin="0" yMin="0" xMax="1081" yMax="1659">
      <component glyphName="W" x="0" y="0" flags="0x204"/>
      <component glyphName="glyph00317" x="0" y="0" flags="0x4"/>
    </TTGlyph>
    <TTGlyph name="X" xMin="18" yMin="0" xMax="1102" yMax="1307">
      <contour>
        <pt x="1102" y="0" on="1"/>
        <pt x="877" y="0" on="1"/>
        <pt x="559" y="528" on="1"/>
        <pt x="240" y="0" on="1"/>
        <pt x="18" y="0" on="1"/>
        <pt x="453" y="668" on="1"/>
        <pt x="53" y="1307" on="1"/>
        <pt x="264" y="1307" on="1"/>
        <pt x="563" y="815" on="1"/>
        <pt x="864" y="1307" on="1"/>
        <pt x="1069" y="1307" on="1"/>
        <pt x="668" y="676" on="1"/>
      </contour>
    </TTGlyph>
    <TTGlyph name="Xi" xMin="174" yMin="0" xMax="952" yMax="1307">
      <contour>
        <pt x="885" y="598" on="1"/>
        <pt x="242" y="598" on="1"/>
        <pt x="242" y="756" on="1"/>
        <pt x="885" y="756" on="1"/>
      </contour>
      <contour>
        <pt x="944" y="1149" on="1"/>
        <pt x="182" y="1149" on="1"/>
        <pt x="182" y="1307" on="1"/>
        <pt x="944" y="1307" on="1"/>
      </contour>
      <contour>
        <pt x="174" y="0" on="1"/>
        <pt x="174" y="160" on="1"/>
        <pt x="952" y="160" on="1"/>
        <pt x="952" y="0" on="1"/>
      </contour>
    </TTGlyph>
    <TTGlyph name="Y" xMin="0" yMin="0" xMax="1126" yMax="1307">
      <contour>
        <pt x="1126" y="1307" on="1"/>
        <pt x="653" y="467" on="1"/>
        <pt x="653" y="0" on="1"/>
        <pt x="473" y="0" on="1"/>
        <pt x="473" y="471" on="1"/>
        <pt x="0" y="1307" on="1"/>
        <pt x="215" y="1307" on="1"/>
        <pt x="475" y="829" on="1"/>
        <pt x="571" y="637" on="1"/>
        <pt x="659" y="811" on="1"/>
        <pt x="922" y="1307" on="1"/>
      </contour>
    </TTGlyph>
    <TTGlyph name="Yacute" xMin="0" yMin="0" xMax="1126" yMax="1659">
      <component glyphName="Y" x="0" y="0" flags="0x204"/>
      <component glyphName="glyph00319" x="0" y="0" flags="0x4"/>
    </TTGlyph>
    <TTGlyph name="Ycircumflex" xMin="0" yMin="0" xMax="1126" yMax="1659">
      <component glyphName="Y" x="0" y="0" flags="0x204"/>
      <component glyphName="glyph00321" x="0" y="0" flags="0x4"/>
    </TTGlyph>
    <TTGlyph name="Ydieresis" xMin="0" yMin="0" xMax="1126" yMax="1659">
      <component glyphName="Y" x="0" y="0" flags="0x204"/>
      <component glyphName="glyph00328" x="0" y="0" flags="0x4"/>
    </TTGlyph>
    <TTGlyph name="Ygrave" xMin="0" yMin="0" xMax="1126" yMax="1659">
      <component glyphName="Y" x="0" y="0" flags="0x204"/>
      <component glyphName="glyph00317" x="0" y="0" flags="0x4"/>
    </TTGlyph>
    <TTGlyph name="Z" xMin="111" yMin="0" xMax="1014" yMax="1307">
      <contour>
        <pt x="1001" y="1167" on="1"/>
        <pt x="334" y="166" on="1"/>
        <pt x="1014" y="166" on="1"/>
        <pt x="1014" y="0" on="1"/>
        <pt x="111" y="0" on="1"/>
        <pt x="111" y="133" on="1"/>
        <pt x="782" y="1145" on="1"/>
        <pt x="129" y="1145" on="1"/>
        <pt x="129" y="1307" on="1"/>
        <pt x="1001" y="1307" on="1"/>
      </contour>
    </TTGlyph>
    <TTGlyph name="Zacute" xMin="0" yMin="0" xMax="1014" yMax="1659">
      <component glyphName="Z" x="0" y="0" flags="0x204"/>
      <component glyphName="glyph00319" x="0" y="0" flags="0x4"/>
    </TTGlyph>
    <TTGlyph name="Zcaron" xMin="0" yMin="0" xMax="1014" yMax="1659">
      <component glyphName="Z" x="0" y="0" flags="0x204"/>
      <component glyphName="glyph00323" x="0" y="0" flags="0x4"/>
    </TTGlyph>
    <TTGlyph name="Zdotaccent" xMin="0" yMin="0" xMax="1014" yMax="1679">
      <component glyphName="Z" x="0" y="0" flags="0x204"/>
      <component glyphName="glyph00339" x="0" y="0" flags="0x4"/>
    </TTGlyph>
    <TTGlyph name="Zeta" xMin="111" yMin="0" xMax="1014" yMax="1307">
      <component glyphName="Z" x="0" y="0" flags="0x204"/>
    </TTGlyph>
    <TTGlyph name="a" xMin="133" yMin="-18" xMax="961" yMax="1022">
      <contour>
        <pt x="805" y="0" on="1"/>
        <pt x="801" y="135" on="1"/>
        <pt x="719" y="54" on="0"/>
        <pt x="550" y="-18" on="0"/>
        <pt x="457" y="-18" on="1"/>
        <pt x="371" y="-18" on="0"/>
        <pt x="249" y="26" on="0"/>
        <pt x="170" y="103" on="0"/>
        <pt x="133" y="207" on="0"/>
        <pt x="133" y="268" on="1"/>
        <pt x="133" y="419" on="0"/>
        <pt x="358" y="590" on="0"/>
        <pt x="578" y="590" on="1"/>
        <pt x="786" y="590" on="1"/>
        <pt x="786" y="678" on="1"/>
        <pt x="786" y="767" on="0"/>
        <pt x="672" y="874" on="0"/>
        <pt x="555" y="874" on="1"/>
        <pt x="470" y="874" on="0"/>
        <pt x="305" y="836" on="0"/>
        <pt x="217" y="801" on="1"/>
        <pt x="217" y="958" on="1"/>
        <pt x="250" y="970" on="0"/>
        <pt x="331" y="993" on="0"/>
        <pt x="421" y="1011" on="0"/>
        <pt x="519" y="1022" on="0"/>
        <pt x="569" y="1022" on="1"/>
        <pt x="660" y="1022" on="0"/>
        <pt x="806" y="982" on="0"/>
        <pt x="907" y="900" on="0"/>
        <pt x="961" y="776" on="0"/>
        <pt x="961" y="692" on="1"/>
        <pt x="961" y="0" on="1"/>
      </contour>
      <contour>
        <pt x="786" y="457" on="1"/>
        <pt x="565" y="457" on="1"/>
        <pt x="500" y="457" on="0"/>
        <pt x="406" y="431" on="0"/>
        <pt x="346" y="383" on="0"/>
        <pt x="317" y="316" on="0"/>
        <pt x="317" y="274" on="1"/>
        <pt x="317" y="245" on="0"/>
        <pt x="335" y="192" on="0"/>
        <pt x="375" y="151" on="0"/>
        <pt x="439" y="127" on="0"/>
        <pt x="485" y="127" on="1"/>
        <pt x="545" y="127" on="0"/>
        <pt x="700" y="200" on="0"/>
        <pt x="786" y="279" on="1"/>
      </contour>
    </TTGlyph>
    <TTGlyph name="aacute" xMin="0" yMin="-18" xMax="961" yMax="1413">
      <component glyphName="a" x="0" y="0" flags="0x204"/>
      <component glyphName="acute" x="0" y="0" flags="0x4"/>
    </TTGlyph>
    <TTGlyph name="abreve" xMin="0" yMin="-18" xMax="961" yMax="1413">
      <component glyphName="a" x="0" y="0" flags="0x204"/>
      <component glyphName="breve" x="0" y="0" flags="0x4"/>
    </TTGlyph>
    <TTGlyph name="acircumflex" xMin="0" yMin="-18" xMax="961" yMax="1413">
      <component glyphName="a" x="0" y="0" flags="0x204"/>
      <component glyphName="circumflex" x="0" y="0" flags="0x4"/>
    </TTGlyph>
    <TTGlyph name="acute" xMin="0" yMin="1004" xMax="952" yMax="1413">
      <contour>
        <pt x="952" y="1413" on="1"/>
        <pt x="633" y="1171" on="1"/>
        <pt x="459" y="1171" on="1"/>
        <pt x="700" y="1413" on="1"/>
      </contour>
      <contour>
        <pt x="0" y="1004" on="1"/>
      </contour>
    </TTGlyph>
    <TTGlyph name="adieresis" xMin="0" yMin="-18" xMax="961" yMax="1405">
      <component glyphName="a" x="0" y="0" flags="0x204"/>
      <component glyphName="dieresis" x="0" y="0" flags="0x4"/>
    </TTGlyph>
    <TTGlyph name="ae" xMin="31" yMin="-18" xMax="1087" yMax="1022">
      <contour>
        <pt x="340" y="1022" on="1"/>
        <pt x="431" y="1022" on="0"/>
        <pt x="554" y="963" on="0"/>
        <pt x="580" y="901" on="1"/>
        <pt x="615" y="957" on="0"/>
        <pt x="726" y="1022" on="0"/>
        <pt x="799" y="1022" on="1"/>
        <pt x="877" y="1022" on="0"/>
        <pt x="986" y="958" on="0"/>
        <pt x="1055" y="842" on="0"/>
        <pt x="1087" y="679" on="0"/>
        <pt x="1087" y="580" on="1"/>
        <pt x="1087" y="526" on="0"/>
        <pt x="1085" y="472" on="0"/>
        <pt x="1083" y="457" on="1"/>
        <pt x="639" y="457" on="1"/>
        <pt x="639" y="296" on="0"/>
        <pt x="732" y="125" on="0"/>
        <pt x="840" y="125" on="1"/>
        <pt x="897" y="125" on="0"/>
        <pt x="1009" y="149" on="0"/>
        <pt x="1051" y="166" on="1"/>
        <pt x="1051" y="27" on="1"/>
        <pt x="1028" y="17" on="0"/>
        <pt x="968" y="0" on="0"/>
        <pt x="902" y="-12" on="0"/>
        <pt x="834" y="-18" on="0"/>
        <pt x="803" y="-18" on="1"/>
        <pt x="609" y="-18" on="0"/>
        <pt x="535" y="156" on="1"/>
        <pt x="484" y="74" on="0"/>
        <pt x="352" y="-18" on="0"/>
        <pt x="276" y="-18" on="1"/>
        <pt x="156" y="-18" on="0"/>
        <pt x="31" y="128" on="0"/>
        <pt x="31" y="268" on="1"/>
        <pt x="31" y="343" on="0"/>
        <pt x="70" y="462" on="0"/>
        <pt x="151" y="543" on="0"/>
        <pt x="277" y="586" on="0"/>
        <pt x="365" y="586" on="1"/>
        <pt x="485" y="586" on="1"/>
        <pt x="485" y="670" on="1"/>
        <pt x="485" y="771" on="0"/>
        <pt x="416" y="881" on="0"/>
        <pt x="332" y="881" on="1"/>
        <pt x="275" y="881" on="0"/>
        <pt x="148" y="842" on="0"/>
        <pt x="86" y="807" on="1"/>
        <pt x="86" y="958" on="1"/>
        <pt x="110" y="970" on="0"/>
        <pt x="171" y="993" on="0"/>
        <pt x="237" y="1011" on="0"/>
        <pt x="307" y="1022" on="0"/>
      </contour>
      <contour>
        <pt x="360" y="457" on="1"/>
        <pt x="273" y="457" on="0"/>
        <pt x="195" y="357" on="0"/>
        <pt x="195" y="274" on="1"/>
        <pt x="195" y="199" on="0"/>
        <pt x="247" y="125" on="0"/>
        <pt x="295" y="125" on="1"/>
        <pt x="337" y="125" on="0"/>
        <pt x="430" y="193" on="0"/>
        <pt x="485" y="281" on="1"/>
        <pt x="485" y="457" on="1"/>
      </contour>
      <contour>
        <pt x="793" y="883" on="1"/>
        <pt x="754" y="883" on="0"/>
        <pt x="697" y="837" on="0"/>
        <pt x="658" y="758" on="0"/>
        <pt x="639" y="649" on="0"/>
        <pt x="639" y="586" on="1"/>
        <pt x="924" y="586" on="1"/>
        <pt x="925" y="648" on="0"/>
        <pt x="912" y="757" on="0"/>
        <pt x="881" y="837" on="0"/>
        <pt x="830" y="883" on="0"/>
      </contour>
    </TTGlyph>
    <TTGlyph name="aeacute" xMin="0" yMin="-18" xMax="1087" yMax="1413">
      <component glyphName="ae" x="0" y="0" flags="0x204"/>
      <component glyphName="acute" x="0" y="0" flags="0x4"/>
    </TTGlyph>
    <TTGlyph name="afii00208" xMin="-4" yMin="469" xMax="1130" yMax="621">
      <component glyphName="emdash" x="0" y="0" flags="0x204"/>
    </TTGlyph>
    <TTGlyph name="afii10017" xMin="10" yMin="0" xMax="1116" yMax="1307">
      <component glyphName="A" x="0" y="0" flags="0x204"/>
    </TTGlyph>
    <TTGlyph name="afii10018" xMin="158" yMin="0" xMax="1036" yMax="1307">
      <contour>
        <pt x="336" y="770" on="1"/>
        <pt x="547" y="770" on="1"/>
        <pt x="667" y="770" on="0"/>
        <pt x="850" y="713" on="0"/>
        <pt x="973" y="613" on="0"/>
        <pt x="1036" y="479" on="0"/>
        <pt x="1036" y="401" on="1"/>
        <pt x="1036" y="308" on="0"/>
        <pt x="963" y="159" on="0"/>
        <pt x="830" y="55" on="0"/>
        <pt x="643" y="0" on="0"/>
        <pt x="528" y="0" on="1"/>
        <pt x="158" y="0" on="1"/>
        <pt x="158" y="1307" on="1"/>
        <pt x="944" y="1307" on="1"/>
        <pt x="944" y="1157" on="1"/>
        <pt x="336" y="1157" on="1"/>
      </contour>
      <contour>
        <pt x="848" y="389" on="1"/>
        <pt x="848" y="442" on="0"/>
        <pt x="812" y="528" on="0"/>
        <pt x="736" y="590" on="0"/>
        <pt x="618" y="623" on="0"/>
        <pt x="535" y="623" on="1"/>
        <pt x="336" y="623" on="1"/>
        <pt x="336" y="150" on="1"/>
        <pt x="541" y="150" on="1"/>
        <pt x="693" y="150" on="0"/>
        <pt x="848" y="275" on="0"/>
      </contour>
    </TTGlyph>
    <TTGlyph name="afii10019" xMin="158" yMin="0" xMax="1016" yMax="1307">
      <component glyphName="B" x="0" y="0" flags="0x204"/>
    </TTGlyph>
    <TTGlyph name="afii10020" xMin="233" yMin="0" xMax="985" yMax="1307">
      <contour>
        <pt x="414" y="1151" on="1"/>
        <pt x="414" y="0" on="1"/>
        <pt x="233" y="0" on="1"/>
        <pt x="233" y="1307" on="1"/>
        <pt x="985" y="1307" on="1"/>
        <pt x="985" y="1151" on="1"/>
      </contour>
    </TTGlyph>
    <TTGlyph name="afii10021" xMin="12" yMin="-283" xMax="1098" yMax="1307">
      <contour>
        <pt x="776" y="1153" on="1"/>
        <pt x="487" y="1153" on="1"/>
        <pt x="480" y="945" on="0"/>
        <pt x="451" y="606" on="0"/>
        <pt x="404" y="351" on="0"/>
        <pt x="338" y="185" on="0"/>
        <pt x="293" y="150" on="1"/>
        <pt x="776" y="150" on="1"/>
      </contour>
      <contour>
        <pt x="1098" y="150" on="1"/>
        <pt x="1085" y="-283" on="1"/>
        <pt x="926" y="-283" on="1"/>
        <pt x="926" y="0" on="1"/>
        <pt x="184" y="0" on="1"/>
        <pt x="184" y="-283" on="1"/>
        <pt x="25" y="-283" on="1"/>
        <pt x="12" y="150" on="1"/>
        <pt x="27" y="150" on="1"/>
        <pt x="60" y="150" on="0"/>
        <pt x="124" y="189" on="0"/>
        <pt x="184" y="288" on="0"/>
        <pt x="237" y="456" on="0"/>
        <pt x="281" y="713" on="0"/>
        <pt x="313" y="1069" on="0"/>
        <pt x="322" y="1307" on="1"/>
        <pt x="954" y="1307" on="1"/>
        <pt x="954" y="150" on="1"/>
      </contour>
    </TTGlyph>
    <TTGlyph name="afii10022" xMin="201" yMin="0" xMax="944" yMax="1307">
      <component glyphName="E" x="0" y="0" flags="0x204"/>
    </TTGlyph>
    <TTGlyph name="afii10023" xMin="0" yMin="0" xMax="944" yMax="1659">
      <component glyphName="E" x="0" y="0" flags="0x204"/>
      <component glyphName="glyph00328" x="0" y="0" flags="0x4"/>
    </TTGlyph>
    <TTGlyph name="afii10024" xMin="-10" yMin="0" xMax="1141" yMax="1307">
      <contour>
        <pt x="645" y="672" on="1"/>
        <pt x="952" y="1307" on="1"/>
        <pt x="1122" y="1307" on="1"/>
        <pt x="817" y="678" on="1"/>
        <pt x="1141" y="0" on="1"/>
        <pt x="952" y="0" on="1"/>
        <pt x="645" y="670" on="1"/>
        <pt x="645" y="0" on="1"/>
        <pt x="481" y="0" on="1"/>
        <pt x="481" y="670" on="1"/>
        <pt x="174" y="0" on="1"/>
        <pt x="-10" y="0" on="1"/>
        <pt x="313" y="674" on="1"/>
        <pt x="4" y="1307" on="1"/>
        <pt x="178" y="1307" on="1"/>
        <pt x="481" y="672" on="1"/>
        <pt x="481" y="1307" on="1"/>
        <pt x="645" y="1307" on="1"/>
      </contour>
    </TTGlyph>
    <TTGlyph name="afii10025" xMin="109" yMin="-16" xMax="985" yMax="1323">
      <contour>
        <pt x="109" y="203" on="1"/>
        <pt x="184" y="172" on="0"/>
        <pt x="365" y="134" on="0"/>
        <pt x="489" y="134" on="1"/>
        <pt x="642" y="134" on="0"/>
        <pt x="795" y="266" on="0"/>
        <pt x="795" y="387" on="1"/>
        <pt x="795" y="437" on="0"/>
        <pt x="752" y="516" on="0"/>
        <pt x="671" y="571" on="0"/>
        <pt x="555" y="600" on="0"/>
        <pt x="483" y="600" on="1"/>
        <pt x="209" y="600" on="1"/>
        <pt x="209" y="747" on="1"/>
        <pt x="479" y="747" on="1"/>
        <pt x="540" y="747" on="0"/>
        <pt x="640" y="774" on="0"/>
        <pt x="712" y="828" on="0"/>
        <pt x="752" y="910" on="0"/>
        <pt x="752" y="966" on="1"/>
        <pt x="752" y="1006" on="0"/>
        <pt x="727" y="1082" on="0"/>
        <pt x="665" y="1140" on="0"/>
        <pt x="563" y="1175" on="0"/>
        <pt x="485" y="1175" on="1"/>
        <pt x="402" y="1175" on="0"/>
        <pt x="230" y="1149" on="0"/>
        <pt x="143" y="1121" on="1"/>
        <pt x="143" y="1276" on="1"/>
        <pt x="217" y="1298" on="0"/>
        <pt x="388" y="1323" on="0"/>
        <pt x="502" y="1323" on="1"/>
        <pt x="722" y="1323" on="0"/>
        <pt x="938" y="1147" on="0"/>
        <pt x="938" y="989" on="1"/>
        <pt x="938" y="883" on="0"/>
        <pt x="836" y="729" on="0"/>
        <pt x="723" y="692" on="1"/>
        <pt x="776" y="682" on="0"/>
        <pt x="871" y="635" on="0"/>
        <pt x="943" y="559" on="0"/>
        <pt x="985" y="456" on="0"/>
        <pt x="985" y="391" on="1"/>
        <pt x="985" y="297" on="0"/>
        <pt x="912" y="147" on="0"/>
        <pt x="777" y="41" on="0"/>
        <pt x="586" y="-16" on="0"/>
        <pt x="469" y="-16" on="1"/>
        <pt x="267" y="-16" on="0"/>
        <pt x="109" y="39" on="1"/>
      </contour>
    </TTGlyph>
    <TTGlyph name="afii10026" xMin="119" yMin="0" xMax="1007" yMax="1307">
      <contour>
        <pt x="297" y="1307" on="1"/>
        <pt x="297" y="319" on="1"/>
        <pt x="838" y="1307" on="1"/>
        <pt x="1007" y="1307" on="1"/>
        <pt x="1007" y="0" on="1"/>
        <pt x="829" y="0" on="1"/>
        <pt x="829" y="987" on="1"/>
        <pt x="289" y="0" on="1"/>
        <pt x="119" y="0" on="1"/>
        <pt x="119" y="1307" on="1"/>
      </contour>
    </TTGlyph>
    <TTGlyph name="afii10027" xMin="0" yMin="0" xMax="1007" yMax="1638">
      <component glyphName="afii10026" x="0" y="0" flags="0x204"/>
      <component glyphName="glyph00586" x="0" y="0" flags="0x4"/>
    </TTGlyph>
    <TTGlyph name="afii10028" xMin="156" yMin="0" xMax="1047" yMax="1307">
      <component glyphName="K" x="0" y="0" flags="0x204"/>
    </TTGlyph>
    <TTGlyph name="afii10029" xMin="27" yMin="-4" xMax="969" yMax="1307">
      <contour>
        <pt x="969" y="0" on="1"/>
        <pt x="791" y="0" on="1"/>
        <pt x="791" y="1153" on="1"/>
        <pt x="502" y="1153" on="1"/>
        <pt x="493" y="898" on="0"/>
        <pt x="454" y="520" on="0"/>
        <pt x="394" y="255" on="0"/>
        <pt x="320" y="103" on="0"/>
        <pt x="243" y="27" on="0"/>
        <pt x="163" y="-4" on="0"/>
        <pt x="113" y="-4" on="1"/>
        <pt x="72" y="-4" on="0"/>
        <pt x="27" y="6" on="1"/>
        <pt x="35" y="158" on="1"/>
        <pt x="90" y="151" on="0"/>
        <pt x="173" y="223" on="0"/>
        <pt x="235" y="366" on="0"/>
        <pt x="277" y="574" on="0"/>
        <pt x="307" y="833" on="0"/>
        <pt x="328" y="1138" on="0"/>
        <pt x="336" y="1307" on="1"/>
        <pt x="969" y="1307" on="1"/>
      </contour>
    </TTGlyph>
    <TTGlyph name="afii10030" xMin="49" yMin="0" xMax="1077" yMax="1307">
      <component glyphName="M" x="0" y="0" flags="0x204"/>
    </TTGlyph>
    <TTGlyph name="afii10031" xMin="111" yMin="0" xMax="1016" yMax="1307">
      <component glyphName="H" x="0" y="0" flags="0x204"/>
    </TTGlyph>
    <TTGlyph name="afii10032" xMin="57" yMin="-18" xMax="1071" yMax="1325">
      <component glyphName="O" x="0" y="0" flags="0x204"/>
    </TTGlyph>
    <TTGlyph name="afii10033" xMin="117" yMin="0" xMax="1009" yMax="1307">
      <contour>
        <pt x="1009" y="0" on="1"/>
        <pt x="831" y="0" on="1"/>
        <pt x="831" y="1149" on="1"/>
        <pt x="295" y="1149" on="1"/>
        <pt x="295" y="0" on="1"/>
        <pt x="117" y="0" on="1"/>
        <pt x="117" y="1307" on="1"/>
        <pt x="1009" y="1307" on="1"/>
      </contour>
    </TTGlyph>
    <TTGlyph name="afii10034" xMin="158" yMin="0" xMax="1016" yMax="1307">
      <component glyphName="P" x="0" y="0" flags="0x204"/>
    </TTGlyph>
    <TTGlyph name="afii10035" xMin="92" yMin="-16" xMax="995" yMax="1323">
      <component glyphName="C" x="0" y="0" flags="0x204"/>
    </TTGlyph>
    <TTGlyph name="afii10036" xMin="86" yMin="0" xMax="1040" yMax="1307">
      <component glyphName="T" x="0" y="0" flags="0x204"/>
    </TTGlyph>
    <TTGlyph name="afii10037" xMin="57" yMin="-18" xMax="1075" yMax="1307">
      <contour>
        <pt x="158" y="158" on="1"/>
        <pt x="190" y="150" on="0"/>
        <pt x="246" y="142" on="0"/>
        <pt x="272" y="142" on="1"/>
        <pt x="312" y="142" on="0"/>
        <pt x="381" y="167" on="0"/>
        <pt x="444" y="227" on="0"/>
        <pt x="502" y="327" on="0"/>
        <pt x="531" y="401" on="1"/>
        <pt x="57" y="1307" on="1"/>
        <pt x="262" y="1307" on="1"/>
        <pt x="520" y="803" on="1"/>
        <pt x="614" y="612" on="1"/>
        <pt x="616" y="612" on="1"/>
        <pt x="686" y="793" on="1"/>
        <pt x="887" y="1307" on="1"/>
        <pt x="1075" y="1307" on="1"/>
        <pt x="682" y="336" on="1"/>
        <pt x="652" y="262" on="0"/>
        <pt x="583" y="133" on="0"/>
        <pt x="495" y="37" on="0"/>
        <pt x="380" y="-18" on="0"/>
        <pt x="305" y="-18" on="1"/>
        <pt x="270" y="-18" on="0"/>
        <pt x="193" y="-8" on="0"/>
        <pt x="150" y="6" on="1"/>
      </contour>
    </TTGlyph>
    <TTGlyph name="afii10038" xMin="0" yMin="-18" xMax="1087" yMax="1325">
      <contour>
        <pt x="645" y="-18" on="1"/>
        <pt x="481" y="-18" on="1"/>
        <pt x="481" y="113" on="1"/>
        <pt x="383" y="120" on="0"/>
        <pt x="222" y="183" on="0"/>
        <pt x="105" y="308" on="0"/>
        <pt x="41" y="505" on="0"/>
        <pt x="41" y="647" on="1"/>
        <pt x="41" y="790" on="0"/>
        <pt x="110" y="987" on="0"/>
        <pt x="230" y="1114" on="0"/>
        <pt x="390" y="1180" on="0"/>
        <pt x="481" y="1192" on="1"/>
        <pt x="481" y="1325" on="1"/>
        <pt x="645" y="1325" on="1"/>
        <pt x="645" y="1192" on="1"/>
        <pt x="750" y="1184" on="0"/>
        <pt x="914" y="1111" on="0"/>
        <pt x="1027" y="980" on="0"/>
        <pt x="1087" y="788" on="0"/>
        <pt x="1087" y="662" on="1"/>
        <pt x="1087" y="519" on="0"/>
        <pt x="1013" y="320" on="0"/>
        <pt x="890" y="191" on="0"/>
        <pt x="731" y="124" on="0"/>
        <pt x="645" y="113" on="1"/>
      </contour>
      <contour>
        <pt x="481" y="1042" on="1"/>
        <pt x="411" y="1034" on="0"/>
        <pt x="311" y="975" on="0"/>
        <pt x="246" y="877" on="0"/>
        <pt x="215" y="742" on="0"/>
        <pt x="215" y="657" on="1"/>
        <pt x="215" y="555" on="0"/>
        <pt x="250" y="412" on="0"/>
        <pt x="318" y="319" on="0"/>
        <pt x="417" y="270" on="0"/>
        <pt x="481" y="263" on="1"/>
      </contour>
      <contour>
        <pt x="645" y="263" on="1"/>
        <pt x="714" y="272" on="0"/>
        <pt x="815" y="332" on="0"/>
        <pt x="881" y="434" on="0"/>
        <pt x="913" y="564" on="0"/>
        <pt x="913" y="649" on="1"/>
        <pt x="913" y="735" on="0"/>
        <pt x="883" y="868" on="0"/>
        <pt x="818" y="972" on="0"/>
        <pt x="715" y="1034" on="0"/>
        <pt x="645" y="1042" on="1"/>
      </contour>
      <contour>
        <pt x="0" y="1307" on="1"/>
      </contour>
    </TTGlyph>
    <TTGlyph name="afii10039" xMin="18" yMin="0" xMax="1102" yMax="1307">
      <component glyphName="X" x="0" y="0" flags="0x204"/>
    </TTGlyph>
    <TTGlyph name="afii10040" xMin="127" yMin="-283" xMax="1100" yMax="1307">
      <contour>
        <pt x="1100" y="154" on="1"/>
        <pt x="1087" y="-283" on="1"/>
        <pt x="928" y="-283" on="1"/>
        <pt x="928" y="0" on="1"/>
        <pt x="127" y="0" on="1"/>
        <pt x="127" y="1307" on="1"/>
        <pt x="305" y="1307" on="1"/>
        <pt x="305" y="154" on="1"/>
        <pt x="801" y="154" on="1"/>
        <pt x="801" y="1307" on="1"/>
        <pt x="979" y="1307" on="1"/>
        <pt x="979" y="154" on="1"/>
      </contour>
    </TTGlyph>
    <TTGlyph name="afii10041" xMin="101" yMin="0" xMax="1016" yMax="1307">
      <contour>
        <pt x="838" y="575" on="1"/>
        <pt x="784" y="557" on="0"/>
        <pt x="635" y="528" on="0"/>
        <pt x="551" y="528" on="1"/>
        <pt x="429" y="528" on="0"/>
        <pt x="258" y="592" on="0"/>
        <pt x="150" y="710" on="0"/>
        <pt x="101" y="874" on="0"/>
        <pt x="101" y="975" on="1"/>
        <pt x="101" y="1307" on="1"/>
        <pt x="280" y="1307" on="1"/>
        <pt x="280" y="989" on="1"/>
        <pt x="280" y="912" on="0"/>
        <pt x="310" y="796" on="0"/>
        <pt x="376" y="718" on="0"/>
        <pt x="481" y="678" on="0"/>
        <pt x="557" y="678" on="1"/>
        <pt x="636" y="678" on="0"/>
        <pt x="785" y="703" on="0"/>
        <pt x="838" y="723" on="1"/>
        <pt x="838" y="1307" on="1"/>
        <pt x="1016" y="1307" on="1"/>
        <pt x="1016" y="0" on="1"/>
        <pt x="838" y="0" on="1"/>
      </contour>
    </TTGlyph>
    <TTGlyph name="afii10042" xMin="84" yMin="0" xMax="1042" yMax="1307">
      <contour>
        <pt x="84" y="1307" on="1"/>
        <pt x="248" y="1307" on="1"/>
        <pt x="248" y="143" on="1"/>
        <pt x="483" y="143" on="1"/>
        <pt x="483" y="1307" on="1"/>
        <pt x="643" y="1307" on="1"/>
        <pt x="643" y="143" on="1"/>
        <pt x="878" y="143" on="1"/>
        <pt x="878" y="1307" on="1"/>
        <pt x="1042" y="1307" on="1"/>
        <pt x="1042" y="0" on="1"/>
        <pt x="84" y="0" on="1"/>
      </contour>
    </TTGlyph>
    <TTGlyph name="afii10043" xMin="74" yMin="-283" xMax="1112" yMax="1307">
      <contour>
        <pt x="74" y="0" on="1"/>
        <pt x="74" y="1307" on="1"/>
        <pt x="238" y="1307" on="1"/>
        <pt x="238" y="143" on="1"/>
        <pt x="473" y="143" on="1"/>
        <pt x="473" y="1307" on="1"/>
        <pt x="633" y="1307" on="1"/>
        <pt x="633" y="143" on="1"/>
        <pt x="868" y="143" on="1"/>
        <pt x="868" y="1307" on="1"/>
        <pt x="1032" y="1307" on="1"/>
        <pt x="1032" y="143" on="1"/>
        <pt x="1112" y="143" on="1"/>
        <pt x="1100" y="-283" on="1"/>
        <pt x="948" y="-283" on="1"/>
        <pt x="948" y="0" on="1"/>
      </contour>
    </TTGlyph>
    <TTGlyph name="afii10044" xMin="35" yMin="0" xMax="1057" yMax="1307">
      <contour>
        <pt x="35" y="1155" on="1"/>
        <pt x="35" y="1307" on="1"/>
        <pt x="428" y="1307" on="1"/>
        <pt x="428" y="791" on="1"/>
        <pt x="567" y="791" on="1"/>
        <pt x="691" y="791" on="0"/>
        <pt x="876" y="732" on="0"/>
        <pt x="997" y="630" on="0"/>
        <pt x="1057" y="492" on="0"/>
        <pt x="1057" y="412" on="1"/>
        <pt x="1057" y="312" on="0"/>
        <pt x="984" y="158" on="0"/>
        <pt x="851" y="54" on="0"/>
        <pt x="663" y="0" on="0"/>
        <pt x="549" y="0" on="1"/>
        <pt x="250" y="0" on="1"/>
        <pt x="250" y="1155" on="1"/>
      </contour>
      <contour>
        <pt x="868" y="399" on="1"/>
        <pt x="868" y="455" on="0"/>
        <pt x="835" y="546" on="0"/>
        <pt x="761" y="609" on="0"/>
        <pt x="642" y="643" on="0"/>
        <pt x="555" y="643" on="1"/>
        <pt x="428" y="643" on="1"/>
        <pt x="428" y="150" on="1"/>
        <pt x="561" y="150" on="1"/>
        <pt x="718" y="150" on="0"/>
        <pt x="868" y="281" on="0"/>
      </contour>
    </TTGlyph>
    <TTGlyph name="afii10045" xMin="82" yMin="0" xMax="1044" yMax="1307">
      <contour>
        <pt x="254" y="791" on="1"/>
        <pt x="358" y="791" on="1"/>
        <pt x="469" y="791" on="0"/>
        <pt x="626" y="730" on="0"/>
        <pt x="725" y="627" on="0"/>
        <pt x="770" y="489" on="0"/>
        <pt x="770" y="412" on="1"/>
        <pt x="770" y="308" on="0"/>
        <pt x="715" y="163" on="0"/>
        <pt x="609" y="57" on="0"/>
        <pt x="453" y="0" on="0"/>
        <pt x="352" y="0" on="1"/>
        <pt x="82" y="0" on="1"/>
        <pt x="82" y="1307" on="1"/>
        <pt x="254" y="1307" on="1"/>
      </contour>
      <contour>
        <pt x="596" y="399" on="1"/>
        <pt x="596" y="457" on="0"/>
        <pt x="571" y="547" on="0"/>
        <pt x="514" y="610" on="0"/>
        <pt x="423" y="643" on="0"/>
        <pt x="358" y="643" on="1"/>
        <pt x="254" y="643" on="1"/>
        <pt x="254" y="152" on="1"/>
        <pt x="354" y="152" on="1"/>
        <pt x="481" y="152" on="0"/>
        <pt x="596" y="281" on="0"/>
      </contour>
      <contour>
        <pt x="872" y="0" on="1"/>
        <pt x="872" y="1307" on="1"/>
        <pt x="1044" y="1307" on="1"/>
        <pt x="1044" y="0" on="1"/>
      </contour>
    </TTGlyph>
    <TTGlyph name="afii10046" xMin="158" yMin="0" xMax="1036" yMax="1307">
      <contour>
        <pt x="336" y="791" on="1"/>
        <pt x="547" y="791" on="1"/>
        <pt x="670" y="791" on="0"/>
        <pt x="853" y="732" on="0"/>
        <pt x="975" y="630" on="0"/>
        <pt x="1036" y="492" on="0"/>
        <pt x="1036" y="412" on="1"/>
        <pt x="1036" y="314" on="0"/>
        <pt x="965" y="161" on="0"/>
        <pt x="833" y="56" on="0"/>
        <pt x="645" y="0" on="0"/>
        <pt x="528" y="0" on="1"/>
        <pt x="158" y="0" on="1"/>
        <pt x="158" y="1307" on="1"/>
        <pt x="336" y="1307" on="1"/>
      </contour>
      <contour>
        <pt x="846" y="399" on="1"/>
        <pt x="846" y="456" on="0"/>
        <pt x="814" y="546" on="0"/>
        <pt x="740" y="609" on="0"/>
        <pt x="622" y="643" on="0"/>
        <pt x="535" y="643" on="1"/>
        <pt x="336" y="643" on="1"/>
        <pt x="336" y="150" on="1"/>
        <pt x="541" y="150" on="1"/>
        <pt x="698" y="150" on="0"/>
        <pt x="846" y="281" on="0"/>
      </contour>
    </TTGlyph>
    <TTGlyph name="afii10047" xMin="131" yMin="-18" xMax="1036" yMax="1325">
      <contour>
        <pt x="848" y="752" on="1"/>
        <pt x="839" y="854" on="0"/>
        <pt x="784" y="1011" on="0"/>
        <pt x="685" y="1119" on="0"/>
        <pt x="539" y="1174" on="0"/>
        <pt x="440" y="1174" on="1"/>
        <pt x="357" y="1174" on="0"/>
        <pt x="202" y="1135" on="0"/>
        <pt x="131" y="1100" on="1"/>
        <pt x="131" y="1260" on="1"/>
        <pt x="210" y="1292" on="0"/>
        <pt x="373" y="1325" on="0"/>
        <pt x="461" y="1325" on="1"/>
        <pt x="606" y="1325" on="0"/>
        <pt x="822" y="1238" on="0"/>
        <pt x="965" y="1070" on="0"/>
        <pt x="1036" y="825" on="0"/>
        <pt x="1036" y="668" on="1"/>
        <pt x="1036" y="497" on="0"/>
        <pt x="961" y="235" on="0"/>
        <pt x="807" y="63" on="0"/>
        <pt x="590" y="-18" on="0"/>
        <pt x="451" y="-18" on="1"/>
        <pt x="360" y="-18" on="0"/>
        <pt x="203" y="13" on="0"/>
        <pt x="131" y="45" on="1"/>
        <pt x="131" y="215" on="1"/>
        <pt x="202" y="177" on="0"/>
        <pt x="355" y="135" on="0"/>
        <pt x="444" y="135" on="1"/>
        <pt x="647" y="135" on="0"/>
        <pt x="843" y="367" on="0"/>
        <pt x="852" y="602" on="1"/>
        <pt x="229" y="602" on="1"/>
        <pt x="229" y="752" on="1"/>
      </contour>
    </TTGlyph>
    <TTGlyph name="afii10048" xMin="84" yMin="-18" xMax="1087" yMax="1325">
      <contour>
        <pt x="428" y="750" on="1"/>
        <pt x="432" y="897" on="0"/>
        <pt x="475" y="1114" on="0"/>
        <pt x="557" y="1256" on="0"/>
        <pt x="681" y="1325" on="0"/>
        <pt x="766" y="1325" on="1"/>
        <pt x="867" y="1325" on="0"/>
        <pt x="993" y="1235" on="0"/>
        <pt x="1063" y="1065" on="0"/>
        <pt x="1087" y="818" on="0"/>
        <pt x="1087" y="662" on="1"/>
        <pt x="1087" y="492" on="0"/>
        <pt x="1054" y="237" on="0"/>
        <pt x="975" y="67" on="0"/>
        <pt x="846" y="-18" on="0"/>
        <pt x="750" y="-18" on="1"/>
        <pt x="654" y="-18" on="0"/>
        <pt x="530" y="68" on="0"/>
        <pt x="458" y="229" on="0"/>
        <pt x="429" y="460" on="0"/>
        <pt x="428" y="604" on="1"/>
        <pt x="250" y="604" on="1"/>
        <pt x="250" y="0" on="1"/>
        <pt x="84" y="0" on="1"/>
        <pt x="84" y="1307" on="1"/>
        <pt x="250" y="1307" on="1"/>
        <pt x="250" y="750" on="1"/>
      </contour>
      <contour>
        <pt x="920" y="653" on="1"/>
        <pt x="920" y="783" on="0"/>
        <pt x="908" y="983" on="0"/>
        <pt x="874" y="1117" on="0"/>
        <pt x="810" y="1186" on="0"/>
        <pt x="758" y="1186" on="1"/>
        <pt x="710" y="1186" on="0"/>
        <pt x="647" y="1116" on="0"/>
        <pt x="610" y="981" on="0"/>
        <pt x="594" y="782" on="0"/>
        <pt x="594" y="653" on="1"/>
        <pt x="594" y="525" on="0"/>
        <pt x="606" y="326" on="0"/>
        <pt x="641" y="191" on="0"/>
        <pt x="705" y="121" on="0"/>
        <pt x="758" y="121" on="1"/>
        <pt x="808" y="121" on="0"/>
        <pt x="871" y="194" on="0"/>
        <pt x="907" y="332" on="0"/>
        <pt x="920" y="529" on="0"/>
      </contour>
    </TTGlyph>
    <TTGlyph name="afii10049" xMin="94" yMin="0" xMax="956" yMax="1307">
      <contour>
        <pt x="238" y="389" on="1"/>
        <pt x="259" y="444" on="0"/>
        <pt x="302" y="508" on="0"/>
        <pt x="346" y="552" on="0"/>
        <pt x="393" y="579" on="0"/>
        <pt x="414" y="586" on="1"/>
        <pt x="356" y="597" on="0"/>
        <pt x="264" y="657" on="0"/>
        <pt x="203" y="745" on="0"/>
        <pt x="172" y="856" on="0"/>
        <pt x="172" y="915" on="1"/>
        <pt x="172" y="1001" on="0"/>
        <pt x="223" y="1144" on="0"/>
        <pt x="332" y="1248" on="0"/>
        <pt x="505" y="1307" on="0"/>
        <pt x="631" y="1307" on="1"/>
        <pt x="956" y="1307" on="1"/>
        <pt x="956" y="0" on="1"/>
        <pt x="776" y="0" on="1"/>
        <pt x="776" y="541" on="1"/>
        <pt x="641" y="541" on="1"/>
        <pt x="602" y="541" on="0"/>
        <pt x="537" y="527" on="0"/>
        <pt x="484" y="490" on="0"/>
        <pt x="441" y="426" on="0"/>
        <pt x="424" y="377" on="1"/>
        <pt x="293" y="0" on="1"/>
        <pt x="94" y="0" on="1"/>
      </contour>
      <contour>
        <pt x="359" y="926" on="1"/>
        <pt x="359" y="865" on="0"/>
        <pt x="393" y="777" on="0"/>
        <pt x="459" y="715" on="0"/>
        <pt x="558" y="684" on="0"/>
        <pt x="623" y="684" on="1"/>
        <pt x="776" y="684" on="1"/>
        <pt x="776" y="1157" on="1"/>
        <pt x="616" y="1157" on="1"/>
        <pt x="488" y="1157" on="0"/>
        <pt x="359" y="1037" on="0"/>
      </contour>
    </TTGlyph>
    <TTGlyph name="afii10050" xMin="233" yMin="0" xMax="985" yMax="1559">
      <contour>
        <pt x="846" y="1559" on="1"/>
        <pt x="985" y="1559" on="1"/>
        <pt x="985" y="1151" on="1"/>
        <pt x="412" y="1151" on="1"/>
        <pt x="412" y="0" on="1"/>
        <pt x="233" y="0" on="1"/>
        <pt x="233" y="1307" on="1"/>
        <pt x="836" y="1307" on="1"/>
      </contour>
    </TTGlyph>
    <TTGlyph name="afii10051" xMin="4" yMin="-4" xMax="1087" yMax="1307">
      <contour>
        <pt x="426" y="846" on="1"/>
        <pt x="621" y="846" on="1"/>
        <pt x="719" y="846" on="0"/>
        <pt x="889" y="797" on="0"/>
        <pt x="1015" y="698" on="0"/>
        <pt x="1087" y="551" on="0"/>
        <pt x="1087" y="451" on="1"/>
        <pt x="1087" y="324" on="0"/>
        <pt x="1008" y="150" on="0"/>
        <pt x="879" y="43" on="0"/>
        <pt x="717" y="-4" on="0"/>
        <pt x="633" y="-2" on="1"/>
        <pt x="633" y="156" on="1"/>
        <pt x="684" y="154" on="0"/>
        <pt x="780" y="178" on="0"/>
        <pt x="854" y="245" on="0"/>
        <pt x="899" y="360" on="0"/>
        <pt x="899" y="449" on="1"/>
        <pt x="899" y="490" on="0"/>
        <pt x="870" y="578" on="0"/>
        <pt x="801" y="651" on="0"/>
        <pt x="689" y="698" on="0"/>
        <pt x="606" y="698" on="1"/>
        <pt x="426" y="698" on="1"/>
        <pt x="426" y="0" on="1"/>
        <pt x="246" y="0" on="1"/>
        <pt x="246" y="1155" on="1"/>
        <pt x="4" y="1155" on="1"/>
        <pt x="4" y="1307" on="1"/>
        <pt x="750" y="1307" on="1"/>
        <pt x="750" y="1155" on="1"/>
        <pt x="426" y="1155" on="1"/>
      </contour>
    </TTGlyph>
    <TTGlyph name="afii10052" xMin="0" yMin="0" xMax="985" yMax="1659">
      <component glyphName="afii10020" x="0" y="0" flags="0x204"/>
      <component glyphName="glyph00319" x="0" y="0" flags="0x4"/>
    </TTGlyph>
    <TTGlyph name="afii10053" xMin="90" yMin="-18" xMax="995" yMax="1325">
      <contour>
        <pt x="897" y="752" on="1"/>
        <pt x="897" y="602" on="1"/>
        <pt x="276" y="602" on="1"/>
        <pt x="286" y="369" on="0"/>
        <pt x="485" y="135" on="0"/>
        <pt x="686" y="135" on="1"/>
        <pt x="770" y="135" on="0"/>
        <pt x="924" y="174" on="0"/>
        <pt x="995" y="209" on="1"/>
        <pt x="995" y="47" on="1"/>
        <pt x="838" y="-18" on="0"/>
        <pt x="666" y="-18" on="1"/>
        <pt x="525" y="-18" on="0"/>
        <pt x="309" y="61" on="0"/>
        <pt x="161" y="226" on="0"/>
        <pt x="90" y="474" on="0"/>
        <pt x="90" y="639" on="1"/>
        <pt x="90" y="807" on="0"/>
        <pt x="170" y="1063" on="0"/>
        <pt x="321" y="1237" on="0"/>
        <pt x="538" y="1325" on="0"/>
        <pt x="676" y="1325" on="1"/>
        <pt x="767" y="1325" on="0"/>
        <pt x="923" y="1294" on="0"/>
        <pt x="995" y="1262" on="1"/>
        <pt x="995" y="1094" on="1"/>
        <pt x="924" y="1132" on="0"/>
        <pt x="772" y="1174" on="0"/>
        <pt x="682" y="1174" on="1"/>
        <pt x="590" y="1174" on="0"/>
        <pt x="449" y="1118" on="0"/>
        <pt x="348" y="1010" on="0"/>
        <pt x="287" y="853" on="0"/>
        <pt x="276" y="752" on="1"/>
      </contour>
    </TTGlyph>
    <TTGlyph name="afii10054" xMin="111" yMin="-18" xMax="997" yMax="1325">
      <component glyphName="S" x="0" y="0" flags="0x204"/>
    </TTGlyph>
    <TTGlyph name="afii10055" xMin="172" yMin="0" xMax="954" yMax="1307">
      <component glyphName="I" x="0" y="0" flags="0x204"/>
    </TTGlyph>
    <TTGlyph name="afii10056" xMin="0" yMin="0" xMax="954" yMax="1659">
      <component glyphName="I" x="0" y="0" flags="0x204"/>
      <component glyphName="glyph00328" x="0" y="0" flags="0x4"/>
    </TTGlyph>
    <TTGlyph name="afii10057" xMin="182" yMin="-14" xMax="877" yMax="1307">
      <component glyphName="J" x="0" y="0" flags="0x204"/>
    </TTGlyph>
    <TTGlyph name="afii10058" xMin="-14" yMin="-7" xMax="1118" yMax="1307">
      <contour>
        <pt x="758" y="774" on="1"/>
        <pt x="857" y="774" on="0"/>
        <pt x="994" y="717" on="0"/>
        <pt x="1080" y="615" on="0"/>
        <pt x="1118" y="475" on="0"/>
        <pt x="1118" y="393" on="1"/>
        <pt x="1118" y="195" on="0"/>
        <pt x="937" y="0" on="0"/>
        <pt x="760" y="0" on="1"/>
        <pt x="498" y="0" on="1"/>
        <pt x="498" y="1164" on="1"/>
        <pt x="373" y="1164" on="1"/>
        <pt x="363" y="962" on="0"/>
        <pt x="342" y="629" on="0"/>
        <pt x="309" y="358" on="0"/>
        <pt x="258" y="158" on="0"/>
        <pt x="188" y="41" on="0"/>
        <pt x="105" y="-7" on="0"/>
        <pt x="25" y="-7" on="0"/>
        <pt x="-14" y="6" on="1"/>
        <pt x="-6" y="147" on="1"/>
        <pt x="49" y="142" on="0"/>
        <pt x="124" y="270" on="0"/>
        <pt x="175" y="552" on="0"/>
        <pt x="207" y="996" on="0"/>
        <pt x="219" y="1307" on="1"/>
        <pt x="664" y="1307" on="1"/>
        <pt x="664" y="774" on="1"/>
      </contour>
      <contour>
        <pt x="944" y="387" on="1"/>
        <pt x="944" y="439" on="0"/>
        <pt x="928" y="528" on="0"/>
        <pt x="885" y="594" on="0"/>
        <pt x="810" y="631" on="0"/>
        <pt x="752" y="631" on="1"/>
        <pt x="664" y="631" on="1"/>
        <pt x="664" y="143" on="1"/>
        <pt x="760" y="143" on="1"/>
        <pt x="812" y="143" on="0"/>
        <pt x="883" y="177" on="0"/>
        <pt x="926" y="241" on="0"/>
        <pt x="944" y="331" on="0"/>
      </contour>
    </TTGlyph>
    <TTGlyph name="afii10059" xMin="82" yMin="0" xMax="1118" yMax="1307">
      <contour>
        <pt x="944" y="387" on="1"/>
        <pt x="944" y="444" on="0"/>
        <pt x="926" y="534" on="0"/>
        <pt x="883" y="597" on="0"/>
        <pt x="809" y="631" on="0"/>
        <pt x="752" y="631" on="1"/>
        <pt x="664" y="631" on="1"/>
        <pt x="664" y="143" on="1"/>
        <pt x="760" y="143" on="1"/>
        <pt x="812" y="143" on="0"/>
        <pt x="883" y="177" on="0"/>
        <pt x="926" y="241" on="0"/>
        <pt x="944" y="331" on="0"/>
      </contour>
      <contour>
        <pt x="498" y="1307" on="1"/>
        <pt x="664" y="1307" on="1"/>
        <pt x="664" y="774" on="1"/>
        <pt x="758" y="774" on="1"/>
        <pt x="857" y="774" on="0"/>
        <pt x="993" y="717" on="0"/>
        <pt x="1080" y="615" on="0"/>
        <pt x="1118" y="475" on="0"/>
        <pt x="1118" y="393" on="1"/>
        <pt x="1118" y="203" on="0"/>
        <pt x="940" y="0" on="0"/>
        <pt x="760" y="0" on="1"/>
        <pt x="498" y="0" on="1"/>
        <pt x="498" y="610" on="1"/>
        <pt x="248" y="610" on="1"/>
        <pt x="248" y="0" on="1"/>
        <pt x="82" y="0" on="1"/>
        <pt x="82" y="1307" on="1"/>
        <pt x="248" y="1307" on="1"/>
        <pt x="248" y="753" on="1"/>
        <pt x="498" y="753" on="1"/>
      </contour>
    </TTGlyph>
    <TTGlyph name="afii10060" xMin="4" yMin="0" xMax="1081" yMax="1307">
      <contour>
        <pt x="426" y="846" on="1"/>
        <pt x="633" y="846" on="1"/>
        <pt x="742" y="846" on="0"/>
        <pt x="909" y="798" on="0"/>
        <pt x="1023" y="693" on="0"/>
        <pt x="1081" y="529" on="0"/>
        <pt x="1081" y="412" on="1"/>
        <pt x="1081" y="0" on="1"/>
        <pt x="901" y="0" on="1"/>
        <pt x="901" y="397" on="1"/>
        <pt x="901" y="481" on="0"/>
        <pt x="871" y="596" on="0"/>
        <pt x="804" y="667" on="0"/>
        <pt x="694" y="698" on="0"/>
        <pt x="614" y="698" on="1"/>
        <pt x="426" y="698" on="1"/>
        <pt x="426" y="0" on="1"/>
        <pt x="246" y="0" on="1"/>
        <pt x="246" y="1155" on="1"/>
        <pt x="4" y="1155" on="1"/>
        <pt x="4" y="1307" on="1"/>
        <pt x="750" y="1307" on="1"/>
        <pt x="750" y="1155" on="1"/>
        <pt x="426" y="1155" on="1"/>
      </contour>
    </TTGlyph>
    <TTGlyph name="afii10061" xMin="0" yMin="0" xMax="1047" yMax="1659">
      <component glyphName="K" x="0" y="0" flags="0x204"/>
      <component glyphName="glyph00319" x="0" y="0" flags="0x4"/>
    </TTGlyph>
    <TTGlyph name="afii10062" xMin="0" yMin="-18" xMax="1075" yMax="1638">
      <component glyphName="afii10037" x="0" y="0" flags="0x204"/>
      <component glyphName="glyph00586" x="0" y="0" flags="0x4"/>
    </TTGlyph>
    <TTGlyph name="afii10065" xMin="133" yMin="-18" xMax="961" yMax="1022">
      <component glyphName="a" x="0" y="0" flags="0x204"/>
    </TTGlyph>
    <TTGlyph name="afii10066" xMin="125" yMin="-18" xMax="1036" yMax="1442">
      <contour>
        <pt x="858" y="481" on="1"/>
        <pt x="858" y="568" on="0"/>
        <pt x="819" y="697" on="0"/>
        <pt x="754" y="783" on="0"/>
        <pt x="670" y="825" on="0"/>
        <pt x="624" y="825" on="1"/>
        <pt x="577" y="825" on="0"/>
        <pt x="498" y="798" on="0"/>
        <pt x="422" y="745" on="0"/>
        <pt x="346" y="663" on="0"/>
        <pt x="303" y="604" on="1"/>
        <pt x="303" y="585" on="1"/>
        <pt x="303" y="449" on="0"/>
        <pt x="345" y="274" on="0"/>
        <pt x="417" y="172" on="0"/>
        <pt x="516" y="131" on="0"/>
        <pt x="575" y="131" on="1"/>
        <pt x="645" y="131" on="0"/>
        <pt x="751" y="190" on="0"/>
        <pt x="822" y="287" on="0"/>
        <pt x="858" y="413" on="0"/>
      </contour>
      <contour>
        <pt x="291" y="777" on="1"/>
        <pt x="361" y="875" on="0"/>
        <pt x="533" y="972" on="0"/>
        <pt x="641" y="972" on="1"/>
        <pt x="727" y="972" on="0"/>
        <pt x="872" y="909" on="0"/>
        <pt x="977" y="785" on="0"/>
        <pt x="1036" y="604" on="0"/>
        <pt x="1036" y="487" on="1"/>
        <pt x="1036" y="377" on="0"/>
        <pt x="967" y="191" on="0"/>
        <pt x="842" y="57" on="0"/>
        <pt x="669" y="-18" on="0"/>
        <pt x="565" y="-18" on="1"/>
        <pt x="456" y="-18" on="0"/>
        <pt x="291" y="57" on="0"/>
        <pt x="181" y="212" on="0"/>
        <pt x="125" y="449" on="0"/>
        <pt x="125" y="612" on="1"/>
        <pt x="125" y="812" on="0"/>
        <pt x="193" y="1092" on="0"/>
        <pt x="323" y="1277" on="0"/>
        <pt x="514" y="1380" on="0"/>
        <pt x="637" y="1403" on="1"/>
        <pt x="673" y="1410" on="0"/>
        <pt x="752" y="1419" on="0"/>
        <pt x="830" y="1428" on="0"/>
        <pt x="902" y="1436" on="0"/>
        <pt x="930" y="1442" on="1"/>
        <pt x="930" y="1282" on="1"/>
        <pt x="910" y="1277" on="0"/>
        <pt x="859" y="1271" on="0"/>
        <pt x="802" y="1265" on="0"/>
        <pt x="741" y="1259" on="0"/>
        <pt x="713" y="1255" on="1"/>
        <pt x="596" y="1240" on="0"/>
        <pt x="446" y="1172" on="0"/>
        <pt x="354" y="1055" on="0"/>
        <pt x="306" y="888" on="0"/>
      </contour>
    </TTGlyph>
    <TTGlyph name="afii10067" xMin="160" yMin="-16" xMax="1022" yMax="1022">
      <contour>
        <pt x="1022" y="293" on="1"/>
        <pt x="1022" y="224" on="0"/>
        <pt x="964" y="110" on="0"/>
        <pt x="842" y="29" on="0"/>
        <pt x="655" y="-16" on="0"/>
        <pt x="526" y="-16" on="1"/>
        <pt x="441" y="-16" on="0"/>
        <pt x="249" y="-3" on="0"/>
        <pt x="160" y="8" on="1"/>
        <pt x="160" y="999" on="1"/>
        <pt x="254" y="1010" on="0"/>
        <pt x="447" y="1022" on="0"/>
        <pt x="559" y="1022" on="1"/>
        <pt x="762" y="1022" on="0"/>
        <pt x="973" y="889" on="0"/>
        <pt x="973" y="764" on="1"/>
        <pt x="973" y="679" on="0"/>
        <pt x="875" y="557" on="0"/>
        <pt x="776" y="528" on="1"/>
        <pt x="824" y="520" on="0"/>
        <pt x="913" y="483" on="0"/>
        <pt x="981" y="424" on="0"/>
        <pt x="1022" y="344" on="0"/>
      </contour>
      <contour>
        <pt x="795" y="729" on="1"/>
        <pt x="795" y="764" on="0"/>
        <pt x="767" y="820" on="0"/>
        <pt x="706" y="860" on="0"/>
        <pt x="607" y="881" on="0"/>
        <pt x="537" y="881" on="1"/>
        <pt x="474" y="881" on="0"/>
        <pt x="380" y="876" on="0"/>
        <pt x="334" y="870" on="1"/>
        <pt x="334" y="580" on="1"/>
        <pt x="536" y="580" on="1"/>
        <pt x="795" y="580" on="0"/>
      </contour>
      <contour>
        <pt x="838" y="289" on="1"/>
        <pt x="838" y="367" on="0"/>
        <pt x="697" y="446" on="0"/>
        <pt x="548" y="446" on="1"/>
        <pt x="334" y="446" on="1"/>
        <pt x="334" y="139" on="1"/>
        <pt x="383" y="131" on="0"/>
        <pt x="479" y="125" on="0"/>
        <pt x="541" y="125" on="1"/>
        <pt x="630" y="125" on="0"/>
        <pt x="745" y="149" on="0"/>
        <pt x="812" y="193" on="0"/>
        <pt x="838" y="253" on="0"/>
      </contour>
    </TTGlyph>
    <TTGlyph name="afii10068" xMin="242" yMin="0" xMax="969" yMax="1004">
      <contour>
        <pt x="418" y="854" on="1"/>
        <pt x="418" y="0" on="1"/>
        <pt x="242" y="0" on="1"/>
        <pt x="242" y="1004" on="1"/>
        <pt x="969" y="1004" on="1"/>
        <pt x="969" y="854" on="1"/>
      </contour>
    </TTGlyph>
    <TTGlyph name="afii10069" xMin="23" yMin="-256" xMax="1092" yMax="1004">
      <contour>
        <pt x="774" y="854" on="1"/>
        <pt x="494" y="854" on="1"/>
        <pt x="484" y="682" on="0"/>
        <pt x="452" y="440" on="0"/>
        <pt x="409" y="276" on="0"/>
        <pt x="353" y="178" on="0"/>
        <pt x="319" y="150" on="1"/>
        <pt x="774" y="150" on="1"/>
      </contour>
      <contour>
        <pt x="1092" y="150" on="1"/>
        <pt x="1081" y="-256" on="1"/>
        <pt x="922" y="-256" on="1"/>
        <pt x="922" y="0" on="1"/>
        <pt x="190" y="0" on="1"/>
        <pt x="190" y="-256" on="1"/>
        <pt x="33" y="-256" on="1"/>
        <pt x="23" y="150" on="1"/>
        <pt x="37" y="150" on="1"/>
        <pt x="75" y="150" on="0"/>
        <pt x="143" y="174" on="0"/>
        <pt x="201" y="241" on="0"/>
        <pt x="250" y="360" on="0"/>
        <pt x="289" y="549" on="0"/>
        <pt x="318" y="819" on="0"/>
        <pt x="328" y="1004" on="1"/>
        <pt x="948" y="1004" on="1"/>
        <pt x="948" y="150" on="1"/>
      </contour>
    </TTGlyph>
    <TTGlyph name="afii10070" xMin="117" yMin="-18" xMax="1008" yMax="1022">
      <component glyphName="e" x="0" y="0" flags="0x204"/>
    </TTGlyph>
    <TTGlyph name="afii10071" xMin="0" yMin="-18" xMax="1008" yMax="1405">
      <component glyphName="e" x="0" y="0" flags="0x204"/>
      <component glyphName="dieresis" x="0" y="0" flags="0x4"/>
    </TTGlyph>
    <TTGlyph name="afii10072" xMin="-2" yMin="0" xMax="1128" yMax="1004">
      <contour>
        <pt x="6" y="1004" on="1"/>
        <pt x="178" y="1004" on="1"/>
        <pt x="483" y="520" on="1"/>
        <pt x="483" y="1004" on="1"/>
        <pt x="643" y="1004" on="1"/>
        <pt x="643" y="520" on="1"/>
        <pt x="948" y="1004" on="1"/>
        <pt x="1120" y="1004" on="1"/>
        <pt x="797" y="520" on="1"/>
        <pt x="1128" y="0" on="1"/>
        <pt x="938" y="0" on="1"/>
        <pt x="643" y="510" on="1"/>
        <pt x="643" y="0" on="1"/>
        <pt x="483" y="0" on="1"/>
        <pt x="483" y="510" on="1"/>
        <pt x="188" y="0" on="1"/>
        <pt x="-2" y="0" on="1"/>
        <pt x="330" y="520" on="1"/>
      </contour>
    </TTGlyph>
    <TTGlyph name="afii10073" xMin="133" yMin="-18" xMax="981" yMax="1022">
      <contour>
        <pt x="133" y="180" on="1"/>
        <pt x="177" y="168" on="0"/>
        <pt x="277" y="150" on="0"/>
        <pt x="375" y="136" on="0"/>
        <pt x="466" y="129" on="0"/>
        <pt x="502" y="129" on="1"/>
        <pt x="587" y="129" on="0"/>
        <pt x="700" y="151" on="0"/>
        <pt x="767" y="192" on="0"/>
        <pt x="795" y="251" on="0"/>
        <pt x="795" y="288" on="1"/>
        <pt x="795" y="324" on="0"/>
        <pt x="770" y="383" on="0"/>
        <pt x="705" y="427" on="0"/>
        <pt x="593" y="451" on="0"/>
        <pt x="506" y="451" on="1"/>
        <pt x="260" y="451" on="1"/>
        <pt x="260" y="586" on="1"/>
        <pt x="505" y="586" on="1"/>
        <pt x="581" y="586" on="0"/>
        <pt x="678" y="606" on="0"/>
        <pt x="734" y="644" on="0"/>
        <pt x="754" y="698" on="0"/>
        <pt x="754" y="733" on="1"/>
        <pt x="754" y="767" on="0"/>
        <pt x="729" y="820" on="0"/>
        <pt x="671" y="857" on="0"/>
        <pt x="575" y="877" on="0"/>
        <pt x="504" y="877" on="1"/>
        <pt x="426" y="877" on="0"/>
        <pt x="240" y="855" on="0"/>
        <pt x="147" y="834" on="1"/>
        <pt x="147" y="981" on="1"/>
        <pt x="188" y="990" on="0"/>
        <pt x="283" y="1006" on="0"/>
        <pt x="381" y="1016" on="0"/>
        <pt x="478" y="1022" on="0"/>
        <pt x="522" y="1022" on="1"/>
        <pt x="640" y="1022" on="0"/>
        <pt x="798" y="983" on="0"/>
        <pt x="894" y="913" on="0"/>
        <pt x="934" y="817" on="0"/>
        <pt x="934" y="760" on="1"/>
        <pt x="934" y="718" on="0"/>
        <pt x="910" y="643" on="0"/>
        <pt x="860" y="583" on="0"/>
        <pt x="783" y="541" on="0"/>
        <pt x="729" y="532" on="1"/>
        <pt x="783" y="524" on="0"/>
        <pt x="875" y="487" on="0"/>
        <pt x="942" y="426" on="0"/>
        <pt x="981" y="342" on="0"/>
        <pt x="981" y="288" on="1"/>
        <pt x="981" y="222" on="0"/>
        <pt x="930" y="109" on="0"/>
        <pt x="814" y="28" on="0"/>
        <pt x="624" y="-18" on="0"/>
        <pt x="486" y="-18" on="1"/>
        <pt x="449" y="-18" on="0"/>
        <pt x="360" y="-13" on="0"/>
        <pt x="265" y="-4" on="0"/>
        <pt x="173" y="9" on="0"/>
        <pt x="133" y="18" on="1"/>
      </contour>
    </TTGlyph>
    <TTGlyph name="afii10074" xMin="174" yMin="0" xMax="952" yMax="1004">
      <contour>
        <pt x="348" y="1004" on="1"/>
        <pt x="348" y="297" on="1"/>
        <pt x="786" y="1004" on="1"/>
        <pt x="952" y="1004" on="1"/>
        <pt x="952" y="0" on="1"/>
        <pt x="778" y="0" on="1"/>
        <pt x="778" y="707" on="1"/>
        <pt x="340" y="0" on="1"/>
        <pt x="174" y="0" on="1"/>
        <pt x="174" y="1004" on="1"/>
      </contour>
    </TTGlyph>
    <TTGlyph name="afii10075" xMin="0" yMin="0" xMax="952" yMax="1391">
      <component glyphName="afii10074" x="0" y="0" flags="0x204"/>
      <component glyphName="glyph00585" x="0" y="0" flags="0x4"/>
    </TTGlyph>
    <TTGlyph name="afii10076" xMin="182" yMin="0" xMax="1063" yMax="1004">
      <component glyphName="kappa" x="0" y="0" flags="0x204"/>
    </TTGlyph>
    <TTGlyph name="afii10077" xMin="33" yMin="-7" xMax="958" yMax="1004">
      <contour>
        <pt x="958" y="0" on="1"/>
        <pt x="784" y="0" on="1"/>
        <pt x="784" y="854" on="1"/>
        <pt x="504" y="854" on="1"/>
        <pt x="492" y="648" on="0"/>
        <pt x="445" y="354" on="0"/>
        <pt x="379" y="157" on="0"/>
        <pt x="295" y="44" on="0"/>
        <pt x="198" y="-7" on="0"/>
        <pt x="90" y="-6" on="0"/>
        <pt x="33" y="8" on="1"/>
        <pt x="41" y="152" on="1"/>
        <pt x="81" y="148" on="0"/>
        <pt x="151" y="164" on="0"/>
        <pt x="211" y="225" on="0"/>
        <pt x="260" y="340" on="0"/>
        <pt x="300" y="532" on="0"/>
        <pt x="329" y="811" on="0"/>
        <pt x="338" y="1004" on="1"/>
        <pt x="958" y="1004" on="1"/>
      </contour>
    </TTGlyph>
    <TTGlyph name="afii10078" xMin="49" yMin="0" xMax="1077" yMax="1004">
      <contour>
        <pt x="1077" y="0" on="1"/>
        <pt x="905" y="0" on="1"/>
        <pt x="879" y="627" on="1"/>
        <pt x="868" y="850" on="1"/>
        <pt x="809" y="694" on="1"/>
        <pt x="621" y="238" on="1"/>
        <pt x="494" y="238" on="1"/>
        <pt x="313" y="676" on="1"/>
        <pt x="250" y="850" on="1"/>
        <pt x="242" y="614" on="1"/>
        <pt x="215" y="0" on="1"/>
        <pt x="49" y="0" on="1"/>
        <pt x="113" y="1004" on="1"/>
        <pt x="344" y="1004" on="1"/>
        <pt x="516" y="571" on="1"/>
        <pt x="563" y="442" on="1"/>
        <pt x="610" y="571" on="1"/>
        <pt x="786" y="1004" on="1"/>
        <pt x="1014" y="1004" on="1"/>
      </contour>
    </TTGlyph>
    <TTGlyph name="afii10079" xMin="160" yMin="0" xMax="967" yMax="1004">
      <contour>
        <pt x="967" y="0" on="1"/>
        <pt x="793" y="0" on="1"/>
        <pt x="793" y="444" on="1"/>
        <pt x="334" y="444" on="1"/>
        <pt x="334" y="0" on="1"/>
        <pt x="160" y="0" on="1"/>
        <pt x="160" y="1004" on="1"/>
        <pt x="334" y="1004" on="1"/>
        <pt x="334" y="596" on="1"/>
        <pt x="793" y="596" on="1"/>
        <pt x="793" y="1004" on="1"/>
        <pt x="967" y="1004" on="1"/>
      </contour>
    </TTGlyph>
    <TTGlyph name="afii10080" xMin="92" yMin="-18" xMax="1034" yMax="1022">
      <component glyphName="o" x="0" y="0" flags="0x204"/>
    </TTGlyph>
    <TTGlyph name="afii10081" xMin="160" yMin="0" xMax="967" yMax="1004">
      <contour>
        <pt x="967" y="0" on="1"/>
        <pt x="793" y="0" on="1"/>
        <pt x="793" y="852" on="1"/>
        <pt x="334" y="852" on="1"/>
        <pt x="334" y="0" on="1"/>
        <pt x="160" y="0" on="1"/>
        <pt x="160" y="1004" on="1"/>
        <pt x="967" y="1004" on="1"/>
      </contour>
    </TTGlyph>
    <TTGlyph name="afii10082" xMin="160" yMin="-410" xMax="1018" yMax="1022">
      <component glyphName="p" x="0" y="0" flags="0x204"/>
    </TTGlyph>
    <TTGlyph name="afii10083" xMin="158" yMin="-14" xMax="940" yMax="1018">
      <component glyphName="c" x="0" y="0" flags="0x204"/>
    </TTGlyph>
    <TTGlyph name="afii10084" xMin="94" yMin="0" xMax="1032" yMax="1004">
      <contour>
        <pt x="1032" y="854" on="1"/>
        <pt x="651" y="854" on="1"/>
        <pt x="651" y="0" on="1"/>
        <pt x="475" y="0" on="1"/>
        <pt x="475" y="854" on="1"/>
        <pt x="94" y="854" on="1"/>
        <pt x="94" y="1004" on="1"/>
        <pt x="1032" y="1004" on="1"/>
      </contour>
    </TTGlyph>
    <TTGlyph name="afii10085" xMin="59" yMin="-416" xMax="1053" yMax="1004">
      <component glyphName="y" x="0" y="0" flags="0x204"/>
    </TTGlyph>
    <TTGlyph name="afii10086" xMin="41" yMin="-410" xMax="1087" yMax="1413">
      <contour>
        <pt x="645" y="-410" on="1"/>
        <pt x="481" y="-410" on="1"/>
        <pt x="481" y="-14" on="1"/>
        <pt x="260" y="-2" on="0"/>
        <pt x="41" y="240" on="0"/>
        <pt x="41" y="498" on="1"/>
        <pt x="41" y="627" on="0"/>
        <pt x="105" y="814" on="0"/>
        <pt x="221" y="939" on="0"/>
        <pt x="383" y="1007" on="0"/>
        <pt x="481" y="1018" on="1"/>
        <pt x="481" y="1413" on="1"/>
        <pt x="645" y="1413" on="1"/>
        <pt x="645" y="1020" on="1"/>
        <pt x="755" y="1012" on="0"/>
        <pt x="920" y="949" on="0"/>
        <pt x="1031" y="828" on="0"/>
        <pt x="1087" y="641" on="0"/>
        <pt x="1087" y="510" on="1"/>
        <pt x="1087" y="375" on="0"/>
        <pt x="1018" y="185" on="0"/>
        <pt x="898" y="62" on="0"/>
        <pt x="737" y="-2" on="0"/>
        <pt x="645" y="-12" on="1"/>
      </contour>
      <contour>
        <pt x="481" y="877" on="1"/>
        <pt x="412" y="867" on="0"/>
        <pt x="306" y="806" on="0"/>
        <pt x="242" y="706" on="0"/>
        <pt x="215" y="578" on="0"/>
        <pt x="215" y="506" on="1"/>
        <pt x="215" y="417" on="0"/>
        <pt x="245" y="285" on="0"/>
        <pt x="310" y="192" on="0"/>
        <pt x="410" y="138" on="0"/>
        <pt x="481" y="129" on="1"/>
      </contour>
      <contour>
        <pt x="645" y="129" on="1"/>
        <pt x="714" y="139" on="0"/>
        <pt x="818" y="199" on="0"/>
        <pt x="882" y="297" on="0"/>
        <pt x="913" y="425" on="0"/>
        <pt x="913" y="500" on="1"/>
        <pt x="913" y="597" on="0"/>
        <pt x="878" y="733" on="0"/>
        <pt x="810" y="822" on="0"/>
        <pt x="710" y="868" on="0"/>
        <pt x="645" y="877" on="1"/>
      </contour>
    </TTGlyph>
    <TTGlyph name="afii10087" xMin="70" yMin="0" xMax="1065" yMax="1004">
      <component glyphName="x" x="0" y="0" flags="0x204"/>
    </TTGlyph>
    <TTGlyph name="afii10088" xMin="152" yMin="-256" xMax="1079" yMax="1004">
      <contour>
        <pt x="1079" y="150" on="1"/>
        <pt x="1069" y="-256" on="1"/>
        <pt x="911" y="-256" on="1"/>
        <pt x="911" y="0" on="1"/>
        <pt x="152" y="0" on="1"/>
        <pt x="152" y="1004" on="1"/>
        <pt x="326" y="1004" on="1"/>
        <pt x="326" y="150" on="1"/>
        <pt x="784" y="150" on="1"/>
        <pt x="784" y="1004" on="1"/>
        <pt x="958" y="1004" on="1"/>
        <pt x="958" y="150" on="1"/>
      </contour>
    </TTGlyph>
    <TTGlyph name="afii10089" xMin="135" yMin="0" xMax="967" yMax="1004">
      <contour>
        <pt x="793" y="389" on="1"/>
        <pt x="586" y="389" on="1"/>
        <pt x="353" y="389" on="0"/>
        <pt x="135" y="563" on="0"/>
        <pt x="135" y="729" on="1"/>
        <pt x="135" y="1004" on="1"/>
        <pt x="311" y="1004" on="1"/>
        <pt x="311" y="752" on="1"/>
        <pt x="311" y="692" on="0"/>
        <pt x="343" y="610" on="0"/>
        <pt x="414" y="559" on="0"/>
        <pt x="525" y="537" on="0"/>
        <pt x="604" y="537" on="1"/>
        <pt x="793" y="537" on="1"/>
        <pt x="793" y="1004" on="1"/>
        <pt x="967" y="1004" on="1"/>
        <pt x="967" y="0" on="1"/>
        <pt x="793" y="0" on="1"/>
      </contour>
    </TTGlyph>
    <TTGlyph name="afii10090" xMin="90" yMin="0" xMax="1036" yMax="1004">
      <contour>
        <pt x="90" y="1004" on="1"/>
        <pt x="250" y="1004" on="1"/>
        <pt x="250" y="143" on="1"/>
        <pt x="483" y="143" on="1"/>
        <pt x="483" y="1004" on="1"/>
        <pt x="643" y="1004" on="1"/>
        <pt x="643" y="143" on="1"/>
        <pt x="876" y="143" on="1"/>
        <pt x="876" y="1004" on="1"/>
        <pt x="1036" y="1004" on="1"/>
        <pt x="1036" y="0" on="1"/>
        <pt x="90" y="0" on="1"/>
      </contour>
    </TTGlyph>
    <TTGlyph name="afii10091" xMin="76" yMin="-256" xMax="1108" yMax="1004">
      <contour>
        <pt x="76" y="0" on="1"/>
        <pt x="76" y="1004" on="1"/>
        <pt x="236" y="1004" on="1"/>
        <pt x="236" y="143" on="1"/>
        <pt x="469" y="143" on="1"/>
        <pt x="469" y="1004" on="1"/>
        <pt x="629" y="1004" on="1"/>
        <pt x="629" y="143" on="1"/>
        <pt x="862" y="143" on="1"/>
        <pt x="862" y="1004" on="1"/>
        <pt x="1022" y="1004" on="1"/>
        <pt x="1022" y="143" on="1"/>
        <pt x="1108" y="143" on="1"/>
        <pt x="1098" y="-256" on="1"/>
        <pt x="944" y="-256" on="1"/>
        <pt x="944" y="0" on="1"/>
      </contour>
    </TTGlyph>
    <TTGlyph name="afii10092" xMin="35" yMin="-12" xMax="1038" yMax="1004">
      <contour>
        <pt x="860" y="313" on="1"/>
        <pt x="860" y="401" on="0"/>
        <pt x="727" y="483" on="0"/>
        <pt x="592" y="483" on="1"/>
        <pt x="549" y="483" on="0"/>
        <pt x="456" y="481" on="0"/>
        <pt x="416" y="479" on="1"/>
        <pt x="416" y="142" on="1"/>
        <pt x="456" y="137" on="0"/>
        <pt x="546" y="134" on="0"/>
        <pt x="588" y="134" on="1"/>
        <pt x="655" y="134" on="0"/>
        <pt x="757" y="151" on="0"/>
        <pt x="826" y="193" on="0"/>
        <pt x="860" y="262" on="0"/>
      </contour>
      <contour>
        <pt x="416" y="625" on="1"/>
        <pt x="456" y="627" on="0"/>
        <pt x="550" y="629" on="0"/>
        <pt x="597" y="629" on="1"/>
        <pt x="815" y="629" on="0"/>
        <pt x="1038" y="471" on="0"/>
        <pt x="1038" y="315" on="1"/>
        <pt x="1038" y="230" on="0"/>
        <pt x="974" y="106" on="0"/>
        <pt x="854" y="26" on="0"/>
        <pt x="685" y="-12" on="0"/>
        <pt x="580" y="-12" on="1"/>
        <pt x="487" y="-12" on="0"/>
        <pt x="316" y="-3" on="0"/>
        <pt x="242" y="8" on="1"/>
        <pt x="242" y="858" on="1"/>
        <pt x="35" y="858" on="1"/>
        <pt x="35" y="1004" on="1"/>
        <pt x="416" y="1004" on="1"/>
      </contour>
    </TTGlyph>
    <TTGlyph name="afii10093" xMin="82" yMin="-12" xMax="1044" yMax="1004">
      <contour>
        <pt x="872" y="0" on="1"/>
        <pt x="872" y="1004" on="1"/>
        <pt x="1044" y="1004" on="1"/>
        <pt x="1044" y="0" on="1"/>
      </contour>
      <contour>
        <pt x="582" y="308" on="1"/>
        <pt x="582" y="387" on="0"/>
        <pt x="483" y="474" on="0"/>
        <pt x="375" y="474" on="1"/>
        <pt x="346" y="474" on="0"/>
        <pt x="286" y="472" on="0"/>
        <pt x="254" y="470" on="1"/>
        <pt x="254" y="140" on="1"/>
        <pt x="286" y="135" on="0"/>
        <pt x="344" y="132" on="0"/>
        <pt x="373" y="132" on="1"/>
        <pt x="434" y="132" on="0"/>
        <pt x="514" y="161" on="0"/>
        <pt x="561" y="209" on="0"/>
        <pt x="582" y="273" on="0"/>
      </contour>
      <contour>
        <pt x="254" y="616" on="1"/>
        <pt x="290" y="617" on="0"/>
        <pt x="353" y="618" on="0"/>
        <pt x="387" y="618" on="1"/>
        <pt x="481" y="618" on="0"/>
        <pt x="622" y="573" on="0"/>
        <pt x="716" y="492" on="0"/>
        <pt x="762" y="379" on="0"/>
        <pt x="762" y="313" on="1"/>
        <pt x="762" y="233" on="0"/>
        <pt x="708" y="112" on="0"/>
        <pt x="608" y="30" on="0"/>
        <pt x="463" y="-12" on="0"/>
        <pt x="363" y="-12" on="1"/>
        <pt x="299" y="-12" on="0"/>
        <pt x="156" y="-5" on="0"/>
        <pt x="82" y="6" on="1"/>
        <pt x="82" y="1004" on="1"/>
        <pt x="254" y="1004" on="1"/>
      </contour>
    </TTGlyph>
    <TTGlyph name="afii10094" xMin="166" yMin="-12" xMax="1016" yMax="1004">
      <contour>
        <pt x="836" y="313" on="1"/>
        <pt x="836" y="355" on="0"/>
        <pt x="805" y="418" on="0"/>
        <pt x="737" y="461" on="0"/>
        <pt x="629" y="483" on="0"/>
        <pt x="553" y="483" on="1"/>
        <pt x="505" y="483" on="0"/>
        <pt x="391" y="481" on="0"/>
        <pt x="340" y="479" on="1"/>
        <pt x="340" y="144" on="1"/>
        <pt x="391" y="139" on="0"/>
        <pt x="486" y="134" on="0"/>
        <pt x="543" y="134" on="1"/>
        <pt x="627" y="134" on="0"/>
        <pt x="739" y="155" on="0"/>
        <pt x="807" y="198" on="0"/>
        <pt x="836" y="266" on="0"/>
      </contour>
      <contour>
        <pt x="340" y="625" on="1"/>
        <pt x="365" y="626" on="0"/>
        <pt x="415" y="627" on="0"/>
        <pt x="467" y="628" on="0"/>
        <pt x="525" y="629" on="0"/>
        <pt x="559" y="629" on="1"/>
        <pt x="791" y="629" on="0"/>
        <pt x="1016" y="470" on="0"/>
        <pt x="1016" y="317" on="1"/>
        <pt x="1016" y="153" on="0"/>
        <pt x="778" y="-12" on="0"/>
        <pt x="537" y="-12" on="1"/>
        <pt x="428" y="-12" on="0"/>
        <pt x="251" y="-3" on="0"/>
        <pt x="166" y="8" on="1"/>
        <pt x="166" y="1004" on="1"/>
        <pt x="340" y="1004" on="1"/>
      </contour>
    </TTGlyph>
    <TTGlyph name="afii10095" xMin="156" yMin="-18" xMax="997" yMax="1022">
      <contour>
        <pt x="811" y="580" on="1"/>
        <pt x="804" y="651" on="0"/>
        <pt x="749" y="773" on="0"/>
        <pt x="658" y="847" on="0"/>
        <pt x="528" y="879" on="0"/>
        <pt x="455" y="879" on="1"/>
        <pt x="374" y="879" on="0"/>
        <pt x="224" y="847" on="0"/>
        <pt x="156" y="815" on="1"/>
        <pt x="156" y="971" on="1"/>
        <pt x="230" y="997" on="0"/>
        <pt x="389" y="1022" on="0"/>
        <pt x="473" y="1022" on="1"/>
        <pt x="603" y="1022" on="0"/>
        <pt x="800" y="954" on="0"/>
        <pt x="931" y="823" on="0"/>
        <pt x="997" y="632" on="0"/>
        <pt x="997" y="508" on="1"/>
        <pt x="997" y="379" on="0"/>
        <pt x="928" y="181" on="0"/>
        <pt x="790" y="47" on="0"/>
        <pt x="592" y="-18" on="0"/>
        <pt x="465" y="-18" on="1"/>
        <pt x="377" y="-18" on="0"/>
        <pt x="224" y="4" on="0"/>
        <pt x="156" y="29" on="1"/>
        <pt x="156" y="190" on="1"/>
        <pt x="227" y="156" on="0"/>
        <pt x="378" y="125" on="0"/>
        <pt x="457" y="125" on="1"/>
        <pt x="630" y="125" on="0"/>
        <pt x="804" y="287" on="0"/>
        <pt x="815" y="442" on="1"/>
        <pt x="215" y="442" on="1"/>
        <pt x="215" y="580" on="1"/>
      </contour>
    </TTGlyph>
    <TTGlyph name="afii10096" xMin="84" yMin="-18" xMax="1087" yMax="1022">
      <contour>
        <pt x="430" y="580" on="1"/>
        <pt x="436" y="697" on="0"/>
        <pt x="481" y="864" on="0"/>
        <pt x="565" y="971" on="0"/>
        <pt x="687" y="1022" on="0"/>
        <pt x="768" y="1022" on="1"/>
        <pt x="859" y="1022" on="0"/>
        <pt x="981" y="961" on="0"/>
        <pt x="1055" y="835" on="0"/>
        <pt x="1087" y="641" on="0"/>
        <pt x="1087" y="508" on="1"/>
        <pt x="1087" y="238" on="0"/>
        <pt x="927" y="-18" on="0"/>
        <pt x="748" y="-18" on="1"/>
        <pt x="653" y="-18" on="0"/>
        <pt x="531" y="46" on="0"/>
        <pt x="459" y="168" on="0"/>
        <pt x="431" y="342" on="0"/>
        <pt x="430" y="453" on="1"/>
        <pt x="248" y="453" on="1"/>
        <pt x="248" y="0" on="1"/>
        <pt x="84" y="0" on="1"/>
        <pt x="84" y="1004" on="1"/>
        <pt x="248" y="1004" on="1"/>
        <pt x="248" y="580" on="1"/>
      </contour>
      <contour>
        <pt x="922" y="502" on="1"/>
        <pt x="922" y="710" on="0"/>
        <pt x="850" y="887" on="0"/>
        <pt x="758" y="887" on="1"/>
        <pt x="717" y="887" on="0"/>
        <pt x="656" y="849" on="0"/>
        <pt x="615" y="759" on="0"/>
        <pt x="594" y="611" on="0"/>
        <pt x="594" y="502" on="1"/>
        <pt x="594" y="383" on="0"/>
        <pt x="615" y="234" on="0"/>
        <pt x="657" y="148" on="0"/>
        <pt x="718" y="117" on="0"/>
        <pt x="758" y="117" on="1"/>
        <pt x="801" y="117" on="0"/>
        <pt x="863" y="155" on="0"/>
        <pt x="903" y="245" on="0"/>
        <pt x="922" y="393" on="0"/>
      </contour>
    </TTGlyph>
    <TTGlyph name="afii10097" xMin="86" yMin="0" xMax="954" yMax="1018">
      <contour>
        <pt x="223" y="290" on="1"/>
        <pt x="256" y="360" on="0"/>
        <pt x="335" y="432" on="0"/>
        <pt x="395" y="444" on="1"/>
        <pt x="332" y="456" on="0"/>
        <pt x="250" y="510" on="0"/>
        <pt x="201" y="581" on="0"/>
        <pt x="182" y="661" on="0"/>
        <pt x="182" y="700" on="1"/>
        <pt x="182" y="766" on="0"/>
        <pt x="226" y="882" on="0"/>
        <pt x="324" y="968" on="0"/>
        <pt x="483" y="1018" on="0"/>
        <pt x="631" y="1018" on="1"/>
        <pt x="714" y="1018" on="0"/>
        <pt x="876" y="1007" on="0"/>
        <pt x="954" y="999" on="1"/>
        <pt x="954" y="0" on="1"/>
        <pt x="780" y="0" on="1"/>
        <pt x="780" y="389" on="1"/>
        <pt x="629" y="389" on="1"/>
        <pt x="594" y="389" on="0"/>
        <pt x="521" y="376" on="0"/>
        <pt x="461" y="341" on="0"/>
        <pt x="412" y="285" on="0"/>
        <pt x="393" y="242" on="1"/>
        <pt x="283" y="0" on="1"/>
        <pt x="86" y="0" on="1"/>
      </contour>
      <contour>
        <pt x="360" y="702" on="1"/>
        <pt x="360" y="616" on="0"/>
        <pt x="477" y="530" on="0"/>
        <pt x="592" y="530" on="1"/>
        <pt x="780" y="530" on="1"/>
        <pt x="780" y="866" on="1"/>
        <pt x="737" y="870" on="0"/>
        <pt x="657" y="874" on="0"/>
        <pt x="613" y="874" on="1"/>
        <pt x="527" y="874" on="0"/>
        <pt x="437" y="851" on="0"/>
        <pt x="385" y="808" on="0"/>
        <pt x="360" y="746" on="0"/>
      </contour>
    </TTGlyph>
    <TTGlyph name="afii10098" xMin="242" yMin="0" xMax="969" yMax="1262">
      <contour>
        <pt x="846" y="1262" on="1"/>
        <pt x="969" y="1262" on="1"/>
        <pt x="969" y="854" on="1"/>
        <pt x="418" y="854" on="1"/>
        <pt x="418" y="0" on="1"/>
        <pt x="242" y="0" on="1"/>
        <pt x="242" y="1004" on="1"/>
        <pt x="834" y="1004" on="1"/>
      </contour>
    </TTGlyph>
    <TTGlyph name="afii10099" xMin="0" yMin="-420" xMax="989" yMax="1413">
      <contour>
        <pt x="649" y="1280" on="1"/>
        <pt x="649" y="1139" on="1"/>
        <pt x="334" y="1139" on="1"/>
        <pt x="334" y="963" on="1"/>
        <pt x="328" y="799" on="1"/>
        <pt x="366" y="844" on="0"/>
        <pt x="441" y="911" on="0"/>
        <pt x="519" y="954" on="0"/>
        <pt x="604" y="975" on="0"/>
        <pt x="653" y="975" on="1"/>
        <pt x="733" y="975" on="0"/>
        <pt x="858" y="918" on="0"/>
        <pt x="944" y="778" on="0"/>
        <pt x="989" y="539" on="0"/>
        <pt x="989" y="360" on="1"/>
        <pt x="989" y="358" on="1"/>
        <pt x="989" y="184" on="0"/>
        <pt x="963" y="-67" on="0"/>
        <pt x="912" y="-239" on="0"/>
        <pt x="838" y="-345" on="0"/>
        <pt x="744" y="-401" on="0"/>
        <pt x="630" y="-420" on="0"/>
        <pt x="565" y="-420" on="1"/>
        <pt x="565" y="-270" on="1"/>
        <pt x="604" y="-270" on="0"/>
        <pt x="671" y="-259" on="0"/>
        <pt x="727" y="-219" on="0"/>
        <pt x="770" y="-139" on="0"/>
        <pt x="800" y="1" on="0"/>
        <pt x="815" y="209" on="0"/>
        <pt x="815" y="358" on="1"/>
        <pt x="815" y="360" on="1"/>
        <pt x="815" y="492" on="0"/>
        <pt x="792" y="671" on="0"/>
        <pt x="746" y="779" on="0"/>
        <pt x="674" y="825" on="0"/>
        <pt x="625" y="825" on="1"/>
        <pt x="590" y="825" on="0"/>
        <pt x="529" y="806" on="0"/>
        <pt x="463" y="759" on="0"/>
        <pt x="385" y="679" on="0"/>
        <pt x="334" y="618" on="1"/>
        <pt x="334" y="0" on="1"/>
        <pt x="160" y="0" on="1"/>
        <pt x="160" y="1139" on="1"/>
        <pt x="0" y="1139" on="1"/>
        <pt x="0" y="1280" on="1"/>
        <pt x="160" y="1280" on="1"/>
        <pt x="160" y="1413" on="1"/>
        <pt x="334" y="1413" on="1"/>
        <pt x="334" y="1280" on="1"/>
      </contour>
      <contour>
        <pt x="0" y="1022" on="1"/>
      </contour>
    </TTGlyph>
    <TTGlyph name="afii10100" xMin="0" yMin="0" xMax="969" yMax="1413">
      <component glyphName="afii10068" x="0" y="0" flags="0x204"/>
      <component glyphName="acute" x="0" y="0" flags="0x4"/>
    </TTGlyph>
    <TTGlyph name="afii10101" xMin="158" yMin="-18" xMax="999" yMax="1022">
      <contour>
        <pt x="940" y="580" on="1"/>
        <pt x="940" y="442" on="1"/>
        <pt x="340" y="442" on="1"/>
        <pt x="350" y="283" on="0"/>
        <pt x="524" y="125" on="0"/>
        <pt x="707" y="125" on="1"/>
        <pt x="865" y="125" on="0"/>
        <pt x="999" y="188" on="1"/>
        <pt x="999" y="33" on="1"/>
        <pt x="927" y="7" on="0"/>
        <pt x="772" y="-18" on="0"/>
        <pt x="690" y="-18" on="1"/>
        <pt x="418" y="-18" on="0"/>
        <pt x="158" y="237" on="0"/>
        <pt x="158" y="492" on="1"/>
        <pt x="158" y="623" on="0"/>
        <pt x="233" y="822" on="0"/>
        <pt x="373" y="955" on="0"/>
        <pt x="573" y="1022" on="0"/>
        <pt x="698" y="1022" on="1"/>
        <pt x="786" y="1022" on="0"/>
        <pt x="933" y="1000" on="0"/>
        <pt x="999" y="975" on="1"/>
        <pt x="999" y="813" on="1"/>
        <pt x="928" y="847" on="0"/>
        <pt x="778" y="879" on="0"/>
        <pt x="694" y="879" on="1"/>
        <pt x="618" y="879" on="0"/>
        <pt x="493" y="842" on="0"/>
        <pt x="401" y="767" on="0"/>
        <pt x="346" y="651" on="0"/>
        <pt x="340" y="580" on="1"/>
      </contour>
    </TTGlyph>
    <TTGlyph name="afii10102" xMin="182" yMin="-18" xMax="955" yMax="1022">
      <component glyphName="s" x="0" y="0" flags="0x204"/>
    </TTGlyph>
    <TTGlyph name="afii10103" xMin="172" yMin="0" xMax="977" yMax="1425">
      <component glyphName="i" x="0" y="0" flags="0x204"/>
    </TTGlyph>
    <TTGlyph name="afii10104" xMin="0" yMin="0" xMax="977" yMax="1405">
      <component glyphName="dotlessi" x="0" y="0" flags="0x204"/>
      <component glyphName="dieresis" x="0" y="0" flags="0x4"/>
    </TTGlyph>
    <TTGlyph name="afii10105" xMin="131" yMin="-420" xMax="872" yMax="1425">
      <component glyphName="j" x="0" y="0" flags="0x204"/>
    </TTGlyph>
    <TTGlyph name="afii10106" xMin="0" yMin="-14" xMax="1118" yMax="1004">
      <contour>
        <pt x="944" y="309" on="1"/>
        <pt x="944" y="340" on="0"/>
        <pt x="930" y="401" on="0"/>
        <pt x="887" y="456" on="0"/>
        <pt x="813" y="481" on="0"/>
        <pt x="762" y="481" on="1"/>
        <pt x="734" y="481" on="0"/>
        <pt x="692" y="479" on="0"/>
        <pt x="662" y="477" on="1"/>
        <pt x="662" y="135" on="1"/>
        <pt x="692" y="130" on="0"/>
        <pt x="732" y="127" on="0"/>
        <pt x="760" y="127" on="1"/>
        <pt x="814" y="127" on="0"/>
        <pt x="885" y="155" on="0"/>
        <pt x="927" y="203" on="0"/>
        <pt x="944" y="270" on="0"/>
      </contour>
      <contour>
        <pt x="662" y="618" on="1"/>
        <pt x="691" y="620" on="0"/>
        <pt x="745" y="623" on="0"/>
        <pt x="774" y="623" on="1"/>
        <pt x="865" y="623" on="0"/>
        <pt x="995" y="576" on="0"/>
        <pt x="1079" y="494" on="0"/>
        <pt x="1118" y="380" on="0"/>
        <pt x="1118" y="312" on="1"/>
        <pt x="1118" y="160" on="0"/>
        <pt x="941" y="-14" on="0"/>
        <pt x="768" y="-14" on="1"/>
        <pt x="702" y="-14" on="0"/>
        <pt x="569" y="-5" on="0"/>
        <pt x="498" y="6" on="1"/>
        <pt x="498" y="856" on="1"/>
        <pt x="365" y="856" on="1"/>
        <pt x="355" y="654" on="0"/>
        <pt x="325" y="364" on="0"/>
        <pt x="284" y="167" on="0"/>
        <pt x="228" y="53" on="0"/>
        <pt x="153" y="-1" on="0"/>
        <pt x="59" y="-6" on="0"/>
        <pt x="0" y="6" on="1"/>
        <pt x="8" y="152" on="1"/>
        <pt x="39" y="149" on="0"/>
        <pt x="88" y="164" on="0"/>
        <pt x="126" y="223" on="0"/>
        <pt x="155" y="336" on="0"/>
        <pt x="179" y="527" on="0"/>
        <pt x="199" y="808" on="0"/>
        <pt x="209" y="1004" on="1"/>
        <pt x="662" y="1004" on="1"/>
      </contour>
    </TTGlyph>
    <TTGlyph name="afii10107" xMin="90" yMin="-14" xMax="1118" yMax="1004">
      <contour>
        <pt x="944" y="309" on="1"/>
        <pt x="944" y="348" on="0"/>
        <pt x="926" y="412" on="0"/>
        <pt x="883" y="456" on="0"/>
        <pt x="813" y="480" on="0"/>
        <pt x="762" y="480" on="1"/>
        <pt x="734" y="480" on="0"/>
        <pt x="692" y="478" on="0"/>
        <pt x="662" y="476" on="1"/>
        <pt x="662" y="137" on="1"/>
        <pt x="692" y="132" on="0"/>
        <pt x="732" y="129" on="0"/>
        <pt x="760" y="129" on="1"/>
        <pt x="817" y="129" on="0"/>
        <pt x="888" y="159" on="0"/>
        <pt x="929" y="208" on="0"/>
        <pt x="944" y="274" on="0"/>
      </contour>
      <contour>
        <pt x="498" y="1004" on="1"/>
        <pt x="662" y="1004" on="1"/>
        <pt x="662" y="618" on="1"/>
        <pt x="691" y="620" on="0"/>
        <pt x="745" y="623" on="0"/>
        <pt x="774" y="623" on="1"/>
        <pt x="865" y="623" on="0"/>
        <pt x="995" y="578" on="0"/>
        <pt x="1079" y="496" on="0"/>
        <pt x="1118" y="382" on="0"/>
        <pt x="1118" y="313" on="1"/>
        <pt x="1118" y="160" on="0"/>
        <pt x="941" y="-14" on="0"/>
        <pt x="768" y="-14" on="1"/>
        <pt x="702" y="-14" on="0"/>
        <pt x="569" y="-5" on="0"/>
        <pt x="498" y="6" on="1"/>
        <pt x="498" y="450" on="1"/>
        <pt x="250" y="450" on="1"/>
        <pt x="250" y="0" on="1"/>
        <pt x="90" y="0" on="1"/>
        <pt x="90" y="1004" on="1"/>
        <pt x="250" y="1004" on="1"/>
        <pt x="250" y="593" on="1"/>
        <pt x="498" y="593" on="1"/>
      </contour>
    </TTGlyph>
    <TTGlyph name="afii10108" xMin="0" yMin="0" xMax="967" yMax="1413">
      <component glyphName="hbar" x="0" y="0" flags="0x204"/>
    </TTGlyph>
    <TTGlyph name="afii10109" xMin="0" yMin="0" xMax="1063" yMax="1413">
      <component glyphName="kappa" x="0" y="0" flags="0x204"/>
      <component glyphName="acute" x="0" y="0" flags="0x4"/>
    </TTGlyph>
    <TTGlyph name="afii10110" xMin="0" yMin="-416" xMax="1053" yMax="1391">
      <component glyphName="y" x="0" y="0" flags="0x204"/>
      <component glyphName="glyph00585" x="0" y="0" flags="0x4"/>
    </TTGlyph>
    <TTGlyph name="afii10145" xMin="123" yMin="-283" xMax="1003" yMax="1307">
      <contour>
        <pt x="641" y="-283" on="1"/>
        <pt x="485" y="-283" on="1"/>
        <pt x="477" y="0" on="1"/>
        <pt x="123" y="0" on="1"/>
        <pt x="123" y="1307" on="1"/>
        <pt x="301" y="1307" on="1"/>
        <pt x="301" y="154" on="1"/>
        <pt x="825" y="154" on="1"/>
        <pt x="825" y="1307" on="1"/>
        <pt x="1003" y="1307" on="1"/>
        <pt x="1003" y="0" on="1"/>
        <pt x="649" y="0" on="1"/>
      </contour>
    </TTGlyph>
    <TTGlyph name="afii10146" xMin="4" yMin="0" xMax="1087" yMax="1307">
      <contour>
        <pt x="246" y="1155" on="1"/>
        <pt x="4" y="1155" on="1"/>
        <pt x="4" y="1307" on="1"/>
        <pt x="750" y="1307" on="1"/>
        <pt x="750" y="1155" on="1"/>
        <pt x="426" y="1155" on="1"/>
        <pt x="426" y="770" on="1"/>
        <pt x="598" y="770" on="1"/>
        <pt x="719" y="770" on="0"/>
        <pt x="902" y="713" on="0"/>
        <pt x="1025" y="613" on="0"/>
        <pt x="1087" y="479" on="0"/>
        <pt x="1087" y="401" on="1"/>
        <pt x="1087" y="308" on="0"/>
        <pt x="1014" y="159" on="0"/>
        <pt x="881" y="55" on="0"/>
        <pt x="694" y="0" on="0"/>
        <pt x="580" y="0" on="1"/>
        <pt x="246" y="0" on="1"/>
      </contour>
      <contour>
        <pt x="899" y="389" on="1"/>
        <pt x="899" y="442" on="0"/>
        <pt x="863" y="528" on="0"/>
        <pt x="787" y="590" on="0"/>
        <pt x="669" y="623" on="0"/>
        <pt x="586" y="623" on="1"/>
        <pt x="426" y="623" on="1"/>
        <pt x="426" y="150" on="1"/>
        <pt x="592" y="150" on="1"/>
        <pt x="745" y="150" on="0"/>
        <pt x="899" y="275" on="0"/>
      </contour>
    </TTGlyph>
    <TTGlyph name="afii10147" xMin="57" yMin="-18" xMax="1071" yMax="1325">
      <contour>
        <pt x="1071" y="662" on="1"/>
        <pt x="1071" y="486" on="0"/>
        <pt x="988" y="230" on="0"/>
        <pt x="847" y="63" on="0"/>
        <pt x="658" y="-18" on="0"/>
        <pt x="553" y="-18" on="1"/>
        <pt x="427" y="-18" on="0"/>
        <pt x="240" y="73" on="0"/>
        <pt x="117" y="245" on="0"/>
        <pt x="57" y="492" on="0"/>
        <pt x="57" y="647" on="1"/>
        <pt x="57" y="821" on="0"/>
        <pt x="139" y="1077" on="0"/>
        <pt x="280" y="1244" on="0"/>
        <pt x="468" y="1325" on="0"/>
        <pt x="573" y="1325" on="1"/>
        <pt x="699" y="1325" on="0"/>
        <pt x="886" y="1233" on="0"/>
        <pt x="1010" y="1062" on="0"/>
        <pt x="1071" y="816" on="0"/>
      </contour>
      <contour>
        <pt x="563" y="137" on="1"/>
        <pt x="643" y="137" on="0"/>
        <pt x="760" y="209" on="0"/>
        <pt x="840" y="334" on="0"/>
        <pt x="881" y="504" on="0"/>
        <pt x="886" y="602" on="1"/>
        <pt x="242" y="602" on="1"/>
        <pt x="246" y="497" on="0"/>
        <pt x="287" y="325" on="0"/>
        <pt x="365" y="204" on="0"/>
        <pt x="482" y="137" on="0"/>
      </contour>
      <contour>
        <pt x="563" y="1169" on="1"/>
        <pt x="487" y="1169" on="0"/>
        <pt x="374" y="1104" on="0"/>
        <pt x="297" y="990" on="0"/>
        <pt x="253" y="836" on="0"/>
        <pt x="244" y="748" on="1"/>
        <pt x="884" y="748" on="1"/>
        <pt x="875" y="846" on="0"/>
        <pt x="829" y="1002" on="0"/>
        <pt x="750" y="1111" on="0"/>
        <pt x="638" y="1169" on="0"/>
      </contour>
    </TTGlyph>
    <TTGlyph name="afii10148" xMin="4" yMin="0" xMax="1120" yMax="1315">
      <contour>
        <pt x="1044" y="1315" on="1"/>
        <pt x="1061" y="1315" on="0"/>
        <pt x="1102" y="1312" on="0"/>
        <pt x="1120" y="1309" on="1"/>
        <pt x="1120" y="1151" on="1"/>
        <pt x="1109" y="1153" on="0"/>
        <pt x="1089" y="1153" on="0"/>
        <pt x="1081" y="1153" on="1"/>
        <pt x="1058" y="1153" on="0"/>
        <pt x="1022" y="1141" on="0"/>
        <pt x="993" y="1110" on="0"/>
        <pt x="969" y="1059" on="0"/>
        <pt x="958" y="1020" on="1"/>
        <pt x="676" y="0" on="1"/>
        <pt x="426" y="0" on="1"/>
        <pt x="4" y="1307" on="1"/>
        <pt x="205" y="1307" on="1"/>
        <pt x="479" y="426" on="1"/>
        <pt x="555" y="168" on="1"/>
        <pt x="618" y="426" on="1"/>
        <pt x="788" y="1092" on="1"/>
        <pt x="800" y="1139" on="0"/>
        <pt x="841" y="1220" on="0"/>
        <pt x="902" y="1280" on="0"/>
        <pt x="987" y="1315" on="0"/>
      </contour>
    </TTGlyph>
    <TTGlyph name="afii10193" xMin="160" yMin="-255" xMax="966" yMax="1004">
      <contour>
        <pt x="639" y="-255" on="1"/>
        <pt x="487" y="-255" on="1"/>
        <pt x="479" y="0" on="1"/>
        <pt x="160" y="0" on="1"/>
        <pt x="160" y="1004" on="1"/>
        <pt x="334" y="1004" on="1"/>
        <pt x="334" y="154" on="1"/>
        <pt x="792" y="154" on="1"/>
        <pt x="792" y="1004" on="1"/>
        <pt x="966" y="1004" on="1"/>
        <pt x="966" y="0" on="1"/>
        <pt x="647" y="0" on="1"/>
      </contour>
    </TTGlyph>
    <TTGlyph name="afii10194" xMin="35" yMin="-12" xMax="1038" yMax="1325">
      <contour>
        <pt x="860" y="307" on="1"/>
        <pt x="860" y="345" on="0"/>
        <pt x="829" y="405" on="0"/>
        <pt x="763" y="447" on="0"/>
        <pt x="658" y="469" on="0"/>
        <pt x="584" y="469" on="1"/>
        <pt x="528" y="469" on="0"/>
        <pt x="436" y="467" on="0"/>
        <pt x="395" y="465" on="1"/>
        <pt x="395" y="141" on="1"/>
        <pt x="436" y="136" on="0"/>
        <pt x="521" y="133" on="0"/>
        <pt x="563" y="133" on="1"/>
        <pt x="648" y="133" on="0"/>
        <pt x="763" y="161" on="0"/>
        <pt x="831" y="209" on="0"/>
        <pt x="860" y="272" on="0"/>
      </contour>
      <contour>
        <pt x="395" y="610" on="1"/>
        <pt x="436" y="612" on="0"/>
        <pt x="529" y="614" on="0"/>
        <pt x="586" y="614" on="1"/>
        <pt x="703" y="614" on="0"/>
        <pt x="873" y="568" on="0"/>
        <pt x="984" y="486" on="0"/>
        <pt x="1038" y="374" on="0"/>
        <pt x="1038" y="309" on="1"/>
        <pt x="1038" y="232" on="0"/>
        <pt x="973" y="113" on="0"/>
        <pt x="850" y="31" on="0"/>
        <pt x="670" y="-12" on="0"/>
        <pt x="555" y="-12" on="1"/>
        <pt x="462" y="-12" on="0"/>
        <pt x="295" y="-3" on="0"/>
        <pt x="221" y="8" on="1"/>
        <pt x="221" y="858" on="1"/>
        <pt x="35" y="858" on="1"/>
        <pt x="35" y="1004" on="1"/>
        <pt x="221" y="1004" on="1"/>
        <pt x="221" y="1280" on="1"/>
        <pt x="395" y="1325" on="1"/>
        <pt x="395" y="1004" on="1"/>
        <pt x="846" y="1004" on="1"/>
        <pt x="846" y="858" on="1"/>
        <pt x="395" y="858" on="1"/>
      </contour>
    </TTGlyph>
    <TTGlyph name="afii10195" xMin="92" yMin="-18" xMax="1034" yMax="1022">
      <contour>
        <pt x="1034" y="510" on="1"/>
        <pt x="1034" y="393" on="0"/>
        <pt x="968" y="198" on="0"/>
        <pt x="844" y="59" on="0"/>
        <pt x="666" y="-18" on="0"/>
        <pt x="553" y="-18" on="1"/>
        <pt x="445" y="-18" on="0"/>
        <pt x="274" y="49" on="0"/>
        <pt x="155" y="179" on="0"/>
        <pt x="92" y="371" on="0"/>
        <pt x="92" y="496" on="1"/>
        <pt x="92" y="613" on="0"/>
        <pt x="158" y="806" on="0"/>
        <pt x="282" y="945" on="0"/>
        <pt x="460" y="1022" on="0"/>
        <pt x="573" y="1022" on="1"/>
        <pt x="681" y="1022" on="0"/>
        <pt x="852" y="955" on="0"/>
        <pt x="971" y="826" on="0"/>
        <pt x="1034" y="634" on="0"/>
      </contour>
      <contour>
        <pt x="563" y="129" on="1"/>
        <pt x="634" y="129" on="0"/>
        <pt x="737" y="179" on="0"/>
        <pt x="806" y="265" on="0"/>
        <pt x="848" y="381" on="0"/>
        <pt x="853" y="446" on="1"/>
        <pt x="273" y="446" on="1"/>
        <pt x="279" y="295" on="0"/>
        <pt x="433" y="129" on="0"/>
      </contour>
      <contour>
        <pt x="563" y="875" on="1"/>
        <pt x="494" y="875" on="0"/>
        <pt x="392" y="826" on="0"/>
        <pt x="321" y="744" on="0"/>
        <pt x="278" y="637" on="0"/>
        <pt x="273" y="580" on="1"/>
        <pt x="853" y="580" on="1"/>
        <pt x="834" y="730" on="0"/>
        <pt x="680" y="875" on="0"/>
      </contour>
    </TTGlyph>
    <TTGlyph name="afii10196" xMin="66" yMin="0" xMax="1090" yMax="1010">
      <contour>
        <pt x="766" y="801" on="1"/>
        <pt x="782" y="849" on="0"/>
        <pt x="821" y="926" on="0"/>
        <pt x="879" y="980" on="0"/>
        <pt x="961" y="1010" on="0"/>
        <pt x="1020" y="1010" on="1"/>
        <pt x="1032" y="1010" on="0"/>
        <pt x="1071" y="1007" on="0"/>
        <pt x="1090" y="1004" on="1"/>
        <pt x="1090" y="850" on="1"/>
        <pt x="1079" y="852" on="0"/>
        <pt x="1059" y="852" on="0"/>
        <pt x="1051" y="852" on="1"/>
        <pt x="1028" y="852" on="0"/>
        <pt x="993" y="843" on="0"/>
        <pt x="965" y="820" on="0"/>
        <pt x="943" y="780" on="0"/>
        <pt x="932" y="750" on="1"/>
        <pt x="666" y="0" on="1"/>
        <pt x="459" y="0" on="1"/>
        <pt x="66" y="1004" on="1"/>
        <pt x="264" y="1004" on="1"/>
        <pt x="510" y="340" on="1"/>
        <pt x="563" y="178" on="1"/>
        <pt x="614" y="344" on="1"/>
      </contour>
    </TTGlyph>
    <TTGlyph name="afii61289" xMin="61" yMin="-14" xMax="1012" yMax="1425">
      <contour>
        <pt x="61" y="571" on="1"/>
        <pt x="297" y="688" on="1"/>
        <pt x="297" y="1079" on="1"/>
        <pt x="297" y="1164" on="0"/>
        <pt x="342" y="1293" on="0"/>
        <pt x="424" y="1380" on="0"/>
        <pt x="541" y="1425" on="0"/>
        <pt x="612" y="1425" on="1"/>
        <pt x="747" y="1425" on="0"/>
        <pt x="895" y="1284" on="0"/>
        <pt x="895" y="1135" on="1"/>
        <pt x="895" y="1048" on="0"/>
        <pt x="831" y="899" on="0"/>
        <pt x="717" y="771" on="0"/>
        <pt x="562" y="663" on="0"/>
        <pt x="471" y="618" on="1"/>
        <pt x="471" y="383" on="1"/>
        <pt x="471" y="311" on="0"/>
        <pt x="505" y="214" on="0"/>
        <pt x="565" y="155" on="0"/>
        <pt x="648" y="131" on="0"/>
        <pt x="696" y="131" on="1"/>
        <pt x="733" y="131" on="0"/>
        <pt x="803" y="148" on="0"/>
        <pt x="864" y="177" on="0"/>
        <pt x="913" y="213" on="0"/>
        <pt x="930" y="231" on="1"/>
        <pt x="1012" y="113" on="1"/>
        <pt x="949" y="53" on="0"/>
        <pt x="777" y="-14" on="0"/>
        <pt x="678" y="-14" on="1"/>
        <pt x="642" y="-14" on="0"/>
        <pt x="557" y="0" on="0"/>
        <pt x="472" y="33" on="0"/>
        <pt x="393" y="89" on="0"/>
        <pt x="333" y="174" on="0"/>
        <pt x="297" y="290" on="0"/>
        <pt x="297" y="367" on="1"/>
        <pt x="297" y="530" on="1"/>
        <pt x="61" y="414" on="1"/>
      </contour>
      <contour>
        <pt x="471" y="776" on="1"/>
        <pt x="592" y="835" on="0"/>
        <pt x="719" y="1008" on="0"/>
        <pt x="719" y="1108" on="1"/>
        <pt x="719" y="1205" on="0"/>
        <pt x="661" y="1284" on="0"/>
        <pt x="602" y="1284" on="1"/>
        <pt x="574" y="1284" on="0"/>
        <pt x="526" y="1264" on="0"/>
        <pt x="491" y="1216" on="0"/>
        <pt x="471" y="1137" on="0"/>
        <pt x="471" y="1079" on="1"/>
      </contour>
    </TTGlyph>
    <TTGlyph name="afii61352" xMin="37" yMin="0" xMax="1114" yMax="1325">
      <contour>
        <pt x="600" y="0" on="1"/>
        <pt x="467" y="0" on="1"/>
        <pt x="170" y="887" on="1"/>
        <pt x="170" y="0" on="1"/>
        <pt x="37" y="0" on="1"/>
        <pt x="37" y="1307" on="1"/>
        <pt x="170" y="1307" on="1"/>
        <pt x="467" y="420" on="1"/>
        <pt x="467" y="1307" on="1"/>
        <pt x="600" y="1307" on="1"/>
      </contour>
      <contour>
        <pt x="1106" y="541" on="1"/>
        <pt x="735" y="541" on="1"/>
        <pt x="735" y="653" on="1"/>
        <pt x="1106" y="653" on="1"/>
      </contour>
      <contour>
        <pt x="1114" y="1047" on="1"/>
        <pt x="1114" y="986" on="0"/>
        <pt x="1087" y="880" on="0"/>
        <pt x="1034" y="801" on="0"/>
        <pt x="958" y="756" on="0"/>
        <pt x="909" y="756" on="1"/>
        <pt x="816" y="756" on="0"/>
        <pt x="715" y="895" on="0"/>
        <pt x="715" y="1038" on="1"/>
        <pt x="715" y="1100" on="0"/>
        <pt x="743" y="1205" on="0"/>
        <pt x="795" y="1282" on="0"/>
        <pt x="870" y="1325" on="0"/>
        <pt x="918" y="1325" on="1"/>
        <pt x="1012" y="1325" on="0"/>
        <pt x="1114" y="1184" on="0"/>
      </contour>
      <contour>
        <pt x="987" y="1044" on="1"/>
        <pt x="987" y="1126" on="0"/>
        <pt x="948" y="1210" on="0"/>
        <pt x="913" y="1210" on="1"/>
        <pt x="879" y="1210" on="0"/>
        <pt x="842" y="1118" on="0"/>
        <pt x="842" y="1042" on="1"/>
        <pt x="842" y="961" on="0"/>
        <pt x="879" y="871" on="0"/>
        <pt x="913" y="871" on="1"/>
        <pt x="948" y="871" on="0"/>
        <pt x="987" y="963" on="0"/>
      </contour>
    </TTGlyph>
    <TTGlyph name="agrave" xMin="0" yMin="-18" xMax="961" yMax="1413">
      <component glyphName="a" x="0" y="0" flags="0x204"/>
      <component glyphName="grave" x="0" y="0" flags="0x4"/>
    </TTGlyph>
    <TTGlyph name="alpha" xMin="80" yMin="-18" xMax="1087" yMax="1022">
      <contour>
        <pt x="80" y="487" on="1"/>
        <pt x="80" y="611" on="0"/>
        <pt x="143" y="809" on="0"/>
        <pt x="256" y="948" on="0"/>
        <pt x="412" y="1022" on="0"/>
        <pt x="506" y="1022" on="1"/>
        <pt x="563" y="1022" on="0"/>
        <pt x="665" y="991" on="0"/>
        <pt x="751" y="931" on="0"/>
        <pt x="815" y="844" on="0"/>
        <pt x="834" y="788" on="1"/>
        <pt x="870" y="1004" on="1"/>
        <pt x="1026" y="1004" on="1"/>
        <pt x="930" y="483" on="1"/>
        <pt x="930" y="471" on="1"/>
        <pt x="930" y="298" on="0"/>
        <pt x="1007" y="132" on="0"/>
        <pt x="1087" y="143" on="1"/>
        <pt x="1087" y="0" on="1"/>
        <pt x="1014" y="-11" on="0"/>
        <pt x="920" y="9" on="0"/>
        <pt x="859" y="64" on="0"/>
        <pt x="824" y="152" on="0"/>
        <pt x="811" y="209" on="1"/>
        <pt x="761" y="101" on="0"/>
        <pt x="589" y="-18" on="0"/>
        <pt x="467" y="-18" on="1"/>
        <pt x="369" y="-18" on="0"/>
        <pt x="224" y="56" on="0"/>
        <pt x="128" y="189" on="0"/>
        <pt x="80" y="375" on="0"/>
      </contour>
      <contour>
        <pt x="258" y="498" on="1"/>
        <pt x="258" y="315" on="0"/>
        <pt x="381" y="132" on="0"/>
        <pt x="502" y="132" on="1"/>
        <pt x="556" y="132" on="0"/>
        <pt x="648" y="186" on="0"/>
        <pt x="717" y="283" on="0"/>
        <pt x="756" y="415" on="0"/>
        <pt x="756" y="492" on="1"/>
        <pt x="756" y="510" on="1"/>
        <pt x="756" y="588" on="0"/>
        <pt x="724" y="721" on="0"/>
        <pt x="661" y="818" on="0"/>
        <pt x="569" y="872" on="0"/>
        <pt x="510" y="872" on="1"/>
        <pt x="449" y="872" on="0"/>
        <pt x="355" y="820" on="0"/>
        <pt x="291" y="723" on="0"/>
        <pt x="258" y="585" on="0"/>
      </contour>
    </TTGlyph>
    <TTGlyph name="alphatonos" xMin="0" yMin="-18" xMax="1087" yMax="1434">
      <component glyphName="alpha" x="0" y="0" flags="0x204"/>
      <component glyphName="tonos" x="0" y="0" flags="0x4"/>
    </TTGlyph>
    <TTGlyph name="amacron" xMin="0" yMin="-18" xMax="961" yMax="1358">
      <component glyphName="a" x="0" y="0" flags="0x204"/>
      <component glyphName="uni02C9" x="0" y="0" flags="0x4"/>
    </TTGlyph>
    <TTGlyph name="ampersand" xMin="57" yMin="-14" xMax="1126" yMax="1384">
      <contour>
        <pt x="1024" y="682" on="1"/>
        <pt x="1024" y="551" on="0"/>
        <pt x="972" y="337" on="0"/>
        <pt x="924" y="252" on="1"/>
        <pt x="1126" y="0" on="1"/>
        <pt x="895" y="0" on="1"/>
        <pt x="807" y="109" on="1"/>
        <pt x="736" y="49" on="0"/>
        <pt x="561" y="-14" on="0"/>
        <pt x="459" y="-14" on="1"/>
        <pt x="362" y="-14" on="0"/>
        <pt x="212" y="40" on="0"/>
        <pt x="110" y="137" on="0"/>
        <pt x="57" y="271" on="0"/>
        <pt x="57" y="352" on="1"/>
        <pt x="57" y="428" on="0"/>
        <pt x="97" y="547" on="0"/>
        <pt x="165" y="640" on="0"/>
        <pt x="254" y="711" on="0"/>
        <pt x="303" y="741" on="1"/>
        <pt x="281" y="772" on="1"/>
        <pt x="225" y="841" on="0"/>
        <pt x="170" y="983" on="0"/>
        <pt x="170" y="1051" on="1"/>
        <pt x="170" y="1123" on="0"/>
        <pt x="216" y="1245" on="0"/>
        <pt x="305" y="1334" on="0"/>
        <pt x="436" y="1384" on="0"/>
        <pt x="520" y="1384" on="1"/>
        <pt x="601" y="1384" on="0"/>
        <pt x="723" y="1338" on="0"/>
        <pt x="805" y="1258" on="0"/>
        <pt x="846" y="1153" on="0"/>
        <pt x="846" y="1094" on="1"/>
        <pt x="846" y="1019" on="0"/>
        <pt x="795" y="906" on="0"/>
        <pt x="712" y="819" on="0"/>
        <pt x="605" y="751" on="0"/>
        <pt x="549" y="719" on="1"/>
        <pt x="807" y="397" on="1"/>
        <pt x="851" y="515" on="0"/>
        <pt x="848" y="682" on="1"/>
      </contour>
      <contour>
        <pt x="238" y="373" on="1"/>
        <pt x="238" y="320" on="0"/>
        <pt x="272" y="232" on="0"/>
        <pt x="335" y="169" on="0"/>
        <pt x="426" y="135" on="0"/>
        <pt x="483" y="135" on="1"/>
        <pt x="613" y="135" on="0"/>
        <pt x="711" y="231" on="1"/>
        <pt x="393" y="629" on="1"/>
        <pt x="359" y="606" on="0"/>
        <pt x="302" y="554" on="0"/>
        <pt x="261" y="492" on="0"/>
        <pt x="238" y="418" on="0"/>
      </contour>
      <contour>
        <pt x="670" y="1077" on="1"/>
        <pt x="670" y="1152" on="0"/>
        <pt x="586" y="1237" on="0"/>
        <pt x="514" y="1237" on="1"/>
        <pt x="474" y="1237" on="0"/>
        <pt x="413" y="1211" on="0"/>
        <pt x="371" y="1165" on="0"/>
        <pt x="350" y="1103" on="0"/>
        <pt x="350" y="1067" on="1"/>
        <pt x="350" y="1013" on="0"/>
        <pt x="390" y="920" on="0"/>
        <pt x="434" y="864" on="1"/>
        <pt x="461" y="829" on="1"/>
        <pt x="504" y="853" on="0"/>
        <pt x="580" y="902" on="0"/>
        <pt x="637" y="961" on="0"/>
        <pt x="670" y="1032" on="0"/>
      </contour>
    </TTGlyph>
    <TTGlyph name="anoteleia" xMin="397" yMin="857" xMax="729" yMax="1191">
      <component glyphName="uni2219" x="0" y="458" flags="0x204"/>
    </TTGlyph>
    <TTGlyph name="aogonek" xMin="133" yMin="-385" xMax="1014" yMax="1022">
      <contour>
        <pt x="1014" y="-375" on="1"/>
        <pt x="989" y="-380" on="0"/>
        <pt x="928" y="-385" on="0"/>
        <pt x="903" y="-385" on="1"/>
        <pt x="795" y="-385" on="0"/>
        <pt x="684" y="-293" on="0"/>
        <pt x="684" y="-221" on="1"/>
        <pt x="684" y="-198" on="0"/>
        <pt x="693" y="-152" on="0"/>
        <pt x="719" y="-100" on="0"/>
        <pt x="766" y="-38" on="0"/>
        <pt x="805" y="0" on="1"/>
        <pt x="801" y="135" on="1"/>
        <pt x="719" y="54" on="0"/>
        <pt x="550" y="-18" on="0"/>
        <pt x="457" y="-18" on="1"/>
        <pt x="371" y="-18" on="0"/>
        <pt x="249" y="26" on="0"/>
        <pt x="170" y="103" on="0"/>
        <pt x="133" y="207" on="0"/>
        <pt x="133" y="268" on="1"/>
        <pt x="133" y="419" on="0"/>
        <pt x="358" y="590" on="0"/>
        <pt x="578" y="590" on="1"/>
        <pt x="786" y="590" on="1"/>
        <pt x="786" y="678" on="1"/>
        <pt x="786" y="767" on="0"/>
        <pt x="672" y="874" on="0"/>
        <pt x="555" y="874" on="1"/>
        <pt x="470" y="874" on="0"/>
        <pt x="305" y="836" on="0"/>
        <pt x="217" y="801" on="1"/>
        <pt x="217" y="958" on="1"/>
        <pt x="250" y="970" on="0"/>
        <pt x="331" y="993" on="0"/>
        <pt x="421" y="1011" on="0"/>
        <pt x="519" y="1022" on="0"/>
        <pt x="569" y="1022" on="1"/>
        <pt x="660" y="1022" on="0"/>
        <pt x="806" y="982" on="0"/>
        <pt x="907" y="900" on="0"/>
        <pt x="961" y="776" on="0"/>
        <pt x="961" y="692" on="1"/>
        <pt x="961" y="0" on="1"/>
        <pt x="925" y="-36" on="0"/>
        <pt x="881" y="-91" on="0"/>
        <pt x="857" y="-135" on="0"/>
        <pt x="848" y="-174" on="0"/>
        <pt x="848" y="-193" on="1"/>
        <pt x="848" y="-225" on="0"/>
        <pt x="891" y="-266" on="0"/>
        <pt x="944" y="-266" on="1"/>
        <pt x="958" y="-266" on="0"/>
        <pt x="997" y="-264" on="0"/>
        <pt x="1014" y="-262" on="1"/>
      </contour>
      <contour>
        <pt x="786" y="457" on="1"/>
        <pt x="565" y="457" on="1"/>
        <pt x="500" y="457" on="0"/>
        <pt x="406" y="431" on="0"/>
        <pt x="346" y="383" on="0"/>
        <pt x="317" y="316" on="0"/>
        <pt x="317" y="274" on="1"/>
        <pt x="317" y="245" on="0"/>
        <pt x="335" y="192" on="0"/>
        <pt x="375" y="151" on="0"/>
        <pt x="439" y="127" on="0"/>
        <pt x="485" y="127" on="1"/>
        <pt x="545" y="127" on="0"/>
        <pt x="700" y="200" on="0"/>
        <pt x="786" y="279" on="1"/>
      </contour>
    </TTGlyph>
    <TTGlyph name="approxequal" xMin="127" yMin="231" xMax="1001" yMax="858">
      <contour>
        <pt x="1001" y="711" on="1"/>
        <pt x="946" y="661" on="0"/>
        <pt x="825" y="602" on="0"/>
        <pt x="754" y="602" on="1"/>
        <pt x="699" y="602" on="0"/>
        <pt x="602" y="635" on="0"/>
        <pt x="508" y="676" on="0"/>
        <pt x="414" y="709" on="0"/>
        <pt x="362" y="709" on="1"/>
        <pt x="314" y="709" on="0"/>
        <pt x="230" y="664" on="0"/>
        <pt x="195" y="635" on="1"/>
        <pt x="127" y="748" on="1"/>
        <pt x="181" y="797" on="0"/>
        <pt x="304" y="858" on="0"/>
        <pt x="375" y="858" on="1"/>
        <pt x="429" y="858" on="0"/>
        <pt x="527" y="825" on="0"/>
        <pt x="620" y="785" on="0"/>
        <pt x="715" y="751" on="0"/>
        <pt x="766" y="751" on="1"/>
        <pt x="814" y="751" on="0"/>
        <pt x="899" y="794" on="0"/>
        <pt x="934" y="825" on="1"/>
      </contour>
      <contour>
        <pt x="1001" y="342" on="1"/>
        <pt x="946" y="291" on="0"/>
        <pt x="825" y="231" on="0"/>
        <pt x="754" y="231" on="1"/>
        <pt x="699" y="231" on="0"/>
        <pt x="602" y="264" on="0"/>
        <pt x="508" y="305" on="0"/>
        <pt x="414" y="338" on="0"/>
        <pt x="362" y="338" on="1"/>
        <pt x="314" y="338" on="0"/>
        <pt x="230" y="295" on="0"/>
        <pt x="195" y="264" on="1"/>
        <pt x="127" y="379" on="1"/>
        <pt x="181" y="428" on="0"/>
        <pt x="304" y="487" on="0"/>
        <pt x="375" y="487" on="1"/>
        <pt x="429" y="487" on="0"/>
        <pt x="527" y="454" on="0"/>
        <pt x="620" y="414" on="0"/>
        <pt x="715" y="380" on="0"/>
        <pt x="766" y="380" on="1"/>
        <pt x="814" y="380" on="0"/>
        <pt x="899" y="424" on="0"/>
        <pt x="934" y="455" on="1"/>
      </contour>
    </TTGlyph>
    <TTGlyph name="aring" xMin="0" yMin="-18" xMax="961" yMax="1501">
      <component glyphName="a" x="0" y="0" flags="0x204"/>
      <component glyphName="ring" x="0" y="0" flags="0x4"/>
    </TTGlyph>
    <TTGlyph name="aringacute" xMin="0" yMin="-18" xMax="961" yMax="1759">
      <component glyphName="a" x="0" y="0" flags="0x204"/>
      <component glyphName="ring" x="0" y="0" flags="0x4"/>
      <component glyphName="glyph00319" x="10" y="100" flags="0x4"/>
    </TTGlyph>
    <TTGlyph name="asciicircum" xMin="121" yMin="668" xMax="1014" yMax="1307">
      <contour>
        <pt x="1014" y="668" on="1"/>
        <pt x="840" y="668" on="1"/>
        <pt x="551" y="1169" on="1"/>
        <pt x="279" y="668" on="1"/>
        <pt x="121" y="668" on="1"/>
        <pt x="487" y="1307" on="1"/>
        <pt x="629" y="1307" on="1"/>
      </contour>
    </TTGlyph>
    <TTGlyph name="asciitilde" xMin="64" yMin="344" xMax="1062" yMax="754">
      <contour>
        <pt x="1061" y="696" on="1"/>
        <pt x="1062" y="620" on="0"/>
        <pt x="1028" y="491" on="0"/>
        <pt x="956" y="397" on="0"/>
        <pt x="849" y="344" on="0"/>
        <pt x="778" y="344" on="1"/>
        <pt x="723" y="344" on="0"/>
        <pt x="635" y="381" on="0"/>
        <pt x="560" y="437" on="0"/>
        <pt x="497" y="503" on="0"/>
        <pt x="436" y="559" on="0"/>
        <pt x="376" y="596" on="0"/>
        <pt x="342" y="596" on="1"/>
        <pt x="283" y="596" on="0"/>
        <pt x="226" y="502" on="0"/>
        <pt x="226" y="401" on="1"/>
        <pt x="66" y="401" on="1"/>
        <pt x="64" y="477" on="0"/>
        <pt x="99" y="606" on="0"/>
        <pt x="170" y="701" on="0"/>
        <pt x="277" y="754" on="0"/>
        <pt x="348" y="754" on="1"/>
        <pt x="403" y="754" on="0"/>
        <pt x="491" y="717" on="0"/>
        <pt x="566" y="661" on="0"/>
        <pt x="629" y="595" on="0"/>
        <pt x="690" y="539" on="0"/>
        <pt x="750" y="502" on="0"/>
        <pt x="784" y="502" on="1"/>
        <pt x="847" y="502" on="0"/>
        <pt x="901" y="594" on="0"/>
        <pt x="901" y="696" on="1"/>
      </contour>
    </TTGlyph>
    <TTGlyph name="asterisk" xMin="164" yMin="565" xMax="963" yMax="1413">
      <contour>
        <pt x="961" y="840" on="1"/>
        <pt x="893" y="721" on="1"/>
        <pt x="612" y="907" on="1"/>
        <pt x="635" y="565" on="1"/>
        <pt x="492" y="565" on="1"/>
        <pt x="514" y="907" on="1"/>
        <pt x="227" y="721" on="1"/>
        <pt x="164" y="838" on="1"/>
        <pt x="471" y="989" on="1"/>
        <pt x="164" y="1143" on="1"/>
        <pt x="233" y="1260" on="1"/>
        <pt x="516" y="1071" on="1"/>
        <pt x="492" y="1413" on="1"/>
        <pt x="635" y="1413" on="1"/>
        <pt x="610" y="1071" on="1"/>
        <pt x="893" y="1262" on="1"/>
        <pt x="963" y="1139" on="1"/>
        <pt x="655" y="987" on="1"/>
      </contour>
    </TTGlyph>
    <TTGlyph name="at" xMin="9" yMin="-416" xMax="1112" yMax="1425">
      <contour>
        <pt x="780" y="408" on="1"/>
        <pt x="771" y="344" on="0"/>
        <pt x="769" y="260" on="0"/>
        <pt x="782" y="212" on="0"/>
        <pt x="810" y="193" on="0"/>
        <pt x="831" y="193" on="1"/>
        <pt x="859" y="193" on="0"/>
        <pt x="909" y="252" on="0"/>
        <pt x="948" y="375" on="0"/>
        <pt x="971" y="563" on="0"/>
        <pt x="971" y="692" on="1"/>
        <pt x="971" y="836" on="0"/>
        <pt x="935" y="1062" on="0"/>
        <pt x="857" y="1220" on="0"/>
        <pt x="732" y="1303" on="0"/>
        <pt x="643" y="1303" on="1"/>
        <pt x="575" y="1303" on="0"/>
        <pt x="448" y="1234" on="0"/>
        <pt x="339" y="1109" on="0"/>
        <pt x="250" y="934" on="0"/>
        <pt x="187" y="722" on="0"/>
        <pt x="152" y="478" on="0"/>
        <pt x="152" y="346" on="1"/>
        <pt x="152" y="24" on="0"/>
        <pt x="346" y="-293" on="0"/>
        <pt x="522" y="-293" on="1"/>
        <pt x="611" y="-293" on="0"/>
        <pt x="765" y="-252" on="0"/>
        <pt x="848" y="-211" on="1"/>
        <pt x="848" y="-340" on="1"/>
        <pt x="766" y="-378" on="0"/>
        <pt x="602" y="-416" on="0"/>
        <pt x="512" y="-416" on="1"/>
        <pt x="257" y="-416" on="0"/>
        <pt x="12" y="-34" on="0"/>
        <pt x="10" y="344" on="1"/>
        <pt x="9" y="495" on="0"/>
        <pt x="51" y="772" on="0"/>
        <pt x="130" y="1012" on="0"/>
        <pt x="243" y="1209" on="0"/>
        <pt x="386" y="1348" on="0"/>
        <pt x="554" y="1425" on="0"/>
        <pt x="649" y="1425" on="1"/>
        <pt x="768" y="1425" on="0"/>
        <pt x="943" y="1328" on="0"/>
        <pt x="1057" y="1145" on="0"/>
        <pt x="1112" y="879" on="0"/>
        <pt x="1112" y="709" on="1"/>
        <pt x="1111" y="537" on="0"/>
        <pt x="1068" y="292" on="0"/>
        <pt x="990" y="136" on="0"/>
        <pt x="879" y="63" on="0"/>
        <pt x="811" y="63" on="1"/>
        <pt x="733" y="63" on="0"/>
        <pt x="657" y="143" on="0"/>
        <pt x="657" y="211" on="1"/>
        <pt x="619" y="134" on="0"/>
        <pt x="531" y="63" on="0"/>
        <pt x="469" y="63" on="1"/>
        <pt x="375" y="63" on="0"/>
        <pt x="281" y="204" on="0"/>
        <pt x="281" y="356" on="1"/>
        <pt x="281" y="411" on="0"/>
        <pt x="294" y="537" on="0"/>
        <pt x="325" y="664" on="0"/>
        <pt x="375" y="781" on="0"/>
        <pt x="448" y="870" on="0"/>
        <pt x="548" y="924" on="0"/>
        <pt x="612" y="924" on="1"/>
        <pt x="650" y="924" on="0"/>
        <pt x="716" y="906" on="0"/>
        <pt x="731" y="897" on="1"/>
        <pt x="860" y="928" on="1"/>
      </contour>
      <contour>
        <pt x="678" y="764" on="1"/>
        <pt x="669" y="776" on="0"/>
        <pt x="632" y="795" on="0"/>
        <pt x="604" y="795" on="1"/>
        <pt x="574" y="795" on="0"/>
        <pt x="526" y="753" on="0"/>
        <pt x="489" y="683" on="0"/>
        <pt x="464" y="594" on="0"/>
        <pt x="447" y="500" on="0"/>
        <pt x="440" y="409" on="0"/>
        <pt x="440" y="373" on="1"/>
        <pt x="440" y="277" on="0"/>
        <pt x="464" y="193" on="0"/>
        <pt x="498" y="193" on="1"/>
        <pt x="510" y="193" on="0"/>
        <pt x="534" y="203" on="0"/>
        <pt x="561" y="232" on="0"/>
        <pt x="593" y="284" on="0"/>
        <pt x="612" y="326" on="1"/>
      </contour>
    </TTGlyph>
    <TTGlyph name="atilde" xMin="0" yMin="-18" xMax="961" yMax="1413">
      <component glyphName="a" x="0" y="0" flags="0x204"/>
      <component glyphName="tilde" x="0" y="0" flags="0x4"/>
    </TTGlyph>
    <TTGlyph name="b" xMin="160" yMin="-12" xMax="1018" yMax="1413">
      <contour>
        <pt x="1018" y="520" on="1"/>
        <pt x="1018" y="395" on="0"/>
        <pt x="949" y="198" on="0"/>
        <pt x="822" y="61" on="0"/>
        <pt x="640" y="-12" on="0"/>
        <pt x="526" y="-12" on="1"/>
        <pt x="437" y="-12" on="0"/>
        <pt x="251" y="22" on="0"/>
        <pt x="160" y="59" on="1"/>
        <pt x="160" y="1413" on="1"/>
        <pt x="334" y="1413" on="1"/>
        <pt x="334" y="1024" on="1"/>
        <pt x="326" y="838" on="1"/>
        <pt x="401" y="939" on="0"/>
        <pt x="572" y="1022" on="0"/>
        <pt x="670" y="1022" on="1"/>
        <pt x="756" y="1022" on="0"/>
        <pt x="886" y="950" on="0"/>
        <pt x="974" y="819" on="0"/>
        <pt x="1018" y="634" on="0"/>
      </contour>
      <contour>
        <pt x="840" y="512" on="1"/>
        <pt x="840" y="591" on="0"/>
        <pt x="817" y="723" on="0"/>
        <pt x="767" y="817" on="0"/>
        <pt x="689" y="870" on="0"/>
        <pt x="635" y="870" on="1"/>
        <pt x="602" y="870" on="0"/>
        <pt x="534" y="849" on="0"/>
        <pt x="461" y="800" on="0"/>
        <pt x="380" y="719" on="0"/>
        <pt x="334" y="659" on="1"/>
        <pt x="334" y="172" on="1"/>
        <pt x="385" y="152" on="0"/>
        <pt x="491" y="129" on="0"/>
        <pt x="539" y="129" on="1"/>
        <pt x="599" y="129" on="0"/>
        <pt x="708" y="167" on="0"/>
        <pt x="791" y="256" on="0"/>
        <pt x="840" y="403" on="0"/>
      </contour>
    </TTGlyph>
    <TTGlyph name="backslash" xMin="160" yMin="-215" xMax="1012" yMax="1413">
      <contour>
        <pt x="1012" y="-215" on="1"/>
        <pt x="846" y="-215" on="1"/>
        <pt x="160" y="1413" on="1"/>
        <pt x="326" y="1413" on="1"/>
      </contour>
    </TTGlyph>
    <TTGlyph name="bar" xMin="481" yMin="-410" xMax="645" yMax="1638">
      <contour>
        <pt x="645" y="-410" on="1"/>
        <pt x="481" y="-410" on="1"/>
        <pt x="481" y="1638" on="1"/>
        <pt x="645" y="1638" on="1"/>
      </contour>
    </TTGlyph>
    <TTGlyph name="beta" xMin="160" yMin="-410" xMax="1034" yMax="1425">
      <contour>
        <pt x="1034" y="428" on="1"/>
        <pt x="1034" y="333" on="0"/>
        <pt x="969" y="171" on="0"/>
        <pt x="850" y="54" on="0"/>
        <pt x="683" y="-12" on="0"/>
        <pt x="582" y="-12" on="1"/>
        <pt x="504" y="-12" on="0"/>
        <pt x="383" y="25" on="0"/>
        <pt x="334" y="51" on="1"/>
        <pt x="334" y="-410" on="1"/>
        <pt x="160" y="-410" on="1"/>
        <pt x="160" y="1022" on="1"/>
        <pt x="160" y="1103" on="0"/>
        <pt x="211" y="1250" on="0"/>
        <pt x="314" y="1360" on="0"/>
        <pt x="469" y="1425" on="0"/>
        <pt x="573" y="1425" on="1"/>
        <pt x="664" y="1425" on="0"/>
        <pt x="805" y="1370" on="0"/>
        <pt x="901" y="1274" on="0"/>
        <pt x="950" y="1146" on="0"/>
        <pt x="950" y="1073" on="1"/>
        <pt x="950" y="1021" on="0"/>
        <pt x="921" y="923" on="0"/>
        <pt x="870" y="844" on="0"/>
        <pt x="800" y="791" on="0"/>
        <pt x="760" y="784" on="1"/>
        <pt x="821" y="777" on="0"/>
        <pt x="922" y="717" on="0"/>
        <pt x="994" y="622" on="0"/>
        <pt x="1034" y="498" on="0"/>
      </contour>
      <contour>
        <pt x="334" y="214" on="1"/>
        <pt x="390" y="180" on="0"/>
        <pt x="515" y="138" on="0"/>
        <pt x="584" y="138" on="1"/>
        <pt x="643" y="138" on="0"/>
        <pt x="743" y="171" on="0"/>
        <pt x="815" y="240" on="0"/>
        <pt x="856" y="345" on="0"/>
        <pt x="856" y="420" on="1"/>
        <pt x="856" y="477" on="0"/>
        <pt x="825" y="573" on="0"/>
        <pt x="756" y="643" on="0"/>
        <pt x="645" y="683" on="0"/>
        <pt x="565" y="683" on="1"/>
        <pt x="481" y="683" on="1"/>
        <pt x="481" y="833" on="1"/>
        <pt x="543" y="833" on="1"/>
        <pt x="604" y="833" on="0"/>
        <pt x="691" y="869" on="0"/>
        <pt x="747" y="930" on="0"/>
        <pt x="774" y="1012" on="0"/>
        <pt x="774" y="1058" on="1"/>
        <pt x="774" y="1105" on="0"/>
        <pt x="745" y="1186" on="0"/>
        <pt x="691" y="1244" on="0"/>
        <pt x="613" y="1277" on="0"/>
        <pt x="563" y="1277" on="1"/>
        <pt x="509" y="1277" on="0"/>
        <pt x="423" y="1240" on="0"/>
        <pt x="365" y="1172" on="0"/>
        <pt x="334" y="1074" on="0"/>
        <pt x="334" y="1014" on="1"/>
      </contour>
    </TTGlyph>
    <TTGlyph name="braceleft" xMin="162" yMin="-410" xMax="897" yMax="1448">
      <contour>
        <pt x="897" y="-410" on="1"/>
        <pt x="823" y="-410" on="1"/>
        <pt x="630" y="-410" on="0"/>
        <pt x="442" y="-229" on="0"/>
        <pt x="442" y="-45" on="1"/>
        <pt x="442" y="299" on="1"/>
        <pt x="442" y="348" on="0"/>
        <pt x="420" y="425" on="0"/>
        <pt x="365" y="478" on="0"/>
        <pt x="274" y="506" on="0"/>
        <pt x="205" y="506" on="1"/>
        <pt x="162" y="506" on="1"/>
        <pt x="162" y="645" on="1"/>
        <pt x="205" y="645" on="1"/>
        <pt x="278" y="645" on="0"/>
        <pt x="370" y="669" on="0"/>
        <pt x="422" y="718" on="0"/>
        <pt x="442" y="794" on="0"/>
        <pt x="442" y="846" on="1"/>
        <pt x="442" y="1083" on="1"/>
        <pt x="442" y="1167" on="0"/>
        <pt x="482" y="1302" on="0"/>
        <pt x="573" y="1397" on="0"/>
        <pt x="718" y="1448" on="0"/>
        <pt x="823" y="1448" on="1"/>
        <pt x="897" y="1448" on="1"/>
        <pt x="897" y="1308" on="1"/>
        <pt x="838" y="1308" on="1"/>
        <pt x="606" y="1308" on="0"/>
        <pt x="606" y="1083" on="1"/>
        <pt x="606" y="850" on="1"/>
        <pt x="606" y="606" on="0"/>
        <pt x="395" y="575" on="1"/>
        <pt x="608" y="554" on="0"/>
        <pt x="608" y="301" on="1"/>
        <pt x="608" y="-41" on="1"/>
        <pt x="608" y="-270" on="0"/>
        <pt x="838" y="-270" on="1"/>
        <pt x="897" y="-270" on="1"/>
      </contour>
    </TTGlyph>
    <TTGlyph name="braceright" xMin="229" yMin="-410" xMax="965" yMax="1448">
      <contour>
        <pt x="229" y="1448" on="1"/>
        <pt x="303" y="1448" on="1"/>
        <pt x="496" y="1448" on="0"/>
        <pt x="684" y="1267" on="0"/>
        <pt x="684" y="1083" on="1"/>
        <pt x="684" y="852" on="1"/>
        <pt x="684" y="803" on="0"/>
        <pt x="706" y="726" on="0"/>
        <pt x="761" y="673" on="0"/>
        <pt x="853" y="645" on="0"/>
        <pt x="922" y="645" on="1"/>
        <pt x="965" y="645" on="1"/>
        <pt x="965" y="506" on="1"/>
        <pt x="922" y="506" on="1"/>
        <pt x="849" y="506" on="0"/>
        <pt x="756" y="482" on="0"/>
        <pt x="704" y="433" on="0"/>
        <pt x="684" y="357" on="0"/>
        <pt x="684" y="305" on="1"/>
        <pt x="684" y="-45" on="1"/>
        <pt x="684" y="-129" on="0"/>
        <pt x="644" y="-264" on="0"/>
        <pt x="554" y="-359" on="0"/>
        <pt x="408" y="-410" on="0"/>
        <pt x="303" y="-410" on="1"/>
        <pt x="229" y="-410" on="1"/>
        <pt x="229" y="-270" on="1"/>
        <pt x="289" y="-270" on="1"/>
        <pt x="520" y="-270" on="0"/>
        <pt x="520" y="-45" on="1"/>
        <pt x="520" y="301" on="1"/>
        <pt x="520" y="545" on="0"/>
        <pt x="731" y="575" on="1"/>
        <pt x="518" y="598" on="0"/>
        <pt x="518" y="850" on="1"/>
        <pt x="518" y="1079" on="1"/>
        <pt x="518" y="1308" on="0"/>
        <pt x="289" y="1308" on="1"/>
        <pt x="229" y="1308" on="1"/>
      </contour>
    </TTGlyph>
    <TTGlyph name="bracketleft" xMin="345" yMin="-410" xMax="838" yMax="1448">
      <contour>
        <pt x="838" y="-410" on="1"/>
        <pt x="345" y="-410" on="1"/>
        <pt x="345" y="1448" on="1"/>
        <pt x="838" y="1448" on="1"/>
        <pt x="838" y="1308" on="1"/>
        <pt x="511" y="1308" on="1"/>
        <pt x="511" y="-270" on="1"/>
        <pt x="838" y="-270" on="1"/>
      </contour>
    </TTGlyph>
    <TTGlyph name="bracketright" xMin="288" yMin="-410" xMax="781" yMax="1448">
      <contour>
        <pt x="781" y="-410" on="1"/>
        <pt x="288" y="-410" on="1"/>
        <pt x="288" y="-270" on="1"/>
        <pt x="613" y="-270" on="1"/>
        <pt x="613" y="1308" on="1"/>
        <pt x="288" y="1308" on="1"/>
        <pt x="288" y="1448" on="1"/>
        <pt x="781" y="1448" on="1"/>
      </contour>
    </TTGlyph>
    <TTGlyph name="breve" xMin="0" yMin="1004" xMax="811" yMax="1413">
      <contour>
        <pt x="811" y="1413" on="1"/>
        <pt x="811" y="1352" on="0"/>
        <pt x="771" y="1261" on="0"/>
        <pt x="704" y="1201" on="0"/>
        <pt x="614" y="1171" on="0"/>
        <pt x="563" y="1171" on="1"/>
        <pt x="512" y="1171" on="0"/>
        <pt x="422" y="1201" on="0"/>
        <pt x="355" y="1261" on="0"/>
        <pt x="315" y="1352" on="0"/>
        <pt x="315" y="1413" on="1"/>
        <pt x="451" y="1413" on="1"/>
        <pt x="451" y="1362" on="0"/>
        <pt x="507" y="1300" on="0"/>
        <pt x="563" y="1300" on="1"/>
        <pt x="619" y="1300" on="0"/>
        <pt x="675" y="1362" on="0"/>
        <pt x="675" y="1413" on="1"/>
      </contour>
      <contour>
        <pt x="0" y="1004" on="1"/>
      </contour>
    </TTGlyph>
    <TTGlyph name="brokenbar" xMin="481" yMin="-410" xMax="645" yMax="1638">
      <contour>
        <pt x="645" y="-410" on="1"/>
        <pt x="481" y="-410" on="1"/>
        <pt x="481" y="426" on="1"/>
        <pt x="645" y="426" on="1"/>
      </contour>
      <contour>
        <pt x="481" y="827" on="1"/>
        <pt x="481" y="1638" on="1"/>
        <pt x="645" y="1638" on="1"/>
        <pt x="645" y="827" on="1"/>
      </contour>
    </TTGlyph>
    <TTGlyph name="bullet" xMin="258" yMin="260" xMax="868" yMax="870">
      <contour>
        <pt x="563" y="870" on="1"/>
        <pt x="626" y="870" on="0"/>
        <pt x="737" y="822" on="0"/>
        <pt x="820" y="739" on="0"/>
        <pt x="868" y="628" on="0"/>
        <pt x="868" y="565" on="1"/>
        <pt x="868" y="502" on="0"/>
        <pt x="820" y="391" on="0"/>
        <pt x="737" y="308" on="0"/>
        <pt x="626" y="260" on="0"/>
        <pt x="563" y="260" on="1"/>
        <pt x="500" y="260" on="0"/>
        <pt x="389" y="308" on="0"/>
        <pt x="306" y="391" on="0"/>
        <pt x="258" y="502" on="0"/>
        <pt x="258" y="565" on="1"/>
        <pt x="258" y="628" on="0"/>
        <pt x="306" y="739" on="0"/>
        <pt x="389" y="822" on="0"/>
        <pt x="500" y="870" on="0"/>
      </contour>
    </TTGlyph>
</ttFont>
